<?xml version="1.0" encoding="UTF-8"?> <svg xmlns="http://www.w3.org/2000/svg" width="55" height="60" viewBox="0 0 55 60" fill="none"><g clip-path="url(#clip0_5_735)"><path d="M0.632979 60C0.455428 60 0.287221 59.9266 0.168075 59.7995C0.0489288 59.6713 -0.0118124 59.4988 0.00103674 59.3252L3.37217 13.8837C3.3967 13.5574 3.67238 13.301 4.00061 13.301H16.9093V10.569C16.9093 7.74607 18.0108 5.09217 20.0118 3.09563C22.0115 1.09909 24.6713 0 27.5005 0C30.3296 0 32.9894 1.09909 34.9903 3.09563C36.9702 5.05954 38.101 7.78337 38.0928 10.5678V13.301H50.9909C51.3227 13.301 51.5984 13.5574 51.6229 13.8837L54.9987 59.3252C55.0115 59.5 54.9508 59.6725 54.8317 59.7995C54.7125 59.9277 54.5443 60 54.3703 60H0.632979V60ZM1.30931 58.7412H53.6869L50.4069 14.5586H38.0928V18.0761L38.3568 18.1437C39.5074 18.4363 40.4418 19.2731 40.8565 20.3827C41.2712 21.4923 41.1158 22.7359 40.4383 23.7091C39.7608 24.6823 38.6488 25.2627 37.462 25.2627C36.2752 25.2627 35.162 24.6823 34.4857 23.7091C33.8082 22.7359 33.6528 21.4923 34.0675 20.3827C34.4822 19.2731 35.4167 18.4363 36.5672 18.1437L36.8312 18.0761V14.5586H18.1708V18.0773L18.4348 18.1449C19.5842 18.4374 20.5187 19.2743 20.9346 20.3838C21.3492 21.4934 21.1939 22.7359 20.5164 23.7091C19.8401 24.6823 18.7269 25.2627 17.5401 25.2627C16.3533 25.2627 15.2412 24.6823 14.5637 23.7091C13.8874 22.7359 13.7309 21.4934 14.1456 20.3838C14.5602 19.2743 15.4947 18.4374 16.6453 18.1449L16.9093 18.0773V14.5586H4.5905L1.31048 58.7424L1.30931 58.7412ZM37.4585 19.2883C36.8277 19.2883 36.2343 19.5342 35.7893 19.9794C35.3431 20.4246 35.0978 21.0167 35.0978 21.6461C35.0978 22.2662 35.3513 22.8734 35.7905 23.3116C36.2367 23.7557 36.8289 24.0005 37.4597 24.0005C38.0904 24.0005 38.6838 23.7545 39.1289 23.3093C39.5739 22.8652 39.8192 22.2732 39.8192 21.6438C39.8192 21.0144 39.5728 20.4223 39.1277 19.9782C38.6815 19.533 38.0881 19.2883 37.4585 19.2883L37.8089 19.6379H37.1081L37.4573 19.2883H37.4585ZM17.5389 19.2883C16.9081 19.2883 16.3147 19.5342 15.8697 19.9794C15.4235 20.4246 15.1782 21.0167 15.1782 21.6461C15.1782 22.2662 15.4316 22.8734 15.8708 23.3116C16.3171 23.7557 16.9093 24.0005 17.5401 24.0005C18.1708 24.0005 18.7642 23.7545 19.2093 23.3093C19.6543 22.8652 19.8996 22.2732 19.8996 21.6438C19.8996 21.0144 19.6473 20.4165 19.2081 19.9782C18.7619 19.533 18.1685 19.2883 17.5389 19.2883V19.2883ZM27.4981 1.25877C25.0077 1.26226 22.6657 2.23198 20.9054 3.98959C19.145 5.74603 18.1732 8.08291 18.1708 10.569V13.301H36.8312V10.569C36.8312 8.08174 35.8605 5.7437 34.0979 3.98609C32.3352 2.22732 29.992 1.25993 27.4993 1.25993L27.4981 1.25877Z" fill="black"></path></g><defs><clipPath id="clip0_5_735"><rect width="55" height="60" fill="white"></rect></clipPath></defs></svg> 