<svg xmlns="http://www.w3.org/2000/svg" xmlns:xlink="http://www.w3.org/1999/xlink" id="Layer_1" x="0px" y="0px" width="9000px" height="4000px" viewBox="0 0 9000 4000" xml:space="preserve"><path fill="#D76907" d="M9000,1472.847c-381.047,77.529-876.939,275.813-1439.756,734.636 c-1150.018,937.513-1699.227,862.516-2628.066,735.677c-115.01-15.706-235.832-32.209-363.607-47.604 c-15.667-1.886-31.259-3.812-46.794-5.77l-24.065-3.588c-29.408-4.542-58.615-8.973-87.625-13.255 c-29.406-4.543-58.612-8.979-87.621-13.257c-29.408-4.543-58.617-8.978-87.623-13.256c-29.408-4.543-58.617-8.978-87.625-13.256 c-29.414-4.543-58.614-8.971-87.623-13.256c-29.414-4.549-58.615-8.971-87.623-13.256c-29.414-4.549-58.614-8.972-87.625-13.257 c-29.412-4.54-58.613-8.978-87.623-13.256c-781.2-120.715-1416.81-161.007-2126.621,538.052 c-344.475,339.256-801.625,544.105-1252.993,663.462c-24.055,6.36-48.089,12.452-72.097,18.335h27.493 c15.421-3.885,30.849-7.851,46.29-11.935c452.347-119.613,910.543-324.97,1255.955-665.148 c567.71-559.108,1088.196-643.694,1674.38-593.09c-552.262-34.521-1050.267,68.694-1591.406,601.632 c-344.475,339.256-801.624,544.105-1252.994,663.459c-6.501,1.723-12.995,3.402-19.491,5.082h26.119 c450.739-119.799,906.857-324.891,1251.015-663.826c567.71-559.109,1088.196-643.697,1674.382-593.093 c-552.264-34.52-1050.275,68.696-1591.408,601.634C1508.598,3676.357,1064.175,3879.55,622.725,4000h24.872 c434.769-121.467,870.619-323.813,1202.402-650.571c567.71-559.108,1088.192-643.696,1674.379-593.093 c-552.269-34.52-1050.274,68.697-1591.405,601.635c-324.691,319.77-749.49,520.117-1175.194,642.029h23.803 c419.261-122.748,836.05-322.173,1156.04-637.314c567.71-559.104,1088.196-643.697,1674.38-593.094 c-552.269-34.524-1050.272,68.697-1591.406,601.635C1707.414,3679.666,1301.102,3877.001,890.662,4000h22.827 c404.21-123.684,803.037-320.016,1111.755-624.061c567.71-559.108,1088.195-643.689,1674.382-593.093 c-552.271-34.52-1050.269,68.697-1591.408,601.636C1806.055,3682.069,1417.183,3876.237,1021.57,4000h21.964 c389.601-124.309,771.418-317.398,1069.334-610.804c567.71-559.109,1088.194-643.69,1674.38-593.093 c-552.27-34.521-1050.268,68.703-1591.406,601.632C1904.25,3684.912,1531.921,3875.771,1150.708,4000h21.158 c375.403-124.635,741.097-314.376,1028.625-597.548c567.711-559.108,1088.2-643.698,1674.38-593.093 c-552.27-34.526-1050.271,68.697-1591.405,601.632c-281.418,277.156-638.047,464.595-1005.273,589.009h20.456 c361.607-124.707,711.939-310.97,989.466-584.293c567.717-559.115,1088.196-643.697,1674.382-593.092 c-552.271-34.525-1050.275,68.704-1591.408,601.632c-271.601,267.484-613.249,451.404-966.875,575.753h19.797 c348.182-124.533,683.87-307.236,951.729-571.037c567.708-559.114,1088.193-643.688,1674.379-593.092 c-552.27-34.525-1050.275,68.697-1591.405,601.633c-262.104,258.134-589.446,438.447-929.846,562.496h19.214 c335.11-124.129,656.78-303.2,915.28-557.78c567.71-559.116,1088.201-643.689,1674.38-593.093 c-552.275-34.525-1050.271,68.697-1591.405,601.633c-252.907,249.076-566.556,425.703-894.047,549.24h18.588 c322.399-123.522,630.667-298.863,880.108-544.524c567.71-559.108,1088.195-643.697,1674.381-593.092 c-552.271-34.521-1050.275,68.7-1591.408,601.632c-244.007,240.311-544.552,413.165-859.535,535.984h18.105 c310.025-122.716,605.425-294.261,846.08-531.27c567.708-559.109,1088.193-643.697,1674.38-593.092 c-552.269-34.526-1050.274,68.695-1591.406,601.632c-235.354,231.788-523.309,400.825-826.077,522.729h17.645 c297.956-121.726,580.98-289.436,813.081-518.015c567.711-559.108,1088.194-643.696,1674.38-593.092 c-552.27-34.515-1050.279,68.701-1591.405,601.632c-226.935,223.5-502.773,388.658-793.646,509.475h17.126 c286.22-120.563,557.369-284.354,781.169-504.759c567.71-559.108,1088.196-643.696,1674.382-593.092 c-552.271-34.521-1050.275,68.694-1591.408,601.632c-218.751,215.438-482.949,376.651-762.24,496.219h16.768 c274.757-119.228,534.434-279.08,750.124-491.502c567.708-559.109,1088.192-643.697,1674.38-593.093 c-552.27-34.521-1050.275,68.694-1591.406,601.632c-210.764,207.568-463.718,364.821-731.707,482.963h16.29 c263.614-117.746,512.257-273.588,720.065-478.246c567.71-559.109,1088.193-643.697,1674.38-593.093 c-552.269-34.521-1050.274,68.694-1591.405,601.632c-202.979,199.904-445.089,353.129-702.08,469.707h15.965 c252.733-116.113,490.666-267.931,690.763-464.99c567.71-559.109,1088.196-643.697,1674.381-593.092 c-552.271-34.522-1050.274,68.692-1591.407,601.631c-195.374,192.42-427.004,341.586-673.262,456.45h15.573 c242.128-114.354,469.766-262.079,662.338-451.733c567.71-559.109,1088.194-643.697,1674.382-593.093 c-552.27-34.521-1050.275,68.693-1591.405,601.632c-187.946,185.094-409.433,330.177-645.214,443.194h15.217 c231.782-112.446,449.43-256.066,634.646-438.479c567.711-559.109,1088.194-643.697,1674.38-593.093 c-552.27-34.521-1050.273,68.693-1591.406,601.631c-180.684,177.941-392.365,318.895-617.949,429.939h14.955 c221.681-110.416,429.634-249.913,607.643-425.227c567.71-559.108,1088.196-643.693,1674.379-593.09 c-552.27-34.521-1050.271,68.694-1591.405,601.633c-173.563,170.937-375.739,307.735-591.366,416.684h14.605 c211.837-108.263,410.447-243.597,581.409-411.97c567.71-559.109,1088.196-643.695,1674.382-593.091 c-552.271-34.515-1050.275,68.702-1591.408,601.633c-166.592,164.068-359.529,296.697-565.431,403.428h14.272 c202.233-106,391.746-237.143,555.809-398.714c567.71-559.108,1088.193-643.69,1674.38-593.09 c-552.271-34.515-1050.276,68.7-1591.406,601.632c-159.771,157.348-343.791,285.768-540.222,390.172h14.064 c192.853-103.629,373.523-230.559,530.806-385.458c567.711-559.108,1088.201-643.69,1674.379-593.092 c-552.263-34.521-1050.265,68.696-1591.405,601.634c-153.076,150.752-328.417,274.955-515.596,376.916h13.825 c183.694-101.145,355.786-223.847,506.419-372.202c620.886-611.48,1185.283-655.419,1840.906-575.624 c26.531,4.076,53.235,8.113,80.131,12.1c28.99,4.47,58.197,8.894,87.625,13.256c28.988,4.463,58.196,8.895,87.623,13.256 c28.987,4.463,58.195,8.895,87.621,13.255c28.988,4.472,58.196,8.896,87.625,13.257c28.988,4.471,58.195,8.895,87.623,13.256 c28.987,4.471,58.195,8.894,87.621,13.256c28.988,4.471,58.189,8.895,87.625,13.256c115.908,17.857,235.279,35.1,358.633,49.961 c128.633,15.494,248.983,31.932,363.516,47.576C7706.41,3358.354,8212.715,3427.371,9000,2938.099v-7.844 c-599.234,373.144-1035.316,422.468-1544.066,379.003c496.418,31.697,934.979-40.505,1544.066-440.389v-7.953 c-645.098,424.325-1098.469,480.637-1631.689,435.086c519.907,33.205,976.352-47.593,1631.689-499.386v-8.051 c-692.377,478.183-1162.275,541.771-1719.313,494.18c542.778,34.665,1016.345-54.821,1719.313-561.103v-8.242 c-741.028,534.564-1226.72,605.657-1806.938,556.09c565.035,36.087,1055.075-62.453,1806.938-625.533v-8.289 c-791.023,593.344-1291.783,672.063-1894.561,620.566c586.685,37.469,1092.531-70.21,1894.561-692.357v-8.366 c-842.313,654.362-1357.443,740.844-1982.182,687.469c607.761,38.815,1128.778-78.127,1982.182-761.425v-8.461 c-894.816,717.475-1423.689,811.83-2069.806,756.63c620.494,39.627,1150.502-82.988,2036.188-805.012 c11.238-9.163,22.436-18.156,33.617-27.108v-8.519c-12.557,10.034-25.156,20.194-37.785,30.487 c-925.236,754.271-1461.614,853.11-2119.645,796.896c620.496,39.627,1150.502-82.988,2036.189-805.011 c40.771-33.238,81.193-65.104,121.24-95.651v-8.261c-41.422,31.531-83.219,64.379-125.41,98.771 c-925.234,754.272-1461.612,853.112-2119.641,796.896c620.492,39.627,1150.5-82.987,2036.188-805.011 c70.723-57.65,140.359-111.127,208.863-160.813v-8.156c-69.852,50.552-140.879,105.009-213.035,163.828 c-925.234,754.272-1461.612,853.112-2119.643,796.896c620.494,39.627,1150.504-82.986,2036.189-805.009 c101.105-82.424,200.004-156.325,296.486-222.711v-8.104c-97.805,67.144-198.119,142.082-300.656,225.674 c-925.234,754.271-1461.612,853.11-2119.643,796.894c620.496,39.627,1150.502-82.986,2036.189-805.009 c131.951-107.573,260.172-200.709,384.107-281.392v-7.885c-125.25,81.343-254.871,175.379-388.277,284.136 c-925.234,754.271-1461.611,853.11-2119.643,796.894c620.492,39.627,1150.502-82.986,2036.189-805.009 c163.305-133.129,320.932-244.267,471.73-336.879v-7.724c-152.102,93.176-311.129,205.131-475.902,339.463 c-925.236,754.27-1461.613,853.108-2119.643,796.894c620.494,39.626,1150.504-82.988,2036.188-805.01 c195.229-159.156,382.329-286.824,559.354-389.023v-7.619c-178.307,102.681-366.816,231.139-563.525,391.503 c-925.236,754.271-1461.612,853.109-2119.641,796.895c620.492,39.626,1150.5-82.988,2036.188-805.01 c227.75-185.665,444.443-328.519,646.979-438.003v-7.523c-203.797,109.877-421.918,253.513-651.148,440.386 c-925.234,754.271-1461.611,853.109-2119.643,796.895c620.494,39.627,1150.502-82.988,2036.189-805.01 c260.93-212.715,507.383-369.292,734.6-483.793v-7.338c-228.473,114.817-476.334,272.048-738.771,485.992 c-925.234,754.271-1461.612,853.109-2119.643,796.894c620.494,39.629,1150.504-82.988,2036.189-805.01 c294.86-240.375,571.211-409.041,822.225-526.31v-7.284c-252.25,117.526-530.034,286.854-826.395,528.453 c-925.236,754.272-1461.612,853.112-2119.644,796.895c620.495,39.629,1150.502-82.986,2036.188-805.011 c329.58-268.679,636.055-447.816,909.85-565.664v-7.151c-275.016,118.046-582.926,297.761-914.02,567.677 c-925.233,754.271-1461.611,853.112-2119.642,796.895c620.492,39.629,1150.502-82.986,2036.188-805.01 c365.202-297.722,702.047-485.5,997.471-601.751v-7.041c-296.639,116.399-634.917,304.688-1001.641,603.651 c-925.234,754.271-1461.611,853.112-2119.642,796.895c620.492,39.629,1150.502-82.986,2036.187-805.01 c401.844-327.588,769.328-522.06,1085.096-634.598v-6.96c-316.961,112.639-685.902,307.589-1089.264,636.418 c-925.236,754.272-1461.613,853.112-2119.644,796.894c620.495,39.629,1150.502-82.985,2036.188-805.009 c439.598-358.368,838.092-557.456,1172.717-664.211v-6.888c-335.82,106.836-735.802,306.375-1176.886,665.959 c-925.242,754.266-1461.599,853.119-2119.642,796.895c620.492,39.629,1150.5-82.985,2036.189-805.01 c478.649-390.197,908.557-591.561,1260.35-690.501v-6.799c-352.977,98.979-784.369,300.743-1264.509,692.156 c-925.235,754.267-1461.608,853.119-2119.642,796.894c620.492,39.629,1150.502-82.984,2036.188-805.009 c519.164-423.225,980.979-624.311,1347.963-713.475v-6.729c-368.164,89.186-831.496,290.637-1352.134,715.063 c-925.233,754.272-1461.612,853.112-2119.642,796.896c620.487,39.627,1150.502-82.979,2036.188-805.011 C8125.79,1754.983,8620.141,1557.051,9000,1479.55V1472.847z"></path><path fill="#D76907" d="M2602.803,2802.725c1.321,22.248,3.753,43.674,7.258,64.308"></path><path fill="#D76907" d="M6631.604,3177.529c4.375,7.924,8.998,16.391,13.82,25.324"></path><path fill="#D76907" d="M6645.424,3202.854c4.296,7.957,8.625,16.045,12.977,24.293"></path><path fill="#D76907" d="M6658.4,3227.146c4.234,8.028,8.564,16.33,12.98,24.95"></path><path fill="#D76907" d="M6671.382,3252.098c4.372,8.525,8.408,16.51,12.142,23.993"></path><path fill="#D76907" d="M6683.521,3276.091c3.596,7.206,7.686,15.5,12.112,24.567"></path><path fill="#D76907" d="M6695.635,3300.658c3.84,7.854,7.67,15.785,11.484,23.761"></path><path fill="#D76907" d="M6707.119,3324.419c3.846,8.043,7.695,16.158,11.494,24.278"></path><path fill="#D76907" d="M6718.613,3348.697c3.674,7.832,7.326,15.707,10.932,23.551"></path><path fill="#D76907" d="M6729.545,3372.248h0.008c3.678,8.003,7.337,16.031,10.943,24.047"></path><path fill="#D76907" d="M6740.496,3396.295c3.535,7.852,7.021,15.646,10.445,23.384"></path><path fill="#D76907" d="M6750.941,3419.679c3.104,7.007,6.569,14.909,10.44,23.829"></path><path fill="#D76907" d="M6761.383,3443.508c3.607,8.322,7.021,16.21,10.001,23.211"></path><line fill="#D76907" x1="6771.384" y1="3466.719" x2="6777.406" y2="3480.871"></line><path fill="#D76907" d="M6856.814,3681.61c-3.232-8.698-6.479-17.339-9.715-25.919l8.506,22.693 c12.067,32.407,24.135,65.652,36.184,99.763C6880.066,3744.954,6868.412,3712.777,6856.814,3681.61z"></path><line fill="#D76907" x1="6777.406" y1="3480.871" x2="6773.988" y2="3472.781"></line><path fill="#D76907" d="M6773.988,3472.781c-3.361-7.93-6.674-15.674-9.902-23.146"></path><line fill="#D76907" x1="6764.086" y1="3449.637" x2="6764.072" y2="3449.637"></line><path fill="#D76907" d="M6764.072,3449.637c-3.506-8.123-6.967-16.051-10.348-23.742"></path><path fill="#D76907" d="M6753.727,3425.895c-3.707-8.435-7.164-16.218-10.348-23.315"></path><path fill="#D76907" d="M6743.379,3402.578c-3.65-8.162-7.277-16.146-10.852-23.96"></path><path fill="#D76907" d="M6732.527,3378.618c-3.063-6.683-6.729-14.6-10.865-23.491"></path><path fill="#D76907" d="M6721.662,3355.127c-3.818-8.2-7.631-16.283-11.396-24.199"></path><path fill="#D76907" d="M6710.266,3330.928c-4.004-8.416-7.821-16.357-11.396-23.703"></path><path fill="#D76907" d="M6698.87,3307.225c-4.004-8.248-8.017-16.423-12.007-24.473"></path><path fill="#D76907" d="M6686.863,3282.752c-3.826-7.711-7.818-15.646-12.008-23.889"></path><path fill="#D76907" d="M6674.855,3258.863c-4.715-9.264-8.965-17.512-12.777-24.824"></path><path fill="#D76907" d="M6662.078,3234.039c-4.242-8.127-8.507-16.191-12.792-24.186"></path><path fill="#D76907" d="M6649.286,3209.854c-8.825-16.477-17.776-32.715-26.841-48.714"></path><path fill="#D76907" d="M5772.672,2704.064v0.008l-7.218,2.07l5.658-1.606h0.026l7.438-2.071v-0.007l2.465-0.69l0.04-0.015 l6.806-1.832h0.025l6.802-1.78c4.716-1.214,9.292-2.383,13.647-3.452c4.563-1.123,9.117-2.212,13.621-3.24h0.024l9.896-2.212 l0.021-0.015l9.867-2.097h0.016l5.07-1.063l0.029-0.012c3.438-0.685,7.291-1.429,11.555-2.211c4.21-0.771,8.027-1.455,11.516-2.054 c3.254-0.558,6.961-1.162,10.938-1.78c4.059-0.63,7.664-1.168,10.904-1.634c2.936-0.418,6.136-0.856,9.664-1.31 c3.592-0.464,6.787-0.862,9.662-1.194h0.024l1.408-0.152c3.076-0.347,6.37-0.697,9.835-1.043h0.027l9.774-0.903l0.028-0.013 l7.457-0.617h0.054l7.45-0.519h0.068l3.564-0.181c2.835-0.159,5.752-0.318,8.786-0.445c2.842-0.124,5.799-0.238,8.772-0.322h0.013 l8.233-0.201h0.029c2.723-0.045,5.498-0.08,8.268-0.085h0.039l2.252,0.025l5.293,0.048h0.025l5.299,0.091l2.363,0.034h0.068 l5.823,0.187h0.033l5.824,0.253l2.478,0.112h0.027l6.546,0.352h0.04l6.544,0.427h0.063l2.228,0.186l0.024,0.014h0.021v-0.007 c3.035,0.226,6.03,0.445,9.657,0.79l1.382,0.127h0.013l2.791,0.271h0.064l3.626,0.426h0.015l2.604,0.312l4.098,0.485l1.328,0.152 h0.025l3.707,0.438l0.033,0.014l3.412,0.445l0.08,0.012l4.032,0.633v-0.014l2.158,0.332l0.013,0.013l3.633,0.563l1.023,0.159 l2.889,0.445v-0.007l0.398,0.061l0.025,0.015l1.314,0.203h0.039c46.848,7.931,93.148,22.362,139.005,44.451 c45.824,22.065,91.237,51.813,136.362,90.391c11.609,9.923,23.219,20.441,34.801,31.565c11.494,11.037,23.063,22.771,34.68,35.191 h0.016c8.586,9.185,17.219,18.775,25.867,28.734c8.685,10.002,17.313,20.303,25.84,30.877c7.033,8.72,14.145,17.798,21.297,27.199 c7.026,9.227,14.141,18.836,21.293,28.752c6.201,8.594,12.387,17.354,18.516,26.252c6.089,8.839,12.26,17.996,18.501,27.452 l0.007-0.005c5.713,8.652,11.266,17.228,16.637,25.694c5.365,8.459,10.857,17.267,16.449,26.425 c5.088,8.328,10.135,16.684,15.103,25.051c4.551,7.67,9.071,15.395,13.526,23.157c-3.059-5.354-6.096-10.594-9.104-15.728 c-4.729-8.087-9.677-16.397-14.816-24.891c-5.426-8.979-10.83-17.772-16.17-26.319c-5.545-8.865-10.953-17.364-16.166-25.368 c-6.057-9.316-12.061-18.342-17.977-27.063c-5.943-8.752-11.988-17.461-18.124-26.102c-6.946-9.789-13.854-19.244-20.694-28.369 c-6.834-9.119-13.752-18.099-20.713-26.91c-8.254-10.461-16.463-20.541-24.6-30.189c-8.175-9.716-16.389-19.127-24.611-28.198 c-10.633-11.735-21.391-23.011-32.229-33.83c-10.754-10.731-21.531-20.939-32.305-30.643c-19.23-17.32-38.512-33.027-57.805-47.152 c-19.266-14.099-38.639-26.688-58.104-37.834c-23.104-13.223-46.27-24.373-69.485-33.61c-23.283-9.259-46.674-16.63-70.163-22.269 c-3.407-0.815-7.186-1.673-11.251-2.55c-3.758-0.804-7.524-1.573-11.271-2.291l-0.338-0.067h-0.016l-1.73-0.33h-0.014l-0.949-0.188 v-0.005l-3.143-0.6l-0.832-0.159v0.007l-5.054-0.896l-0.312-0.047l-0.08-0.015l-5.313-0.816h-0.013l-1.985-0.298l-0.12-0.021 l-0.15-0.032l-2.291-0.364h-0.016c-2.085-0.332-4.204-0.672-6.375-0.965l-0.105-0.012l-0.078-0.014 c-2.166-0.279-4.631-0.564-7.095-0.844l-3.194-0.357h-0.014l-1.329-0.152c-3.545-0.413-7.024-0.811-10.062-1.097v0.007l-4.842-0.394 l-2.344-0.192l-5.552-0.438v-0.008l-5.767-0.365l-5.783-0.313l-2.111-0.099l-7.318-0.308l-7.299-0.205l-5.386-0.086l-5.386-0.039 l-4.615-0.034l-3.201,0.067h-0.015l-6.614,0.104l-6.619,0.167c-2.771,0.094-5.633,0.213-8.595,0.352l-8.647,0.472 c-2.83,0.166-5.806,0.372-8.944,0.604h-0.015c-2.795,0.199-5.846,0.46-8.978,0.726v-0.012l-9.237,0.868v0.007l-9.293,0.989v0.007 l-7.252,0.864v-0.007l-7.205,0.923v0.007l-4.638,0.639v0.007l-9.74,1.435c-3.454,0.523-6.724,1.05-9.717,1.547l-9.804,1.693v-0.008 l-9.748,1.803v0.004l-9.598,1.894v-0.007l-9.568,2.001l-4.158,0.888v-0.005l-6.621,1.474v0.008l-6.653,1.535v0.004l-4.091,0.971 h-0.016l-3.127,0.738l-4.961,1.176v-0.008c-5.465,1.354-11.11,2.815-16.881,4.354 C5783.93,2700.924,5778.244,2702.491,5772.672,2704.064z"></path><polygon fill="#D76907" points="5703.798,2725.662 5702.277,2726.193 5703.809,2725.669 5712.464,2722.773 5715.645,2721.717  5715.645,2721.712 5718.76,2720.662 5719.656,2720.362 5717.955,2720.92 5717.955,2720.913 5710.902,2723.251 5710.902,2723.258  5703.798,2725.669 "></polygon><polygon fill="#D76907" points="5692.762,2729.506 5692.762,2729.514 5692.201,2729.713 5693.729,2729.176 "></polygon><path fill="#D76907" d="M5600.273,2764.977v0.009l-0.97,0.397l7.453-3.049c4.813-1.965,10.571-4.282,16.935-6.82l3.062-1.216 l0.015-0.011l10.273-4.047h0.014l10.252-3.972l0.016-0.014l10.167-3.871h0.026l10.136-3.786l0.013-0.014l5.691-2.093h0.014 l10.778-3.917l-2.498,0.891l-7.584,2.748v0.008l-7.638,2.815v-0.007c-3.972,1.476-8.283,3.088-13.793,5.193h-0.014 c-4.796,1.82-9.438,3.612-13.84,5.32v0.004l-10.727,4.219v-0.006l-10.838,4.322v0.008l-8.477,3.426v-0.005L5600.273,2764.977z"></path><polygon fill="#D76907" points="5584.973,2771.333 5577.748,2774.389 5587.313,2770.37 5584.973,2771.34 "></polygon><path fill="#D76907" d="M5548.154,2787.072v0.007l-5.883,2.584h0.006l13.022-5.665h0.015c6.967-3.015,13.807-5.95,20.487-8.78 v-0.007l-6.163,2.604v0.006l-5.007,2.139v-0.008L5548.154,2787.072z"></path><polygon fill="#D76907" points="5344,2881.518 5344,2881.521 5336.948,2884.883 5336.96,2884.883 5349.539,2878.9  5349.539,2878.893 5356.746,2875.458 5356.76,2875.458 5382.143,2863.398 5393.91,2857.821 5408.605,2850.875 5408.618,2850.875  5435.568,2838.209 5438.496,2836.834 5438.512,2836.82 5463.768,2825.087 5463.781,2825.087 5483.523,2816.016 5492.801,2811.777  5492.814,2811.764 5508.135,2804.831 5508.148,2804.831 5523.41,2797.997 5523.425,2797.997 5529.195,2795.434 5529.195,2795.42  5540.924,2790.254 5531.587,2794.352 5531.587,2794.357 5523.258,2798.051 5523.258,2798.044 5511.623,2803.25 5511.623,2803.257  5499.928,2808.53 5499.928,2808.523 5477.76,2818.625 5469.902,2822.238 5469.902,2822.243 5455.387,2828.957 5455.387,2828.965  5440.788,2835.759 5440.781,2835.744 5432.859,2839.451 5412.796,2848.874 5412.796,2848.881 5388.329,2860.45 5385.382,2861.852  5358.917,2874.423 "></polygon><polygon fill="#D76907" points="5209.113,2945.205 5199.803,2949.52 5214.645,2942.653 5214.645,2942.66 5237.236,2932.107  5260.049,2921.39 5260.813,2921.031 5260.813,2921.023 5283.574,2910.266 5305.236,2899.979 5307.4,2898.95 5331.688,2887.393  5331.688,2887.386 5332.717,2886.896 5332.711,2886.896 5307.4,2898.936 5299.672,2902.607 5282.264,2910.87 5257.646,2922.505  5255.223,2923.648 5255.209,2923.648 5233.327,2933.922 5233.327,2933.936 5209.125,2945.205 "></polygon><polygon fill="#D76907" points="5173.563,2961.574 5164.365,2965.758 5170.754,2962.862 5170.754,2962.869 5192.404,2952.947  5192.404,2952.939 5197.299,2950.678 5197.291,2950.678 5185.438,2956.129 5173.578,2961.563 "></polygon><path fill="#D76907" d="M5091.006,2998.366l-11.342,4.894l7.498-3.226l0.007,0.012c6.196-2.676,12.978-5.638,20.329-8.858v-0.007 l10.299-4.536l10.275-4.555v0.005l21.15-9.477l0.702-0.319h-0.013l-11.78,5.288l-11.703,5.22l-0.013,0.012l-11.694,5.177h-0.015 l-11.819,5.19l-11.868,5.168L5091.006,2998.366z"></path><polygon fill="#D76907" points="5055.702,3013.456 5055.702,3013.461 5067.086,3008.653 5067.086,3008.646 5077.135,3004.355  5077.135,3004.35 5079.324,3003.408 5079.313,3003.408 5067.586,3008.428 5067.57,3008.428 "></polygon><polygon fill="#D76907" points="5052.859,3014.658 5044.958,3017.979 5047.912,3016.743 5047.912,3016.75 "></polygon><polygon fill="#D76907" points="4996.471,3037.775 4995.016,3038.354 4995.016,3038.357 "></polygon><polygon fill="#D76907" points="5011.611,3031.689 5011.094,3031.904 5011.611,3031.697 "></polygon><polygon fill="#D76907" points="4981.031,3043.885 4970.87,3047.85 4978.479,3044.881 "></polygon><polygon fill="#D76907" points="4955.41,3053.785 4955.396,3053.8 4968.996,3048.573 4968.977,3048.573 "></polygon><path fill="#D76907" d="M4926.713,3064.539l-0.008,0.005c9.557-3.519,19.08-7.085,28.557-10.69l-13.494,5.095h-0.012 L4926.713,3064.539z"></path><polygon fill="#D76907" points="4845.725,3092.764 4843.518,3093.487 4849.184,3091.627 "></polygon><line fill="#D76907" x1="4816.424" y1="3102.153" x2="4816.409" y2="3102.153"></line><line fill="#D76907" x1="4816.409" y1="3102.153" x2="4812.166" y2="3103.469"></line><line fill="#D76907" x1="4812.166" y1="3103.469" x2="4812.166" y2="3103.475"></line><path fill="#D76907" d="M4196.322,3258.871c-14.816,2.863-29.654,5.665-44.496,8.4 C4166.676,3264.536,4181.506,3261.734,4196.322,3258.871z"></path><path fill="#D76907" d="M2869.903,3216.992c-2.79-1.494-5.56-3.001-8.311-4.528 C2864.344,3213.991,2867.12,3215.498,2869.903,3216.992z"></path><path fill="#D76907" d="M2774.829,3153.881c-2.551-2.099-5.088-4.217-7.59-6.354 C2769.74,3149.664,2772.277,3151.782,2774.829,3153.881z"></path><path fill="#D76907" d="M2641.336,2976.346c-0.991-2.365-1.961-4.742-2.917-7.134 C2639.375,2971.604,2640.345,2973.979,2641.336,2976.346z"></path><path fill="#D76907" d="M2704.792,3083.287c-24.879-31.08-45.672-65.443-61.91-103.303c16.238,37.848,36.998,72.183,61.823,103.216 c16.311,20.376,34.388,39.341,54.1,56.954C2739.126,3122.569,2721.082,3103.627,2704.792,3083.287z"></path><path fill="#D76907" d="M2610.063,2867.031c-3.506-20.688-5.944-42.18-7.267-64.491"></path><path fill="#D76907" d="M2612.62,2881.031c-0.872-4.443-1.694-8.926-2.464-13.442 C2610.926,2872.105,2611.748,2876.595,2612.62,2881.031z"></path><path fill="#D76907" d="M2617.12,2901.752c-1.506-6.316-2.899-12.719-4.196-19.199 C2614.22,2889.033,2615.614,2895.429,2617.12,2901.752z"></path><path fill="#D76907" d="M2625.051,2931.04c-0.856-2.823-1.687-5.665-2.497-8.521 C2623.364,2925.375,2624.193,2928.209,2625.051,2931.04z"></path><path fill="#D76907" d="M2602.119,2736.095c0.166-4.562,0.373-9.157,0.623-13.786 C2602.492,2726.938,2602.285,2731.533,2602.119,2736.095z"></path><path fill="#D76907" d="M2601.98,2784.482c-0.234-7.221-0.348-14.524-0.348-21.902 C2601.634,2769.965,2601.754,2777.27,2601.98,2784.482z"></path><path fill="#D76907" d="M2602.796,2802.54c-0.253-4.337-0.471-8.699-0.644-13.097"></path><path fill="#D76907" d="M2622.141,2126.732c-32.254-112.721-108.886-172.977-254.845-194.405 c146.091,21.477,222.79,82.496,255.091,196.883c28.618,101.356,22.045,244.618-2.03,439.622 C2644.616,2372.408,2651.197,2228.256,2622.141,2126.732z"></path><path fill="#D76907" d="M2224.446,1923.216c-215.175-0.206-530.894,45.877-984.694,117.535 C1693.554,1969.101,2009.271,1923.017,2224.446,1923.216z"></path><path fill="#D76907" d="M2264.345,1923.827c-12.851-0.395-26.092-0.597-39.746-0.611 C2238.252,1923.23,2251.494,1923.434,2264.345,1923.827z"></path><path fill="#D76907" d="M571.196,2146.271c-124.255,19.246-242.454,28.371-354.722,28.304 C328.743,2174.643,446.941,2165.518,571.196,2146.271z"></path><line fill="#D76907" x1="5558.469" y1="2813.591" x2="5557.738" y2="2813.736"></line><polygon fill="#D76907" points="7070.154,2298.074 7070.216,2298.074 7074.99,2295.809 "></polygon><polygon fill="#D76907" points="7033.848,2315.193 7034.221,2315.188 7053.865,2305.844 7053.586,2305.865 "></polygon><polygon fill="#D76907" points="7017.178,2315.732 7017.246,2315.732 7022.053,2313.448 "></polygon><polygon fill="#D76907" points="6996.943,2332.729 6997.361,2332.729 7018.854,2322.506 7018.383,2322.534 "></polygon><polygon fill="#D76907" points="6980.926,2332.826 6981.305,2332.819 7000.874,2323.509 7000.596,2323.537 "></polygon><polygon fill="#D76907" points="6964.264,2333.365 6964.324,2333.357 6969.117,2331.088 "></polygon><polygon fill="#D76907" points="6945.502,2357.278 6945.355,2357.278 6930.66,2364.253 "></polygon><polygon fill="#D76907" points="6959.329,2350.632 6959.575,2350.646 6982.745,2339.674 6982.34,2339.682 6979.404,2341.075 "></polygon><polygon fill="#D76907" points="6944.014,2350.359 6944.434,2350.367 6965.932,2340.139 6965.465,2340.166 "></polygon><polygon fill="#D76907" points="6927.988,2350.465 6928.368,2350.459 6947.959,2341.141 6947.68,2341.162 "></polygon><polygon fill="#D76907" points="6911.326,2351.004 6911.393,2350.997 6916.182,2348.725 "></polygon><polygon fill="#D76907" points="6892.564,2374.918 6892.42,2374.918 6877.723,2381.893 "></polygon><polygon fill="#D76907" points="6906.393,2368.271 6906.631,2368.283 6929.823,2357.307 6929.418,2357.313 6926.469,2358.715 "></polygon><polygon fill="#D76907" points="6891.077,2367.999 6891.496,2368.004 6913.014,2357.771 6912.542,2357.791 "></polygon><polygon fill="#D76907" points="6875.053,2368.104 6875.432,2368.098 6895.037,2358.766 6894.762,2358.794 "></polygon><polygon fill="#D76907" points="6858.391,2368.641 6858.455,2368.637 6863.244,2366.364 "></polygon><polygon fill="#D76907" points="6839.617,2392.563 6839.462,2392.563 6824.787,2399.529 "></polygon><polygon fill="#D76907" points="6853.441,2385.915 6853.682,2385.93 6876.887,2374.945 6876.48,2374.95 6873.531,2376.352 "></polygon><polygon fill="#D76907" points="6838.129,2385.643 6838.546,2385.65 6860.076,2375.41 6859.605,2375.428 "></polygon><polygon fill="#D76907" points="6822.104,2385.751 6822.48,2385.744 6842.1,2376.405 6841.826,2376.434 "></polygon><polygon fill="#D76907" points="6805.439,2386.287 6805.5,2386.28 6810.307,2384.003 "></polygon><polygon fill="#D76907" points="6786.658,2410.215 6786.506,2410.21 6771.85,2417.168 "></polygon><polygon fill="#D76907" points="6800.486,2403.568 6800.725,2403.582 6823.936,2392.59 6823.531,2392.597 6820.596,2393.99 "></polygon><polygon fill="#D76907" points="6785.172,2403.297 6785.59,2403.297 6807.125,2393.056 6806.654,2393.082 "></polygon><polygon fill="#D76907" points="6769.152,2403.395 6769.525,2403.388 6789.15,2394.059 6788.871,2394.077 "></polygon><polygon fill="#D76907" points="6752.49,2403.934 6752.549,2403.934 6757.371,2401.643 "></polygon><polygon fill="#D76907" points="6733.715,2427.854 6733.563,2427.854 6718.913,2434.809 "></polygon><polygon fill="#D76907" points="6747.551,2421.207 6747.789,2421.219 6770.975,2410.243 6770.561,2410.25 6767.658,2411.63 "></polygon><polygon fill="#D76907" points="6732.229,2420.934 6732.646,2420.939 6754.156,2410.707 6753.691,2410.732 "></polygon><polygon fill="#D76907" points="6716.198,2421.041 6716.575,2421.034 6736.193,2411.702 6735.916,2411.725 "></polygon><polygon fill="#D76907" points="6699.441,2421.584 6699.594,2421.578 6709.741,2416.764 "></polygon><polygon fill="#D76907" points="6680.768,2445.5 6680.611,2445.5 6665.979,2452.447 "></polygon><polygon fill="#D76907" points="6694.6,2438.852 6694.838,2438.865 6718.037,2427.882 6717.625,2427.887 6714.723,2429.27 "></polygon><polygon fill="#D76907" points="6679.287,2438.58 6679.703,2438.58 6701.221,2428.346 6700.749,2428.372 "></polygon><polygon fill="#D76907" points="6663.176,2438.686 6663.639,2438.673 6683.244,2429.35 6682.863,2429.382 "></polygon><polygon fill="#D76907" points="6646.379,2439.23 6646.564,2439.217 6659.402,2433.135 "></polygon><polygon fill="#D76907" points="6628.189,2462.973 6628.037,2462.967 6613.041,2470.086 "></polygon><polygon fill="#D76907" points="6641.457,2456.584 6641.703,2456.6 6665.086,2445.525 6664.674,2445.533 6661.785,2446.908 "></polygon><polygon fill="#D76907" points="6626.162,2456.266 6626.673,2456.266 6648.266,2445.992 6647.707,2446.025 "></polygon><polygon fill="#D76907" points="6609.999,2456.385 6610.496,2456.371 6630.193,2447 6629.782,2447.035 "></polygon><polygon fill="#D76907" points="6593.342,2456.917 6593.396,2456.917 6596.922,2455.242 "></polygon><polygon fill="#D76907" points="6575.206,2480.631 6574.967,2480.631 6554.424,2490.38 "></polygon><polygon fill="#D76907" points="6588.389,2474.249 6588.719,2474.256 6612.477,2463.006 6611.977,2463.02 6608.809,2464.525 "></polygon><polygon fill="#D76907" points="6573.061,2473.931 6573.6,2473.938 6595.488,2463.518 6594.916,2463.545 "></polygon><polygon fill="#D76907" points="6557.113,2474.004 6557.479,2473.996 6577.377,2464.525 6577.118,2464.553 "></polygon><polygon fill="#D76907" points="6522.204,2498.256 6521.938,2498.256 6498.652,2509.309 "></polygon><polygon fill="#D76907" points="6535.385,2491.867 6535.746,2491.875 6559.434,2480.657 6558.908,2480.664 6555.814,2482.14 "></polygon><polygon fill="#D76907" points="6520.104,2491.582 6520.523,2491.582 6542.438,2481.156 6541.973,2481.182 "></polygon><polygon fill="#D76907" points="6504.199,2491.668 6504.484,2491.661 6524.387,2482.198 6524.217,2482.205 "></polygon><polygon fill="#D76907" points="5900.971,2695.686 5899.936,2696.182 5900.682,2696.021 5901.702,2695.537 "></polygon><polygon fill="#D76907" points="6469.141,2515.896 6469.008,2515.896 6456.004,2522.064 "></polygon><polygon fill="#D76907" points="6482.396,2509.527 6482.629,2509.539 6506.338,2498.316 6505.945,2498.324 6502.87,2499.783 "></polygon><polygon fill="#D76907" points="6467.268,2509.209 6467.62,2509.209 6489.51,2498.795 6489.145,2498.811 "></polygon><polygon fill="#D76907" points="6451.328,2509.321 6451.596,2509.321 6471.52,2499.838 6471.359,2499.852 "></polygon><polygon fill="#D76907" points="6434.646,2509.847 6434.738,2509.84 6442.646,2506.093 "></polygon><polygon fill="#D76907" points="5847.93,2713.369 5847.039,2713.795 5847.797,2713.636 5848.674,2713.225 "></polygon><polygon fill="#D76907" points="5874.415,2700.805 5872.35,2701.788 5872.967,2701.662 5875.006,2700.691 "></polygon><polygon fill="#D76907" points="6416.178,2533.554 6416.104,2533.554 6408.771,2537.035 "></polygon><polygon fill="#D76907" points="6429.52,2527.179 6429.691,2527.179 6453.441,2515.941 6453.102,2515.949 6449.98,2517.438 "></polygon><polygon fill="#D76907" points="6414.412,2526.86 6414.723,2526.86 6436.619,2516.446 6436.279,2516.46 "></polygon><polygon fill="#D76907" points="6398.352,2526.961 6398.785,2526.947 6418.688,2517.47 6418.383,2517.488 "></polygon><polygon fill="#D76907" points="6381.65,2527.504 6381.736,2527.497 6388.18,2524.441 "></polygon><polygon fill="#D76907" points="5795.111,2730.949 5794.123,2731.428 5794.873,2731.271 5795.85,2730.809 "></polygon><polygon fill="#D76907" points="5821.385,2718.49 5819.479,2719.393 5820.09,2719.266 5821.957,2718.378 "></polygon><polygon fill="#D76907" points="5848.627,2705.64 5845.559,2707.08 5845.825,2707.025 5848.813,2705.607 "></polygon><polygon fill="#D76907" points="6363.275,2551.221 6363.221,2551.221 6358.373,2553.518 "></polygon><polygon fill="#D76907" points="6376.676,2544.818 6376.828,2544.825 6400.584,2533.582 6400.277,2533.589 6397.092,2535.104 "></polygon><polygon fill="#D76907" points="6361.4,2544.514 6361.859,2544.514 6383.775,2534.093 6383.271,2534.111 "></polygon><polygon fill="#D76907" points="6345.396,2544.598 6345.802,2544.586 6365.725,2535.109 6365.426,2535.128 "></polygon><polygon fill="#D76907" points="6328.674,2545.158 6328.746,2545.15 6333.727,2542.791 "></polygon><polygon fill="#D76907" points="5742.197,2748.594 5741.119,2749.104 5741.844,2748.952 5742.881,2748.462 "></polygon><polygon fill="#D76907" points="5768.629,2736.055 5766.596,2737.018 5767.146,2736.905 5769.158,2735.956 "></polygon><polygon fill="#D76907" points="5795.67,2723.305 5792.741,2724.68 5792.934,2724.641 5795.811,2723.279 "></polygon><polygon fill="#D76907" points="6310.411,2568.865 6310.219,2568.865 6291.346,2577.816 "></polygon><polygon fill="#D76907" points="6323.707,2562.457 6323.992,2562.464 6347.695,2551.24 6347.256,2551.246 6344.127,2552.734 "></polygon><polygon fill="#D76907" points="6308.432,2562.157 6308.863,2562.157 6330.747,2551.75 6330.262,2551.778 "></polygon><polygon fill="#D76907" points="6292.467,2562.23 6292.852,2562.225 6312.729,2552.768 6312.457,2552.788 "></polygon><polygon fill="#D76907" points="6275.736,2562.795 6275.797,2562.795 6279.743,2560.923 "></polygon><polygon fill="#D76907" points="5689.135,2766.306 5688.377,2766.664 5689.072,2766.52 5689.805,2766.174 "></polygon><polygon fill="#D76907" points="5715.736,2753.688 5713.611,2754.696 5714.145,2754.591 5716.223,2753.596 "></polygon><polygon fill="#D76907" points="5742.939,2740.871 5739.912,2742.291 5740.059,2742.266 5743.02,2740.852 "></polygon><polygon fill="#D76907" points="6257.428,2586.504 6257.268,2586.504 6241.229,2594.116 "></polygon><polygon fill="#D76907" points="6270.75,2580.097 6271.023,2580.102 6294.678,2568.896 6294.26,2568.904 6291.172,2570.374 "></polygon><polygon fill="#D76907" points="6255.494,2579.797 6255.914,2579.797 6277.764,2569.404 6277.305,2569.423 "></polygon><polygon fill="#D76907" points="6239.518,2579.883 6239.902,2579.869 6259.752,2570.42 6259.502,2570.439 "></polygon><polygon fill="#D76907" points="6222.836,2580.434 6222.861,2580.434 6225.291,2579.286 "></polygon><polygon fill="#D76907" points="5636.482,2783.825 5635.42,2784.328 5636.092,2784.197 5637.127,2783.705 "></polygon><polygon fill="#D76907" points="5662.709,2771.398 5660.909,2772.249 5661.406,2772.145 5663.166,2771.309 "></polygon><polygon fill="#D76907" points="5690.07,2758.496 5686.9,2759.984 5687.041,2759.956 5690.15,2758.482 "></polygon><polygon fill="#D76907" points="6204.451,2604.157 6204.291,2604.157 6189.682,2611.097 "></polygon><polygon fill="#D76907" points="6217.754,2597.754 6218.007,2597.77 6241.729,2586.537 6241.33,2586.537 6238.221,2588.018 "></polygon><polygon fill="#D76907" points="6202.532,2597.45 6202.938,2597.455 6224.826,2587.048 6224.367,2587.068 "></polygon><polygon fill="#D76907" points="6186.533,2597.549 6186.898,2597.541 6206.789,2588.071 6206.551,2588.09 "></polygon><polygon fill="#D76907" points="6169.885,2598.087 6169.932,2598.087 6173.902,2596.201 "></polygon><polyline fill="#D76907" points="5557.738,2813.736 5557.697,2813.75 5558.463,2813.591 "></polyline><polygon fill="#D76907" points="5583.387,2801.537 5582.529,2801.941 5583.301,2801.783 5584.13,2801.393 "></polygon><polygon fill="#D76907" points="5609.95,2788.939 5607.848,2789.936 5608.443,2789.814 5610.51,2788.832 "></polygon><polygon fill="#D76907" points="5636.914,2776.229 5634.111,2777.541 5634.344,2777.497 5637.08,2776.201 "></polygon><polygon fill="#D76907" points="6151.521,2621.794 6151.383,2621.794 6137.734,2628.27 "></polygon><polygon fill="#D76907" points="6164.816,2615.4 6165.063,2615.405 6188.785,2604.176 6188.387,2604.189 6185.279,2605.664 "></polygon><polygon fill="#D76907" points="6149.621,2615.087 6150.034,2615.087 6171.876,2604.693 6171.445,2604.708 "></polygon><polygon fill="#D76907" points="6133.609,2615.188 6133.977,2615.181 6153.854,2605.729 6153.592,2605.743 "></polygon><polygon fill="#D76907" points="6116.934,2615.738 6116.975,2615.738 6120.156,2614.23 "></polygon><polygon fill="#D76907" points="5530.418,2819.145 5529.296,2819.68 5530.189,2819.495 5531.279,2818.977 "></polygon><polygon fill="#D76907" points="5556.695,2806.677 5554.805,2807.574 5555.533,2807.434 5557.395,2806.551 "></polygon><polygon fill="#D76907" points="5584.018,2793.801 5580.916,2795.261 5581.281,2795.188 5584.324,2793.74 "></polygon><polygon fill="#D76907" points="6111.928,2633.025 6112.166,2633.037 6135.782,2621.855 6135.398,2621.855 6132.361,2623.303 "></polygon><polygon fill="#D76907" points="6096.738,2632.707 6097.158,2632.707 6118.954,2622.333 6118.502,2622.359 "></polygon><polygon fill="#D76907" points="6080.714,2632.819 6081.08,2632.813 6100.924,2623.361 6100.684,2623.383 "></polygon><polygon fill="#D76907" points="6064.051,2633.363 6064.092,2633.355 6067.552,2631.717 "></polygon><polygon fill="#D76907" points="5451.705,2849.047 5451.654,2849.073 5452.324,2848.936 5452.35,2848.921 "></polygon><polygon fill="#D76907" points="5477.381,2836.842 5476.551,2837.239 5477.234,2837.094 5478.039,2836.715 "></polygon><polygon fill="#D76907" points="5503.998,2824.229 5501.801,2825.266 5502.299,2825.167 5504.45,2824.143 "></polygon><polygon fill="#D76907" points="5531.063,2811.479 5528.152,2812.846 5528.253,2812.827 5531.096,2811.473 "></polygon><polygon fill="#D76907" points="5995.051,2658.654 5994.818,2658.673 5982.432,2664.52 5982.75,2664.512 "></polygon><polygon fill="#D76907" points="6043.723,2650.384 6044.143,2650.391 6066.078,2639.951 6065.633,2639.973 "></polygon><polygon fill="#D76907" points="6027.712,2650.499 6028.063,2650.492 6048.086,2640.968 6047.848,2640.986 "></polygon><polygon fill="#D76907" points="6011.029,2651.049 6011.068,2651.049 6013.512,2649.887 "></polygon><polygon fill="#D76907" points="5424.631,2854.408 5423.502,2854.951 5424.166,2854.813 5425.281,2854.281 "></polygon><polygon fill="#D76907" points="5450.949,2841.936 5449.091,2842.811 5449.615,2842.713 5451.427,2841.848 "></polygon><polygon fill="#D76907" points="5478.297,2829.044 5475.098,2830.546 5475.277,2830.514 5478.412,2829.025 "></polygon><polygon fill="#D76907" points="5029.006,3024.6 5029.066,3024.573 5029.393,3024.439 5029.404,3024.439 5038.662,3020.605  5038.662,3020.602 5043.789,3018.463 5043.781,3018.463 5031.596,3023.516 5031.582,3023.516 5019.352,3028.537 5019.344,3028.551  5018.587,3028.862 5020.299,3028.164 5020.307,3028.172 5028.947,3024.631 5028.947,3024.625 "></polygon><path fill="#D76907" d="M4620.523,3159.532v0.007l-0.554,0.146c-130.576,35.782-268.259,68.684-407.823,96.104 c204.141-40.106,404.21-91.914,583.967-147.341c-25.795,7.949-52.146,15.872-78.956,23.716 c-31.394,9.185-63.63,18.323-96.608,27.362L4620.523,3159.532z"></path><path fill="#D76907" d="M2412.787,1916.979c-159.36-21.729-399.855,1.701-752.533,53.117 c324.153-46.037,548.852-66.054,700.911-45.319c153.55,20.933,233.769,82.761,267.354,200.137 c33.338,116.486,20.32,287.687-12.485,528.287c-7.272,53.342-9.347,102.944-6.623,148.955 c2.797,47.251,10.667,90.765,23.145,130.717c17.288,55.341,43.492,103.914,77.403,146.257 c35.484,44.316,79.434,81.865,130.479,113.298c48.918,30.118,104.398,54.677,165.237,74.209 c63.956,20.54,133.826,35.555,208.22,45.689c187.248,25.527,403.189,20.304,626.15-4.948c51.488-5.83,103.355-12.737,155.316-20.567 c-259.229,35.821-513.545,47.207-729.893,17.708c-151.013-20.59-283.604-61.106-386.563-127.078 c-103.209-66.146-176.666-157.86-209.094-280.714c-19.897-75.377-24.32-162.448-10.686-262.479 C2723.996,2158.523,2711.061,1957.651,2412.787,1916.979z"></path><polygon fill="#D76907" points="7123.205,2280.407 7127.927,2278.17 7123.146,2280.414 "></polygon><polygon fill="#D76907" points="7087.189,2297.536 7106.861,2288.179 7106.581,2288.197 7086.813,2297.543 "></polygon><polygon fill="#D76907" points="7050.285,2315.096 7071.836,2304.848 7071.37,2304.867 7049.868,2315.096 "></polygon><polygon fill="#D76907" points="7012.498,2333.014 7035.668,2322.042 7035.256,2322.049 7032.342,2323.436 7012.251,2333 "></polygon><polygon fill="#D76907" points="6983.596,2346.613 6998.424,2339.646 6998.279,2339.646 "></polygon><polygon fill="#D76907" points="6092.305,2642.355 6092.463,2642.314 6098.639,2639.415 6098.498,2639.415 "></polygon><polygon fill="#D76907" points="6062.916,2648.813 6063.461,2648.691 6082.934,2639.467 6082.527,2639.475 6079.426,2640.947 "></polygon><polygon fill="#D76907" points="6005.869,2660.865 6006.58,2660.719 6013.066,2657.631 6012.621,2657.656 "></polygon><polygon fill="#D76907" points="5901.795,2687.953 5901.564,2687.993 5898.561,2689.408 5898.84,2689.348 "></polygon><polygon fill="#D76907" points="5927.988,2683.038 5927.393,2683.153 5925.404,2684.096 5926.029,2683.969 "></polygon><path fill="#D76907" d="M35.199,0c239.818,662.234,860.889,1781.148,2282.394,1560.924c171.573-26.58,330.376-51.835,476.534-75.063 c674.73-107.263,1080.113-171.707,1313.502-139.885c304.078,41.462,317.525,244.347,252.023,724.706 c-10.153,74.492-10.215,141.709-1.263,202.156c20.828,140.624,90.513,244.73,195.21,319.146 c104.964,74.598,245.184,119.485,406.71,141.507c227.53,31.021,497.327,16.702,770.644-23.761c7.065-2.26,13.693-4.318,19.85-6.172 c6.496-1.959,13.203-3.916,20.049-5.863h0.016c5.791-1.642,11.5-3.219,17.086-4.707c5.513-1.477,11.164-2.928,16.922-4.364 c14.371-4.981,28.658-9.688,42.881-14.101c17.561-6.216,35-12.039,52.332-17.433c17.779-6.303,35.432-12.199,52.983-17.658 c17.772-6.303,35.417-12.206,52.958-17.657c17.902-6.35,35.682-12.301,53.354-17.784c17.613-6.244,35.104-12.087,52.49-17.501 c17.746-6.288,35.373-12.178,52.888-17.633c17.881-6.343,35.642-12.285,53.294-17.771c17.73-6.284,35.355-12.188,52.861-17.626 c17.631-6.251,35.151-12.114,52.565-17.533c17.883-6.343,35.642-12.279,53.296-17.771c4.706-1.668,9.4-3.31,14.092-4.923 c12.857-4.416,25.646-8.602,38.385-12.559c4.854-1.719,9.701-3.42,14.537-5.081c12.836-4.409,25.604-8.58,38.313-12.537 c4.888-1.733,9.756-3.435,14.625-5.106c12.797-4.397,25.527-8.547,38.207-12.5c4.912-1.746,9.82-3.467,14.715-5.146 c12.864-4.417,25.653-8.603,38.398-12.563c4.855-1.729,9.705-3.422,14.545-5.082c12.904-4.429,25.734-8.627,38.518-12.599 c4.822-1.705,9.619-3.393,14.42-5.039c12.97-4.456,25.867-8.669,38.709-12.666c4.765-1.692,9.506-3.348,14.246-4.974 c13.051-4.484,26.033-8.721,38.959-12.737c4.681-1.662,9.342-3.295,14.006-4.896c12.582-4.324,25.104-8.407,37.574-12.301 c5.107-1.82,10.207-3.604,15.301-5.353c12.65-4.343,25.237-8.46,37.769-12.366c5.056-1.792,10.097-3.551,15.129-5.285 c12.856-4.416,25.647-8.601,38.385-12.558c4.856-1.722,9.703-3.421,14.537-5.081c13.343-4.583,26.627-8.92,39.836-13.019 c4.401-1.553,8.792-3.095,13.181-4.602c13.119-4.502,26.168-8.768,39.151-12.8c4.615-1.64,9.229-3.254,13.832-4.832 c12.903-4.432,25.74-8.627,38.519-12.601c4.813-1.706,9.617-3.394,14.418-5.04c12.904-4.43,25.74-8.626,38.52-12.597 c4.814-1.716,9.617-3.396,14.418-5.042c12.904-4.432,25.74-8.619,38.518-12.598c4.814-1.709,9.625-3.396,14.42-5.041 c12.902-4.43,25.74-8.627,38.519-12.599c4.813-1.708,9.621-3.396,14.418-5.042c12.903-4.429,25.74-8.634,38.519-12.598 c4.821-1.706,9.617-3.393,14.418-5.039c12.904-4.431,25.74-8.629,38.52-12.602c4.82-1.705,9.617-3.393,14.418-5.039 c12.904-4.43,25.74-8.621,38.518-12.598c4.814-1.708,9.623-3.395,14.42-5.041c12.903-4.431,25.74-8.62,38.519-12.598 c4.819-1.708,9.615-3.395,14.418-5.042c443.562-152.359,813.902-47.464,1211.333,1109.513 c107.965,314.297,192.932,561.228,265.236,750.041h-7.023c-72.334-188.92-157.094-435.23-264.492-747.891 c-361.271-1051.674-699.1-1230.309-1089.955-1138.354c371.418-63.479,697.087,145.971,1043.295,1153.848 c104.629,304.597,187.656,545.935,258.496,732.402h-7.01c-70.855-186.529-153.676-427.23-257.77-730.251 c-361.264-1051.675-699.092-1230.313-1089.948-1138.36c371.417-63.47,697.079,145.965,1043.294,1153.85 c101.363,295.083,182.459,530.791,251.832,714.763h-7.02c-69.379-183.991-150.256-419.062-251.094-712.612 c-361.264-1051.682-699.094-1230.3-1089.949-1138.358c371.411-63.47,697.08,145.97,1043.295,1153.846 c98.156,285.735,177.291,515.798,245.197,697.126h-7.021c-67.891-181.311-146.814-410.707-244.459-694.973 c-361.264-1051.682-699.098-1230.307-1089.949-1138.362c371.414-63.468,697.08,145.974,1043.297,1153.849 c95,276.552,172.188,500.945,238.613,679.486h-7.012c-66.406-178.473-143.383-402.219-237.886-677.334 c-361.265-1051.674-699.092-1230.313-1089.948-1138.361c371.418-63.471,697.088,145.974,1043.296,1153.849 c91.897,267.519,167.128,486.235,232.073,661.849h-7.02c-64.912-175.52-139.916-393.561-231.338-659.697 C8035.488,2308.266,7703.531,2116.975,7321.9,2197.078l-5.071,2.157c364.472-54.29,685.528,163.87,1026.525,1156.56 c88.845,258.632,162.106,471.651,225.563,644.209h-7.012c-63.402-172.416-136.454-384.781-224.836-642.059 c-347.643-1012.025-673.583-1215.609-1045.957-1147.591l-9.18,4.037c357.049-44.401,673.127,182.765,1008.482,1159.043 c85.842,249.885,157.142,457.192,219.1,626.567h-7.023c-61.898-169.201-132.968-375.834-218.359-624.418 c-341-992.683-661.104-1207.535-1024.646-1151.198l-12.537,5.657c349.715-34.545,660.805,201.146,990.531,1161.029 c82.888,241.284,152.206,442.862,212.661,608.93h-7.019c-60.382-165.867-129.481-366.77-211.927-606.778 c-334.593-974.025-649.069-1199.193-1004.198-1154.087l-15.271,7.039c342.527-24.839,648.67,218.903,972.816,1162.533 c67.309,195.941,125.703,365.721,177.524,511.182c9.814,27.556,19.406,54.252,28.782,80.111h-7.052 c-9.126-25.176-18.45-51.137-27.986-77.906c-52.048-146.093-110.356-315.621-177.552-511.232 c-328.402-956.023-637.439-1190.626-984.561-1156.325l-17.619,8.24c335.57-15.367,636.847,235.867,955.526,1163.571 c69.472,202.247,129.456,376.677,182.704,525.752c5.81,16.271,11.541,32.234,17.2,47.9h-7.061 c-5.397-14.957-10.857-30.17-16.395-45.672c-53.23-149.019-113.232-323.508-182.731-525.828 c-322.467-938.758-626.277-1181.914-965.808-1157.938l-19.724,9.322c328.908-6.321,625.48,251.759,938.875,1164.103 c72.029,209.701,133.866,389.462,188.149,540.938l5.412,15.075h-7.03l-4.611-12.844c-54.889-153.145-116.477-332.217-188.203-541.02 c-316.834-922.352-615.658-1173.193-948.04-1158.928l-21.509,10.227c322.545,2.319,614.576,266.646,922.896,1164.189 c71.578,208.384,133.088,387.269,187.2,538.375h-7.027c-54.405-152.002-115.476-329.58-186.457-536.226 c-311.481-906.751-605.549-1164.487-931.211-1159.387l-2.962,1.407l-20.098,9.57c316.512,10.506,604.166,280.527,907.617,1163.896 c68.811,200.314,128.313,373.322,180.924,520.736h-7.021c-52.776-147.91-111.89-319.776-180.188-518.586 c-306.412-892-595.959-1155.907-915.313-1159.4l-24.544,11.645c310.844,18.209,594.372,293.306,893.204,1163.244 c66.032,192.24,123.49,359.345,174.628,503.099h-7.033c-51.108-143.715-108.255-309.901-173.879-500.945 c-301.599-877.989-586.862-1147.493-900.296-1159.075l-26.16,12.307c305.613,25.303,585.275,304.846,879.805,1162.255 c63.351,184.424,118.803,345.705,168.371,485.46h-7.033c-49.488-139.577-104.655-299.998-167.621-483.307 c-297.104-864.914-578.362-1139.365-886.306-1158.424c-9.165,4.274-18.362,8.554-27.601,12.816 c300.731,31.891,576.763,315.439,867.252,1161.093c60.692,176.699,114.146,332.148,162.129,467.82h-7.033 c-47.869-135.394-101.045-290.024-161.377-465.67c-293.017-852.99-570.621-1131.627-873.608-1157.426 c-9.582,4.401-19.206,8.793-28.868,13.162c296.299,37.854,569.018,324.837,855.82,1159.752 c58.063,169.021,109.5,318.629,155.889,450.182h-7.04c-46.222-131.096-97.399-279.963-155.129-448.03 c-289.235-842.015-563.474-1124.374-861.927-1156.324c-10.061,4.523-20.17,9.031-30.316,13.502 c292.35,43.112,562.092,333.007,845.588,1158.312c55.492,161.538,104.932,305.312,149.69,432.542h-7.04 c-44.582-126.745-93.766-269.79-148.932-430.393c-285.881-832.244-557.099-1117.732-851.539-1155.09 c-10.494,4.584-21.039,9.146-31.633,13.661c288.862,47.765,555.957,340.152,836.516,1156.918 c52.951,154.134,100.382,292.104,143.49,414.902h-7.033c-42.949-122.369-90.119-259.575-142.738-412.752 c-282.951-823.719-551.545-1111.815-842.5-1153.862c-10.963,4.629-21.975,9.219-33.047,13.762 c285.948,51.635,550.802,346.028,828.894,1155.588c50.42,146.782,95.847,278.899,137.3,397.266h-7.032 c-41.274-117.866-86.442-249.248-136.549-395.113C7315.45,2788.29,7049.04,2498.113,6760.98,2452.195 c-11.516,4.67-23.099,9.278-34.732,13.828c27.409,5.292,54.631,12.817,81.7,22.853c253.073,93.798,491.938,405.407,741.354,1131.5 c47.931,139.522,91.328,265.798,131.115,379.627h-7.024c-39.597-113.298-82.75-238.849-130.372-377.474 c-248.665-723.896-486.145-1034.314-737.357-1127.424c-30.203-11.191-60.613-19.221-91.281-24.467 c-12.182,4.702-24.434,9.336-36.74,13.879c31.083,6.276,61.928,15.461,92.592,27.92c247.434,100.54,481.713,414.04,726.133,1125.577 c45.465,132.353,86.867,252.795,124.967,361.987h-7.033c-37.895-108.635-79.049-228.354-124.215-359.837 c-243.697-709.438-476.668-1021.749-722.35-1121.578c-33.816-13.747-67.898-23.431-102.287-29.601 c-12.765,4.643-25.603,9.198-38.504,13.647c35.396,7.301,70.481,18.385,105.334,33.805 c241.922,107.007,471.674,422.037,711.149,1119.216c43.037,125.271,82.424,239.863,118.817,344.348h-7.025 c-36.193-103.926-75.337-217.788-118.072-342.197c-238.789-695.165-467.295-1009.03-707.539-1115.297 c-38.086-16.848-76.484-28.457-115.297-35.555c-12.232,4.145-24.524,8.188-36.879,12.133l-3.457,1.195 c40.424,8.333,80.446,21.617,120.183,40.629c236.499,113.218,461.739,429.449,696.335,1112.383 c40.625,118.264,78,227,112.682,326.709h-7.033c-34.469-99.125-71.598-207.156-111.93-324.559 c-233.939-681.033-458.004-996.114-692.909-1108.568c-42.882-20.521-86.149-34.282-129.938-42.278 c-12.221,4.138-24.506,8.185-36.867,12.129l-3.453,1.194c45.398,9.369,90.301,24.956,134.828,47.909 c231.158,119.14,451.931,436.255,681.686,1105.101c38.24,111.327,73.604,214.211,106.552,309.072h-7.028 c-32.738-94.278-67.857-196.444-105.806-306.919c-229.125-667.021-448.787-982.999-678.442-1101.371 c-47.623-24.544-95.713-40.563-144.433-49.47c-12.213,4.145-24.492,8.182-36.839,12.12l-3.414,1.183 c50.327,10.387,100.029,28.452,149.309,55.682c225.885,124.825,442.225,442.504,667.166,1097.344 c35.883,104.458,69.234,201.49,100.428,291.433h-7.033c-30.986-89.349-64.078-185.657-99.676-289.278 c-224.337-653.076-439.607-969.64-664.074-1093.681c-52.316-28.908-105.182-47.353-158.795-57.161 c-12.213,4.139-24.499,8.176-36.844,12.12l-3.467,1.201c55.278,11.396,109.811,32.043,163.842,63.94 c220.664,130.277,432.545,448.209,652.685,1089.063c33.55,97.664,64.876,188.829,94.304,273.794h-7.026 c-29.214-84.355-60.294-174.809-93.56-271.643c-219.563-639.175-430.446-956.016-649.775-1085.504 c-57.006-33.664-114.63-54.615-173.159-65.315c-12.194,4.13-24.459,8.162-36.778,12.101l-3.467,1.202 c60.242,12.419,119.586,35.821,178.379,72.806c215.438,135.541,422.849,453.41,638.147,1080.199 c31.24,90.944,60.554,176.242,88.201,256.154h-7.021c-27.436-79.296-56.502-163.877-87.463-254.004 c-214.754-625.193-421.213-941.994-635.397-1076.743c-61.708-38.825-124.095-62.479-187.552-74.068 c-12.191,4.123-24.445,8.155-36.764,12.095l-3.494,1.209c65.313,13.474,129.582,39.847,193.211,82.435 c210.146,140.66,412.977,458.146,623.344,1070.563c28.955,84.28,56.248,163.716,82.102,238.516h-7.024 c-25.633-74.174-52.685-152.893-81.36-236.364c-209.846-610.909-411.789-927.358-620.737-1067.215 c-66.491-44.509-133.741-71.094-202.229-83.591c-12.188,4.124-24.44,8.152-36.744,12.087l-3.494,1.209 c70.683,14.563,140.141,44.269,208.892,93.267c204.56,145.799,402.522,462.549,607.662,1059.731 c26.69,77.692,51.967,151.256,76.006,220.876h-7.019c-23.815-68.98-48.86-141.836-75.271-218.726 c-204.646-595.757-401.772-911.481-605.219-1056.489c-71.558-50.996-143.946-80.828-217.771-94.312 c-12.179,4.125-24.428,8.142-36.725,12.08l-3.42,1.183c76.91,15.866,152.34,49.668,226.992,106.702 c198.133,151.394,390.426,466.818,589.486,1046.322c24.438,71.153,47.719,138.866,69.926,203.238h-7.026 c-21.989-63.734-45.007-130.724-69.183-201.086c-198.596-578.156-390.125-892.607-587.229-1043.216 c-77.407-59.145-155.727-92.976-235.721-107.6c-12.623,4.278-25.313,8.448-38.074,12.514l-2.27,0.782 c86.42,17.813,170.986,58.21,254.652,128.812c188.447,159.05,372.137,471.514,561.985,1024.193 c22.22,64.689,43.46,126.521,63.833,185.6h-7.02c-20.141-58.428-41.143-119.541-63.098-183.446 c-189.43-551.459-372.436-863.001-559.979-1021.285c-86.349-72.872-173.697-113.211-263.143-129.515 c-11.139,3.771-22.327,7.464-33.57,11.076c3.268,0.711,6.813,1.527,10.625,2.438c23.849,5.727,47.543,13.189,71.08,22.548 c23.598,9.39,47.054,20.673,70.336,33.996c19.6,11.216,39.183,23.953,58.729,38.259c19.511,14.284,38.964,30.133,58.321,47.564 c10.865,9.781,21.725,20.069,32.541,30.867c10.731,10.711,21.563,22.074,32.455,34.095c8.256,9.104,16.518,18.576,24.771,28.384 c8.313,9.87,16.569,19.999,24.731,30.338c6.879,8.706,13.826,17.727,20.808,27.043c6.991,9.329,13.935,18.827,20.801,28.503 c5.962,8.401,12.047,17.173,18.201,26.232c6.092,8.974,12.115,18.03,18.06,27.168c5.592,8.589,10.996,17.073,16.242,25.462 c5.446,8.708,10.858,17.525,16.225,26.398c4.742,7.837,9.704,16.178,14.846,24.971c5.021,8.589,9.979,17.193,14.849,25.787 c9.03,15.927,18.188,32.527,27.467,49.862c4.246,7.929,8.528,16.024,12.817,24.239c4.709,9.031,9.021,17.367,12.832,24.864 c3.806,7.485,7.849,15.54,12.033,23.97c4.011,8.094,8.035,16.29,12.033,24.523c4.039,8.295,7.828,16.179,11.422,23.729 c3.826,8.036,7.646,16.138,11.424,24.253c3.088,6.643,6.681,14.411,10.865,23.543c3.651,7.989,7.297,16.012,10.877,24.015 c3.715,8.296,7.179,16.086,10.373,23.345c3.514,7.988,6.98,15.932,10.375,23.793l-0.014,0.008c3.381,7.812,6.686,15.54,9.93,23.191 c3.658,8.626,6.953,16.449,9.934,23.588c2.941,7.047,6.163,14.83,9.538,23.046c3.612,8.806,6.866,16.757,9.563,23.423 c17.846,44.099,35.821,90.427,53.899,139.025c18.108,48.672,36.174,99.212,54.19,151.663 c20.156,58.682,39.502,114.991,58.123,169.036h-14.039c-18.172-52.744-37.03-107.618-56.649-164.732 c-18.562-54.047-36.983-105.547-55.239-154.572c-18.289-49.09-36.605-96.184-54.949-141.33c-3.666-9.024-6.867-16.843-9.582-23.429 c-2.765-6.688-5.933-14.298-9.597-23.024c-3.595-8.567-6.92-16.424-9.99-23.604c-3.659-8.579-6.933-16.177-9.974-23.182 c-3.076-7.095-6.588-15.076-10.438-23.774c-3.528-7.963-7.008-15.746-10.422-23.33c-3.666-8.155-7.317-16.166-10.918-23.996v-0.015 c-3.666-7.98-7.312-15.817-10.912-23.508c-3.838-8.202-7.676-16.292-11.47-24.228c-3.832-8.018-7.648-15.928-11.455-23.709 c-3.639-7.45-7.643-15.556-12.112-24.512c-4.336-8.701-8.396-16.736-12.087-23.94c-4.218-8.235-8.563-16.55-12.958-24.886 c-4.29-8.123-8.604-16.203-12.949-24.239c-4.377-8.108-8.983-16.55-13.808-25.271c-4.53-8.188-9.125-16.377-13.78-24.514 c-5.08-8.879-10.103-17.479-15.05-25.82c-5.07-8.539-10.093-16.867-15.048-24.97c-5.339-8.746-10.83-17.538-16.397-26.319 c-5.676-8.945-11.207-17.499-16.555-25.601v-0.015c-6.063-9.19-12.221-18.315-18.432-27.328 c-6.176-8.959-12.326-17.685-18.434-26.146c-6.982-9.676-14.055-19.219-21.186-28.59c-6.994-9.191-14.08-18.229-21.207-27.068 c-8.615-10.672-17.187-20.92-25.683-30.701c-8.519-9.815-17.106-19.348-25.707-28.55l0.007-0.007 c-11.396-12.188-22.887-23.829-34.445-34.936c-11.478-11.021-22.994-21.456-34.508-31.298 c-44.674-38.193-89.617-67.633-134.941-89.464c-45.006-21.684-90.432-35.88-136.389-43.738c-6.801,2.298-13.847,4.63-21.078,6.961 v0.007l-10.899,3.507c-5.386,1.865-10.758,3.705-16.138,5.524c-12.006,4.065-24.082,8.051-36.209,11.921 c-17.299,5.997-34.691,11.809-52.176,17.395c-17.455,6.056-35.021,11.92-52.705,17.565c-17.42,6.042-34.961,11.896-52.604,17.531 c-17.502,6.069-35.14,11.955-52.912,17.632c-17.537,6.085-35.198,11.968-52.99,17.653c-17.545,6.082-35.224,11.985-53.026,17.672 c-17.48,6.063-35.095,11.938-52.824,17.604c-17.527,6.076-35.186,11.975-52.978,17.652c-17.521,6.07-35.158,11.953-52.937,17.633 c-17.566,6.088-35.258,12-53.082,17.69c-17.426,6.037-34.979,11.896-52.664,17.546c-17.526,6.076-35.199,11.967-52.99,17.652 c-17.514,6.07-35.146,11.961-52.916,17.64c-17.545,6.075-35.219,11.979-53.03,17.665c-17.433,6.042-34.992,11.906-52.685,17.561 c-17.537,6.074-35.209,11.967-53.016,17.656c-17.585,6.098-35.297,12.016-53.148,17.713c-18.209,6.31-36.559,12.432-55.056,18.316 c-17.3,5.977-34.714,11.768-52.267,17.358l-6.867,2.371c-26.449,10.347-53.207,20.369-80.256,29.959 c-27.076,9.597-54.479,18.794-82.191,27.445c-267.23,83.514-581.609,159.603-888.355,201.042 c-255.025,34.461-504.813,44.973-717.895,15.917c-75.264-10.26-145.979-25.462-210.729-46.272 c-61.741-19.845-118.127-44.816-167.934-75.484c-52.367-32.248-97.479-70.814-133.939-116.359 c-34.899-43.598-61.86-93.586-79.652-150.526c-12.778-40.89-20.828-85.386-23.695-133.691c-2.775-46.88-0.677-97.385,6.719-151.664 c32.375-237.433,45.354-406.225,13.104-520.444c-31.996-113.316-108.98-172.981-256.601-193.104 c-231.947-31.624-636.736,32.723-1310.406,139.81l-0.041,0.014l-0.225,0.033v-0.008l-2.396,0.38 c-144.75,23.013-301.96,48.002-474.139,74.679C364.876,2184.93,174.729,2188.369,0,2169.328v-6.652 c66.478,7.29,135.212,11.294,206.287,11.695c-71.075-0.401-139.809-4.405-206.287-11.695v-6.762 c174.064,19.158,363.541,15.84,570.188-16.178l22.215-3.446c-215.559,30.573-412.527,30.255-592.401,5.431v-6.646 c188.529,26.166,395.671,25.607,623.629-9.709c171.573-26.578,330.375-51.834,476.534-75.063 c674.73-107.262,1080.111-171.707,1313.5-139.882c304.078,41.459,317.525,244.347,252.023,724.704 c-13.514,99.146-9.15,185.366,10.526,259.914c31.971,121.107,104.438,211.554,206.28,276.823 c102.107,65.426,233.779,105.632,383.851,126.094c311.321,42.457,701.642,0.019,1071.904-78.127 c-354.509,71.04-722.926,107.533-1019.851,67.05c-148.529-20.249-279.268-59.796-381.5-123.892 c-102.498-64.26-176.361-153.188-210.869-272.047c-22.652-78.054-28.325-169.01-13.966-274.332 c64.868-475.723,51.935-676.596-246.341-717.268c-232.452-31.696-637.477,32.694-1311.588,139.855 c-145.673,23.158-303.939,48.32-476.563,75.063C427.84,2152.952,202.74,2150.447,0,2116.439v-6.787 c202.396,34.115,427.156,36.711,676.566-1.927c171.572-26.577,330.375-51.836,476.533-75.063 c674.731-107.26,1080.111-171.707,1313.5-139.882c304.078,41.459,317.525,244.347,252.024,724.706 c-14.229,104.379-8.634,194.418,13.767,271.607c34.022,117.188,106.891,204.886,208.015,268.288 c101.391,63.567,231.225,102.804,378.87,122.933c311.477,42.473,702.021-0.024,1072.436-78.237 c-354.676,71.106-723.307,107.665-1020.375,67.162c-148.37-20.229-278.967-59.698-381.146-123.665 c-102.441-64.133-176.336-152.858-210.982-271.455c-22.852-78.231-28.618-169.455-14.205-275.147 c64.869-475.726,51.932-676.598-246.34-717.268c-232.452-31.699-637.477,32.693-1311.588,139.854 c-145.674,23.159-303.939,48.32-476.563,75.064c-271.767,42.104-514.155,35.133-730.51-7.85v-6.819 c215.996,43.112,458.051,50.187,729.5,8.135c171.576-26.577,330.378-51.833,476.534-75.064 c674.732-107.26,1080.112-171.707,1313.502-139.882c304.077,41.461,317.524,244.347,252.023,724.706 c-14.284,104.736-8.594,195.056,14.005,272.425c34.156,116.91,107.057,204.42,208.126,267.698 c101.33,63.436,231.046,102.604,378.52,122.706c310.784,42.377,700.266,0.152,1069.944-77.728 c-353.899,70.779-721.506,107.063-1017.873,66.649c-148.674-20.274-279.504-59.856-381.764-124.042 c-102.521-64.338-176.369-153.39-210.775-272.46c-22.521-77.925-28.134-168.703-13.807-273.767 c64.869-475.723,51.932-676.598-246.34-717.267c-232.452-31.699-637.477,32.694-1311.588,139.856 c-145.673,23.155-303.939,48.317-476.563,75.063C489.279,2124.563,229.523,2112.643,0,2059.73v-6.889 c229.165,53.077,488.574,65.131,782.438,19.604c171.575-26.577,330.377-51.833,476.533-75.064 c674.734-107.26,1080.113-171.704,1313.502-139.881c304.078,41.461,317.525,244.347,252.024,724.706 c-14.198,104.113-8.659,193.98,13.606,271.043c33.924,117.377,106.777,205.212,207.949,268.701 c101.417,63.654,231.344,102.938,379.109,123.085c311.115,42.425,701.108,0.067,1071.146-77.972 c-354.279,70.94-722.382,107.359-1019.096,66.895c-149.073-20.321-280.201-60.066-382.594-124.559 c-102.653-64.658-176.43-154.181-210.504-273.889c-22.056-77.488-27.448-167.619-13.243-271.82 c64.871-475.724,51.934-676.599-246.338-717.268c-232.459-31.699-637.47,32.694-1311.588,139.855 c-145.673,23.156-303.939,48.32-476.563,75.063c-316.968,49.104-594.14,31.698-836.383-32.118v-6.972 c241.87,64.013,518.69,81.62,835.373,32.554c171.573-26.577,330.378-51.833,476.534-75.064 c674.734-107.261,1080.113-171.704,1313.502-139.882c304.078,41.462,317.524,244.348,252.023,724.706 c-14.078,103.256-8.753,192.487,13.057,269.124c33.592,118.021,106.373,206.302,207.662,270.103 c101.549,63.962,231.782,103.41,379.938,123.604c311.09,42.423,701.063,0.073,1071.079-77.952 c-354.249,70.927-722.321,107.332-1019.007,66.873c-149.532-20.388-281.013-60.307-383.537-125.149 c-102.785-65.004-176.496-155.044-210.192-275.508c-21.531-77.002-26.697-166.405-12.625-269.609 c64.871-475.723,51.934-676.598-246.338-717.269c-232.452-31.697-637.477,32.694-1311.589,139.856 c-145.673,23.157-303.938,48.321-476.562,75.065C549.028,2096.422,254.554,2072.549,0,1996.8v-6.979 c254.163,75.987,548.313,100.026,888.31,47.352c171.573-26.58,330.376-51.836,476.534-75.064 c674.733-107.263,1080.113-171.707,1313.502-139.884c304.078,41.461,317.525,244.349,252.024,724.705 c-13.947,102.293-8.854,190.827,12.438,266.968c33.212,118.737,105.935,207.528,207.352,271.669 c101.688,64.313,232.271,103.933,380.88,124.195c311.987,42.543,703.295-0.166,1074.264-78.618 c-355.248,71.354-724.647,108.116-1022.217,67.542c-150.015-20.455-281.863-60.567-384.515-125.771 c-102.923-65.374-176.54-155.953-209.832-277.191c-20.999-76.479-25.928-165.139-11.995-267.307 c64.871-475.724,51.934-676.596-246.338-717.268c-232.452-31.696-637.477,32.694-1311.588,139.855 c-145.673,23.159-303.939,48.321-476.563,75.064c-364.199,56.423-675.8,24.97-942.256-63.795v-7.084 c266.051,89.044,577.313,120.729,941.246,64.346c171.573-26.577,330.376-51.835,476.534-75.063 c674.731-107.263,1080.113-171.707,1313.502-139.882c304.077,41.459,317.524,244.347,252.024,724.705 c-13.808,101.276-8.959,189.064,11.808,264.688c32.807,119.486,105.442,208.81,207.019,273.329 c101.827,64.677,232.758,104.482,381.832,124.813c310.463,42.338,699.48,0.239,1068.82-77.481 c-353.54,70.623-720.661,106.782-1016.716,66.42c-150.513-20.528-282.746-60.842-385.571-126.448 c-103.083-65.769-176.641-156.931-209.494-278.974c-20.435-75.908-25.107-163.765-11.322-264.86 c64.871-475.726,51.934-676.598-246.338-717.27c-232.452-31.696-637.477,32.694-1311.592,139.855 c-145.671,23.158-303.937,48.32-476.56,75.064C606.587,2068.629,277.859,2028.803,0,1926.004v-7.189 c277.432,103.137,605.817,143.248,994.183,83.078c171.573-26.576,330.375-51.832,476.534-75.063 c674.731-107.26,1080.113-171.707,1313.502-139.881c304.078,41.461,317.525,244.346,252.024,724.705 c-13.661,100.188-9.054,187.18,11.164,262.271c32.39,120.316,104.942,210.217,206.653,275.108 c101.959,65.056,233.287,105.063,382.886,125.464c312.153,42.563,703.729-0.213,1074.866-78.75 c-355.432,71.431-725.093,108.256-1022.854,67.65c-151.023-20.586-283.623-61.104-386.578-127.089 c-103.217-66.147-176.677-157.887-209.09-280.748c-19.883-75.356-24.307-162.422-10.674-262.424 c64.871-475.723,51.934-676.597-246.338-717.267c-232.452-31.699-637.477,32.693-1311.592,139.854 c-145.671,23.159-303.937,48.321-476.56,75.064C634.587,2054.855,288.743,2005.771,0,1887.886v-7.305 c288.305,118.278,633.783,167.707,1047.119,103.673c171.573-26.577,330.375-51.833,476.534-75.064 c674.73-107.26,1080.112-171.707,1313.502-139.882c304.077,41.462,317.524,244.348,252.023,724.706 c-13.516,99.118-9.15,185.332,10.513,259.86c31.959,121.113,104.433,211.587,206.272,276.854 c102.108,65.441,233.795,105.646,383.87,126.109c311.403,42.462,701.848,0,1072.204-78.188 c-354.597,71.074-723.14,107.605-1020.137,67.107c-151.53-20.652-284.531-61.376-387.63-127.763 c-103.377-66.551-176.727-158.882-208.696-282.586c-19.326-74.79-23.503-161.019-10.022-259.912 c64.871-475.723,51.935-676.598-246.338-717.267c-232.455-31.699-637.476,32.693-1311.591,139.854 c-145.673,23.157-303.937,48.321-476.56,75.065C662,2041.176,299.104,1981.831,0,1847.8v-7.444 c298.637,134.487,661.164,194.259,1100.056,126.26c171.573-26.578,330.375-51.833,476.534-75.065 c674.731-107.26,1080.113-171.704,1313.502-139.881c304.077,41.461,317.525,244.346,252.024,724.706 c-13.369,98.036-9.245,183.421,9.86,257.378c31.515,121.949,103.882,212.999,205.883,278.666 c102.26,65.841,234.333,106.253,384.919,126.781c310.752,42.377,700.2,0.178,1069.847-77.683 c-353.859,70.761-721.4,107.027-1017.754,66.615c-152.063-20.732-285.449-61.66-388.725-128.465 c-103.527-66.97-176.8-159.912-208.3-284.479c-18.755-74.176-22.686-159.566-9.356-257.33 c64.871-475.725,51.934-676.6-246.338-717.269c-232.455-31.699-637.477,32.694-1311.591,139.856 c-145.673,23.155-303.938,48.32-476.561,75.063C688.678,2027.602,308.939,1956.601,0,1805.282v-7.458 c308.44,151.815,687.842,223.214,1152.992,151.152c171.572-26.58,330.375-51.835,476.533-75.063 c674.731-107.262,1080.113-171.707,1313.502-139.884c304.077,41.461,317.525,244.349,252.024,724.705 c-13.209,96.896-9.332,181.455,9.224,254.848c31.055,122.807,103.336,214.469,205.47,280.533 c102.407,66.239,234.87,106.851,386.002,127.457c311.747,42.51,702.704-0.113,1073.42-78.451 c-354.987,71.238-724.063,107.904-1021.419,67.354c-152.568-20.807-286.339-61.949-389.74-129.148 c-103.669-67.368-176.833-160.908-207.861-286.332c-18.203-73.577-21.896-158.125-8.721-254.774 c64.871-475.723,51.935-676.596-246.338-717.268c-232.455-31.699-637.476,32.693-1311.591,139.855 c-145.673,23.157-303.937,48.321-476.56,75.064C714.639,2014.146,318.202,1930.176,0,1760.442v-7.619 c317.677,170.299,713.761,254.761,1205.929,178.515c171.573-26.58,330.375-51.835,476.534-75.063 c674.73-107.263,1080.113-171.707,1313.502-139.882c304.077,41.459,317.525,244.347,252.023,724.703 c-13.063,95.8-9.426,179.525,8.586,252.316c30.588,123.658,102.758,215.896,205.032,282.361 c102.539,66.638,235.388,107.459,387.019,128.14c310.677,42.363,700.048,0.188,1069.634-77.646 c-353.808,70.728-721.274,106.974-1017.555,66.576c-153.091-20.873-287.274-62.229-390.824-129.848 c-103.82-67.785-176.88-161.943-207.435-288.251c-17.653-72.973-21.107-156.671-8.084-252.165 c64.871-475.723,51.935-676.596-246.338-717.268c-232.455-31.695-637.476,32.694-1311.591,139.856 c-145.673,23.159-303.937,48.321-476.56,75.063C739.867,2000.797,326.857,1902.563,0,1713.302v-7.769 c326.299,189.89,738.951,288.715,1258.865,208.166c171.572-26.577,330.375-51.835,476.533-75.064 c674.731-107.26,1080.113-171.707,1313.502-139.882c304.077,41.459,317.525,244.347,252.024,724.706 c-12.912,94.67-9.51,177.557,7.949,249.732c30.124,124.532,102.191,217.383,204.604,284.252 c102.694,67.057,235.948,108.092,388.103,128.838c310.878,42.384,700.539,0.133,1070.331-77.787 c-354.013,70.82-721.771,107.146-1018.264,66.717c-153.636-20.947-288.227-62.52-391.913-130.553 c-103.973-68.209-176.92-162.984-206.99-290.195c-17.102-72.335-20.311-155.164-7.445-249.521 c64.871-475.725,51.935-676.598-246.338-717.267c-232.454-31.699-637.475,32.693-1311.59,139.853 c-145.673,23.159-303.937,48.321-476.56,75.065C764.314,1987.569,334.839,1873.646,0,1663.746v-7.949 c334.249,210.609,763.345,325.235,1311.802,240.264c171.573-26.577,330.375-51.834,476.534-75.065 c674.73-107.26,1080.113-171.707,1313.502-139.881c304.077,41.461,317.525,244.346,252.023,724.706 c-12.752,93.52-9.584,175.559,7.338,247.142c29.64,125.398,101.591,218.859,204.164,286.147 c102.836,67.474,236.483,108.722,389.162,129.54c311.621,42.497,702.438-0.072,1073.047-78.365 c-354.862,71.188-723.744,107.806-1021.009,67.274c-154.159-21.019-289.121-62.806-392.975-131.261 c-104.106-68.631-176.945-164.036-206.526-292.116c-16.557-71.713-19.537-153.67-6.827-246.877 c64.871-475.724,51.935-676.599-246.338-717.268c-232.455-31.698-637.476,32.695-1311.591,139.855 c-145.673,23.157-303.937,48.319-476.56,75.064C787.902,1974.479,342.137,1843.276,0,1611.613v-8.135 c341.5,232.459,786.881,364.464,1364.738,274.941c171.572-26.577,330.375-51.833,476.533-75.064 c674.731-107.261,1080.113-171.707,1313.502-139.882c304.077,41.462,317.525,244.347,252.024,724.706 c-12.601,92.396-9.657,173.571,6.719,244.526c29.161,126.286,101.005,220.372,203.698,288.063 c102.971,67.879,237.007,109.334,390.227,130.228c310.142,42.283,698.713,0.318,1067.737-77.258 c-353.206,70.481-719.884,106.53-1015.646,66.198c-154.719-21.092-290.104-63.104-394.099-131.989 c-104.251-69.063-176.979-165.107-206.048-294.104c-16.012-71.08-18.762-152.154-6.217-244.181 c64.871-475.723,51.935-676.598-246.338-717.269c-232.455-31.697-637.476,32.694-1311.591,139.856 c-145.673,23.157-303.937,48.321-476.56,75.065C810.563,1961.528,348.685,1811.313,0,1556.758v-8.34 c348.001,255.438,809.473,406.588,1417.674,312.363c171.574-26.577,330.376-51.833,476.534-75.064 c674.731-107.26,1080.113-171.703,1313.502-139.881c304.077,41.461,317.524,244.346,252.024,724.706 c-12.441,91.242-9.737,171.541,6.108,241.856c28.663,127.179,100.394,221.893,203.244,290.023 c103.118,68.303,237.565,109.992,391.321,130.955c311.828,42.525,702.932-0.119,1073.729-78.496 c-355.062,71.271-724.233,107.957-1021.704,67.4c-155.248-21.165-291.028-63.396-395.146-132.695 c-104.41-69.501-177.006-166.176-205.569-296.074c-15.479-70.416-18.002-150.603-5.611-241.486 c64.871-475.723,51.935-676.598-246.34-717.267c-232.452-31.698-637.474,32.694-1311.588,139.856 c-145.673,23.155-303.938,48.32-476.561,75.063C832.206,1948.736,354.444,1777.608,0,1499.028v-8.562 c353.706,279.55,831.05,451.764,1470.611,352.677c171.572-26.579,330.375-51.835,476.533-75.063 c674.731-107.262,1080.113-171.707,1313.502-139.884c304.077,41.461,317.525,244.349,252.024,724.706 c-12.281,90.078-9.795,169.509,5.532,239.213c28.158,128.067,99.756,223.395,202.74,291.942 c103.248,68.723,238.091,110.622,392.369,131.66c310.713,42.371,700.162,0.167,1069.82-77.688 c-353.854,70.756-721.4,107.023-1017.754,66.611c-155.78-21.238-291.969-63.688-396.249-133.436 c-104.545-69.924-177.019-167.235-205.063-298.045c-14.95-69.76-17.254-149.06-5.021-238.775 c64.871-475.723,51.934-676.596-246.341-717.268c-232.452-31.696-637.474,32.693-1311.589,139.854 c-145.672,23.159-303.937,48.321-476.56,75.065C852.74,1936.12,359.359,1741.967,0,1438.248v-8.8 c358.555,304.774,851.506,500.175,1523.547,396.057c171.574-26.577,330.376-51.835,476.534-75.065 c674.731-107.262,1080.113-171.705,1313.502-139.881c304.077,41.458,317.524,244.347,252.024,724.706 c-12.123,88.929-9.856,167.476,4.939,236.517c27.652,128.982,99.138,224.955,202.263,293.929 c103.376,69.147,238.621,111.259,393.445,132.37c310.806,42.385,700.399,0.146,1070.137-77.747 c-353.959,70.801-721.616,107.101-1018.056,66.677c-156.341-21.311-292.936-63.986-397.354-134.164 c-104.689-70.367-177.046-168.331-204.561-300.063c-14.43-69.103-16.511-147.5-4.441-236.031 c64.871-475.726,51.934-676.598-246.341-717.271c-232.452-31.695-637.474,32.694-1311.589,139.856 c-145.673,23.159-303.937,48.321-476.56,75.063C872.074,1923.688,363.342,1704.198,0,1374.242v-9.045 c362.48,331.092,870.757,552.003,1576.484,442.67c171.572-26.577,330.375-51.833,476.533-75.064 c674.731-107.26,1080.113-171.707,1313.502-139.882c304.077,41.461,317.525,244.347,252.024,724.706 c-11.967,87.773-9.917,165.431,4.362,233.799c27.135,129.901,98.5,226.519,201.756,295.922 c103.53,69.58,239.181,111.926,394.551,133.103c308.135,42.019,693.686,0.871,1060.566-75.735l0.531-0.246 c-351.189,69.613-715.164,104.965-1009.074,64.894c-156.881-21.394-293.881-64.281-398.42-134.89 c-104.816-70.787-177.025-169.408-204.015-302.064c-13.927-68.443-15.793-145.934-3.884-233.295 c64.871-475.723,51.934-676.598-246.342-717.268c-232.451-31.698-637.473,32.694-1311.588,139.854 c-145.673,23.159-303.938,48.321-476.561,75.064C890.076,1911.462,366.331,1664.064,0,1306.841v-9.306 c365.387,358.442,888.675,607.452,1629.42,492.691c171.574-26.576,330.376-51.833,476.534-75.064 c674.731-107.26,1080.113-171.707,1313.503-139.881c304.075,41.461,317.525,244.346,252.023,724.705 c-11.808,86.621-9.969,163.371,3.806,231.092c26.608,130.804,97.837,228.057,201.237,297.895 c103.662,70.012,239.707,112.573,395.595,133.825c300.364,40.955,674.304,2.882,1032.799-70.019l1.271-0.598 c-342.715,66.065-695.56,98.621-981.937,59.571c-157.431-21.466-294.854-64.585-399.563-135.653 c-104.977-71.245-177.072-170.529-203.519-304.129c-13.401-67.732-15.062-144.305-3.313-230.5 c64.871-475.723,51.935-676.598-246.341-717.267c-232.452-31.699-637.473,32.693-1311.588,139.854 c-145.673,23.156-303.938,48.321-476.56,75.064C906.646,1899.459,368.236,1621.317,0,1235.846v-9.589 c367.194,386.758,905.138,666.742,1682.357,546.332c171.572-26.578,330.375-51.833,476.533-75.065 c674.731-107.26,1080.113-171.703,1313.502-139.881c304.075,41.461,317.525,244.348,252.021,724.706 c-11.646,85.433-10.006,161.285,3.262,228.351c26.08,131.752,97.187,229.668,200.717,299.932 c103.799,70.449,240.267,113.227,396.734,134.563c292.627,39.9,655.119,4.789,1005.113-64.467l2.623-1.248 c-334.453,62.705-676.67,92.646-955.752,54.59c-157.965-21.537-295.773-64.875-400.593-136.361 c-105.095-71.67-177.032-171.585-202.944-306.115c-12.912-67.063-14.377-142.73-2.783-227.757 c64.871-475.724,51.934-676.599-246.34-717.269c-232.452-31.699-637.476,32.694-1311.588,139.856 c-145.675,23.157-303.938,48.321-476.561,75.064C921.528,1887.712,368.941,1575.506,0,1160.849v-10.168 c367.813,416.102,919.79,730.61,1735.293,604.271c171.573-26.58,330.376-51.835,476.534-75.064 c674.73-107.262,1080.114-171.707,1313.5-139.884c304.077,41.461,317.528,244.349,252.023,724.706 c-11.493,84.291-10.053,159.255,2.729,225.632c25.549,132.656,96.516,231.198,200.172,301.895 c103.926,70.873,240.76,113.874,397.734,135.272c285.219,38.889,636.791,6.534,978.479-59.253l3.301-1.566 c-326.101,59.405-657.837,86.84-929.665,49.78c-158.518-21.614-296.747-65.183-401.701-137.111 c-105.236-72.115-177.054-172.71-202.415-308.176c-12.427-66.377-13.694-141.131-2.258-224.987 c64.871-475.724,51.935-676.597-246.341-717.268c-232.452-31.698-637.477,32.694-1311.588,139.856 c-145.675,23.156-303.938,48.32-476.561,75.063C934.433,1876.277,368.33,1526.09,0,1081.335v-10.493 c367.081,446.236,932.566,799.032,1788.23,666.47c171.573-26.579,330.375-51.835,476.533-75.063 c674.731-107.262,1080.111-171.707,1313.5-139.882c304.077,41.459,317.527,244.347,252.024,724.702 c-11.334,83.148-10.093,157.198,2.205,222.893c25.012,133.593,95.846,232.791,199.641,303.925 c104.067,71.318,241.325,114.546,398.845,136.022c277.838,37.886,618.656,8.162,951.953-54.226l2.57-1.224l1.965-0.93 c-317.956,56.243-639.654,81.368-904.48,45.262c-159.028-21.687-297.643-65.469-402.73-137.84 c-105.343-72.539-177.006-173.757-201.832-310.158c-11.96-65.7-13.03-139.549-1.759-222.239 c64.871-475.723,51.934-676.596-246.341-717.269c-232.452-31.695-637.477,32.694-1311.588,139.855 c-145.674,23.159-303.939,48.321-476.561,75.064C945.336,1865.153,366.238,1472.868,0,997.464v-10.838 c364.858,476.903,943.326,872.146,1841.167,733.046c171.573-26.577,330.375-51.835,476.534-75.063 c674.73-107.261,1080.111-171.707,1313.5-139.882c304.078,41.459,317.524,244.347,252.023,724.705 c-11.175,82.004-10.125,155.17,1.708,220.191c24.474,134.496,95.167,234.326,199.081,305.884 c104.172,71.738,241.811,115.173,399.848,136.722c270.785,36.927,601.361,9.629,926.506-49.516l5.22-2.458 c-309.81,53.175-621.67,76.088-879.625,40.915c-159.573-21.756-298.583-65.759-403.808-138.561 c-105.493-72.99-177.018-174.867-201.299-312.187c-11.488-64.983-12.377-137.93-1.253-219.508 c64.871-475.726,51.935-676.599-246.34-717.268c-232.452-31.698-637.476,32.694-1311.588,139.854 c-145.673,23.159-303.938,48.32-476.562,75.064C953.857,1854.395,362.505,1415.124,0,908.678v-11.555 c360.952,508.052,951.508,950.941,1894.104,804.911c171.572-26.577,330.375-51.833,476.533-75.064 c674.731-107.26,1080.111-171.707,1313.5-139.882c304.077,41.461,317.525,244.346,252.024,724.706 c-11.023,80.854-10.146,153.137,1.229,217.49c23.941,135.426,94.482,235.891,198.523,307.882 c104.313,72.169,242.348,115.827,400.924,137.444c263.839,35.981,584.459,10.97,901.539-45.048l6.316-2.942 c-301.945,50.287-604.488,71.169-855.828,36.899c-160.084-21.831-299.481-66.055-404.812-139.266 c-105.604-73.404-176.985-175.91-200.721-314.131c-11.052-64.32-11.769-136.396-0.796-216.847 c64.867-475.723,51.933-676.598-246.342-717.268c-232.451-31.698-637.476,32.693-1311.588,139.855 c-145.674,23.157-303.938,48.319-476.563,75.064C959.41,1844.093,356.869,1351.774,0,814.102v-11.945 c355.135,539.205,956.873,1035.643,1947.04,882.238c171.573-26.577,330.375-51.834,476.534-75.064 c674.731-107.26,1080.111-171.707,1313.5-139.881c304.078,41.461,317.524,244.346,252.023,724.706 c-10.871,79.753-10.168,151.172,0.771,214.853c23.41,136.313,93.806,237.402,197.973,309.803 c104.434,72.59,242.833,116.459,401.9,138.148c257.25,35.079,568.515,12.18,877.812-40.923l7.052-3.24 c-294.261,47.536-587.825,66.504-832.764,33.104c-160.595-21.895-300.363-66.33-405.832-139.974 c-105.733-73.837-176.974-176.959-200.185-316.064c-10.62-63.662-11.17-134.868-0.351-214.222 c64.869-475.725,51.934-676.6-246.341-717.269c-232.452-31.699-637.476,32.694-1311.588,139.856 c-145.674,23.155-303.938,48.32-476.563,75.063C961.722,1834.298,349.065,1282.042,0,713.615v-12.757 c347.085,569.947,958.751,1127.21,1999.977,965.896c171.572-26.577,330.375-51.833,476.533-75.064 c674.731-107.26,1080.111-171.703,1313.5-139.881c304.077,41.461,317.525,244.347,252.024,724.706 c-10.727,78.677-10.188,149.231,0.325,212.257c22.898,137.205,93.156,238.916,197.434,311.735 c104.544,72.998,243.325,117.076,402.924,138.832c250.9,34.216,553.165,13.288,854.872-37.023l8.349-3.768 c-287.028,45.001-572.266,62.261-811.222,29.679c-161.054-21.961-301.174-66.59-406.729-140.616 c-105.832-74.222-176.924-177.931-199.631-317.872c-10.226-63.029-10.627-133.42,0.055-211.738 c64.869-475.723,51.932-676.598-246.341-717.268c-232.452-31.698-637.476,32.693-1311.588,139.854 c-145.673,23.157-303.938,48.321-476.562,75.065C960.115,1825.114,338.716,1204.475,0,606.449v-13.643 c336.446,599.428,956.622,1226.158,2052.913,1056.312c171.573-26.58,330.375-51.835,476.534-75.064 c674.731-107.262,1080.111-171.707,1313.5-139.884c304.078,41.461,317.525,244.349,252.023,724.706 c-10.592,77.662-10.208,147.399-0.08,209.801c22.395,138.036,92.512,240.314,196.883,313.515 c104.631,73.379,243.764,117.652,403.821,139.477c245.035,33.412,539.06,14.227,833.705-33.544l9.133-4.004 c-280.069,42.62-557.449,58.315-790.713,26.517c-161.538-22.027-302.013-66.849-407.679-141.262 c-105.933-74.601-176.899-178.886-199.129-319.656c-9.854-62.422-10.113-132.021,0.435-209.356 c64.869-475.723,51.933-676.596-246.34-717.267c-232.452-31.696-637.477,32.693-1311.589,139.855 c-145.673,23.156-303.938,48.321-476.562,75.064C953.34,1816.725,325.257,1116.738,0,491.218v-14.438 c322.64,626.568,949.336,1333.869,2105.847,1154.699c171.576-26.577,330.378-51.836,476.534-75.064 c674.732-107.263,1080.113-171.707,1313.502-139.882c304.078,41.459,317.525,244.347,252.023,724.706 c-10.457,76.711-10.215,145.678-0.457,207.468c21.916,138.817,91.912,241.664,196.403,315.247 c104.751,73.763,244.228,118.232,404.745,140.121c239.532,32.661,525.852,15.074,813.798-30.363l4.655-1.986h0.012l5.965-2.522 c-273.822,40.538-544.207,54.876-772.416,23.756c-161.93-22.075-302.684-67.063-408.438-141.803 c-106.018-74.931-176.873-179.714-198.66-321.185c-9.524-61.855-9.658-130.764,0.768-207.248 c64.871-475.725,51.934-676.598-246.338-717.27c-232.452-31.696-637.477,32.694-1311.588,139.855 c-145.673,23.158-303.939,48.32-476.563,75.064C940.25,1809.314,307.983,1016.092,0,367.088v-15.66 c304.881,649.507,935.363,1451.949,2158.783,1262.411c171.572-26.577,330.378-51.833,476.533-75.065 c674.733-107.26,1080.113-171.707,1313.502-139.881c304.078,41.461,317.526,244.347,252.024,724.706 c-10.334,75.814-10.208,144.099-0.771,205.39c21.49,139.518,91.355,242.853,195.912,316.748 c104.838,74.091,244.601,118.724,405.502,140.659c234.75,32.011,514.494,15.746,796.677-27.7l8.095-3.313l0.014-0.012l3.639-1.478 c-268.328,38.726-532.638,51.924-756.377,21.412c-162.27-22.129-303.272-67.262-409.1-142.285 c-106.091-75.211-176.84-180.398-198.258-322.467c-9.256-61.402-9.283-129.714,1.042-205.47 c64.872-475.723,51.935-676.598-246.338-717.267c-232.452-31.699-637.476,32.694-1311.588,139.854 c-145.673,23.159-303.938,48.321-476.562,75.064C918.401,1803.258,285.707,897.561,0,232.028v-16.775 C282.015,880.195,912.583,1797.473,2211.72,1596.2c171.573-26.577,330.378-51.833,476.534-75.065 c674.732-107.26,1080.113-171.707,1313.502-139.881c304.078,41.461,317.525,244.346,252.023,724.705 c-10.24,75.091-10.215,142.785-1.043,203.609c21.127,140.127,90.898,243.883,195.537,318.057 c104.896,74.362,244.883,119.129,406.137,141.119c230.771,31.465,505.025,16.274,782.326-25.51 c4.648-1.806,9.111-3.527,13.348-5.136c-263.932,37.313-523.399,49.604-743.592,19.586 c-162.51-22.159-303.701-67.394-409.582-142.616c-106.151-75.416-176.824-180.92-197.982-323.41 c-9.072-61.078-9.025-128.978,1.227-204.215c64.871-475.723,51.935-676.598-246.338-717.268 c-232.451-31.699-637.476,32.694-1311.588,139.855c-145.673,23.157-303.938,48.321-476.562,75.064 C884.552,1799.066,256.7,753.469,0,84.157V65.541c252.031,666.702,876.895,1728.02,2264.656,1513.02 c171.572-26.576,330.376-51.832,476.533-75.063c674.733-107.26,1080.113-171.704,1313.502-139.882 c304.078,41.461,317.526,244.347,252.024,724.706c-10.167,74.594-10.214,141.88-1.228,202.382 c20.873,140.54,90.572,244.6,195.263,318.973c104.95,74.562,245.136,119.43,406.616,141.449 c228.016,31.087,498.471,16.636,772.369-24.021l10.816-3.845h0.015l4.995-1.739c-261.363,36.493-518.027,48.27-736.131,18.535 c-162.553-22.16-303.77-67.408-409.668-142.679c-106.16-75.449-176.822-181.01-197.934-323.581 c-9.039-61.02-8.979-128.845,1.26-203.989c64.871-475.723,51.935-676.598-246.338-717.267 c-232.451-31.699-637.476,32.693-1311.588,139.855c-145.673,23.156-303.938,48.321-476.562,75.064 C890.781,1788.667,268.049,663.693,28.173,0H35.199z"></path></svg>