<?xml version="1.0" encoding="UTF-8"?> <svg xmlns="http://www.w3.org/2000/svg" width="157" height="174" viewBox="0 0 157 174" fill="none"><g clip-path="url(#clip0_125_2167)"><path d="M142.488 29.348C139.205 29.553 127.771 32.0894 115.564 28.2976C92.3869 21.1111 100.744 2.56201 78.5063 2.56201C56.269 2.56201 64.6386 21.1111 41.4356 28.2976C29.229 32.1406 17.7949 29.5786 14.5114 29.348C7.99607 28.9381 2.67818 34.6258 2.67818 41.1333C2.67818 57.0563 1.87982 73.0049 4.8156 88.6974C8.34369 107.592 15.2582 124.13 27.9928 138.657C41.7833 154.362 58.7542 164.79 78.4548 171.31C98.1941 164.802 115.165 154.375 128.955 138.657C141.69 124.143 148.605 107.605 152.133 88.6974C155.056 73.0049 154.257 57.0563 154.257 41.1333C154.322 34.6258 149.004 28.9381 142.488 29.348Z" fill="white" stroke="#025546" stroke-width="7"></path><path d="M72.6526 109.825L113.017 59.0871C113.018 59.0867 113.018 59.0863 113.018 59.0859C113.16 58.9106 113.367 58.7974 113.593 58.7715C113.82 58.7456 114.047 58.8096 114.226 58.9491C114.226 58.9492 114.226 58.9493 114.227 58.9494L119.577 63.1589C119.578 63.1595 119.578 63.16 119.579 63.1605C119.756 63.3044 119.87 63.5112 119.896 63.7364C119.921 63.9619 119.857 64.1889 119.717 64.3687C119.717 64.369 119.716 64.3693 119.716 64.3696L75.9389 119.386L75.9367 119.389C75.5601 119.87 75.083 120.263 74.5381 120.542C73.9932 120.821 73.3937 120.979 72.7812 121.004L72.7112 121.007L72.6447 121.029L72.569 121.055C72.015 121.044 71.468 120.927 70.9588 120.708C70.4255 120.48 69.945 120.145 69.5466 119.725L69.5456 119.724L45.4413 94.4753L45.4414 94.4752L45.432 94.4659C45.3517 94.386 45.2881 94.2914 45.2448 94.1875C45.2015 94.0835 45.1792 93.9722 45.1792 93.8598C45.1792 93.7474 45.2015 93.6361 45.2448 93.5321C45.2873 93.43 45.3495 93.3368 45.428 93.2578L50.3671 88.5999L50.382 88.5858L50.3957 88.5706C50.4694 88.4888 50.5598 88.4231 50.6612 88.378C50.7624 88.333 50.8722 88.3097 50.9833 88.3097C51.0945 88.3097 51.2043 88.333 51.3056 88.378C51.4068 88.423 51.4972 88.4887 51.571 88.5706L51.5759 88.5761L51.581 88.5814L71.8997 109.859L72.2957 110.274L72.6526 109.825Z" fill="#025546" stroke="white"></path></g><defs><clipPath id="clip0_125_2167"><rect width="157" height="174" fill="white"></rect></clipPath></defs></svg> 