<?xml version="1.0" encoding="UTF-8"?> <svg xmlns="http://www.w3.org/2000/svg" width="41" height="54" viewBox="0 0 41 54" fill="none"><g clip-path="url(#clip0_123_428)"><path d="M0.719471 54C0.528744 53.9997 0.345912 53.9228 0.211048 53.7862C0.0761834 53.6496 0.0002892 53.4644 0 53.2712V4.83609C0.0002892 4.64287 0.0761834 4.45766 0.211048 4.32104C0.345912 4.18441 0.528744 4.10753 0.719471 4.10724H11.494V0.728846C11.4943 0.535634 11.5702 0.350419 11.7051 0.213798C11.84 0.0771758 12.0228 0.000292968 12.2135 0H28.7865C28.9772 0.000292968 29.1601 0.0771758 29.2949 0.213798C29.4298 0.350419 29.5057 0.535634 29.506 0.728846V4.10724H40.2816C40.4723 4.10753 40.6552 4.18441 40.79 4.32104C40.9249 4.45766 41.0008 4.64287 41.0011 4.83609V53.2712C41.0008 53.4644 40.9249 53.6496 40.79 53.7862C40.6552 53.9228 40.4723 53.9997 40.2816 54H0.719471ZM1.43894 52.5423H39.56V5.56493H29.5005V9.6179C29.5005 9.8113 29.4247 9.9968 29.2898 10.1337C29.1549 10.2705 28.9719 10.3476 28.781 10.3478H12.2135C12.0225 10.3476 11.8394 10.2706 11.7043 10.1337C11.5692 9.9969 11.4932 9.8114 11.4929 9.6179V5.56493H1.43894V52.5423ZM12.9319 8.88905H28.067V1.45769H12.9319V8.88905ZM10.2213 44.8451C10.127 44.8452 10.0336 44.8263 9.94651 44.7896C9.85943 44.7529 9.78039 44.6991 9.71395 44.6313L7.18815 42.0649C7.12014 41.9975 7.06599 41.9171 7.02885 41.8284C6.9917 41.7397 6.97229 41.6444 6.97173 41.548C6.97117 41.4517 6.98949 41.3562 7.02561 41.267C7.06173 41.1779 7.11494 41.0969 7.18217 41.0287C7.2494 40.9605 7.3293 40.9065 7.41726 40.8698C7.50523 40.8331 7.59949 40.8145 7.69462 40.8149C7.78974 40.8154 7.88383 40.835 7.97144 40.8725C8.05905 40.91 8.13845 40.9648 8.20503 41.0336L10.2213 43.0828L14.7513 38.4971C14.8178 38.4282 14.8972 38.3733 14.9848 38.3357C15.0723 38.298 15.1664 38.2784 15.2615 38.2778C15.3566 38.2773 15.4509 38.2958 15.5389 38.3324C15.6269 38.369 15.7069 38.4229 15.7742 38.491C15.8415 38.5591 15.8948 38.64 15.931 38.7292C15.9672 38.8183 15.9856 38.9138 15.9852 39.0101C15.9847 39.1065 15.9654 39.2018 15.9284 39.2906C15.8913 39.3793 15.8373 39.4597 15.7693 39.5272L10.7319 44.6302C10.6652 44.6986 10.5856 44.7528 10.4979 44.7897C10.4103 44.8266 10.3162 44.8454 10.2213 44.8451ZM20.248 42.2975C20.0619 42.2901 19.8858 42.2101 19.7567 42.0741C19.6276 41.9381 19.5555 41.7567 19.5555 41.5681C19.5555 41.3794 19.6276 41.1981 19.7567 41.0621C19.8858 40.9261 20.0619 40.846 20.248 40.8387H33.3045C33.4906 40.846 33.6667 40.9261 33.7958 41.0621C33.9249 41.1981 33.997 41.3794 33.997 41.5681C33.997 41.7567 33.9249 41.9381 33.7958 42.0741C33.6667 42.2101 33.4906 42.2901 33.3045 42.2975H20.248ZM10.2213 34.5626C10.1271 34.5629 10.0337 34.5442 9.9466 34.5077C9.85952 34.4712 9.78044 34.4176 9.71395 34.3499L7.16737 31.7691C7.04015 31.6312 6.97074 31.4487 6.9738 31.2601C6.97686 31.0714 7.05215 30.8913 7.18377 30.7578C7.25069 30.6896 7.33026 30.6355 7.4179 30.5986C7.50553 30.5618 7.5995 30.5428 7.6944 30.5429C7.78875 30.5426 7.88222 30.5613 7.96933 30.598C8.05644 30.6347 8.13546 30.6887 8.20175 30.7567L10.2213 32.8036L14.7535 28.219C14.8204 28.1512 14.8998 28.0974 14.9873 28.0607C15.0747 28.024 15.1684 28.0051 15.2631 28.0052C15.3574 28.0049 15.4509 28.0236 15.538 28.0603C15.6251 28.097 15.7041 28.151 15.7704 28.219C15.8374 28.2866 15.8906 28.367 15.9269 28.4554C15.9632 28.5439 15.9818 28.6388 15.9818 28.7346C15.9818 28.8304 15.9632 28.9253 15.9269 29.0138C15.8906 29.1023 15.8374 29.1826 15.7704 29.2502L10.733 34.3533C10.6657 34.4208 10.5858 34.4741 10.4979 34.51C10.4101 34.546 10.316 34.5639 10.2213 34.5626ZM20.248 32.015C20.0619 32.0076 19.8858 31.9276 19.7567 31.7916C19.6276 31.6556 19.5555 31.4742 19.5555 31.2856C19.5555 31.0969 19.6276 30.9156 19.7567 30.7796C19.8858 30.6436 20.0619 30.5635 20.248 30.5562H33.3045C33.4906 30.5635 33.6667 30.6436 33.7958 30.7796C33.9249 30.9156 33.997 31.0969 33.997 31.2856C33.997 31.4742 33.9249 31.6556 33.7958 31.7916C33.6667 31.9276 33.4906 32.0076 33.3045 32.015H20.248ZM10.2213 24.2834C10.1271 24.2837 10.0337 24.2651 9.9466 24.2286C9.85952 24.1921 9.78044 24.1384 9.71395 24.0708L7.18487 21.5087C7.11768 21.4409 7.06444 21.3603 7.02821 21.2715C6.99199 21.1827 6.97351 21.0875 6.97384 20.9914C6.97396 20.8474 7.01622 20.7066 7.09528 20.5868C7.17435 20.4671 7.28667 20.3738 7.41806 20.3187C7.54945 20.2635 7.69402 20.2491 7.8335 20.2772C7.97299 20.3053 8.10113 20.3746 8.20175 20.4764L10.2213 22.5222L14.7513 17.9365C14.8178 17.8676 14.8972 17.8127 14.9848 17.7751C15.0723 17.7375 15.1664 17.7178 15.2615 17.7173C15.3566 17.7167 15.4509 17.7352 15.5389 17.7718C15.6269 17.8084 15.7069 17.8623 15.7742 17.9304C15.8415 17.9985 15.8948 18.0795 15.931 18.1686C15.9672 18.2577 15.9856 18.3532 15.9852 18.4496C15.9847 18.5459 15.9654 18.6412 15.9284 18.73C15.8913 18.8187 15.8373 18.8992 15.7693 18.9666L10.7319 24.0697C10.6651 24.1379 10.5855 24.1919 10.4978 24.2286C10.4102 24.2653 10.3162 24.284 10.2213 24.2834ZM20.248 21.7358C20.0572 21.7358 19.8742 21.659 19.7392 21.5223C19.6043 21.3856 19.5285 21.2003 19.5285 21.007C19.5285 20.8137 19.6043 20.6283 19.7392 20.4916C19.8742 20.3549 20.0572 20.2781 20.248 20.2781H33.3045C33.4953 20.2781 33.6783 20.3549 33.8132 20.4916C33.9482 20.6283 34.024 20.8137 34.024 21.007C34.024 21.2003 33.9482 21.3856 33.8132 21.5223C33.6783 21.659 33.4953 21.7358 33.3045 21.7358H20.248Z" fill="#393939"></path></g><defs><clipPath id="clip0_123_428"><rect width="41" height="54" fill="white"></rect></clipPath></defs></svg> 