<?xml version="1.0" encoding="UTF-8"?> <svg xmlns="http://www.w3.org/2000/svg" width="213" height="149" viewBox="0 0 213 149" fill="none"><g clip-path="url(#clip0_125_2181)"><path d="M198.697 73.1316L198.916 72.9646L198.697 73.1316C190.993 65.0533 180.755 59.8447 169.679 58.369H169.511H169.254V58.1121V57.9579C169.383 56.8318 169.447 55.6994 169.447 54.566C169.447 36.9897 153.998 22.6898 134.971 22.6898C134.971 22.6898 133.143 2.56956 106.468 2.62095C79.7928 2.67234 76.188 27.919 76.188 27.919C49.1527 27.919 27.2669 48.219 27.2669 73.1701C27.2695 77.1478 27.8329 81.1053 28.9406 84.9262V84.9262V85.0932L29.0049 85.3502L28.7217 85.4144H28.5414C21.3471 86.8967 14.8235 90.6544 9.93857 96.1298L9.71965 95.9756L9.93857 96.1298C5.1861 101.493 2.54645 108.396 2.51025 115.556C2.51025 132.593 17.5084 146.456 35.9826 146.456H166.654V146.302H166.911H167.065C178.693 145.364 189.607 140.332 197.86 132.105C205.777 124.15 210.279 113.431 210.412 102.22C210.374 91.3861 206.182 80.9778 198.697 73.1316V73.1316Z" fill="white"></path><path d="M198.697 73.1316L198.916 72.9646L198.697 73.1316ZM198.697 73.1316C190.993 65.0533 180.755 59.8447 169.679 58.369H169.511H169.254V58.1121V57.9579C169.383 56.8318 169.447 55.6994 169.447 54.566C169.447 36.9897 153.998 22.6898 134.971 22.6898C134.971 22.6898 133.143 2.56956 106.468 2.62095C79.7928 2.67234 76.188 27.919 76.188 27.919C49.1527 27.919 27.2669 48.219 27.2669 73.1701C27.2695 77.1478 27.8329 81.1053 28.9406 84.9262V84.9262V85.0932L29.0049 85.3502L28.7217 85.4144H28.5414C21.3471 86.8967 14.8235 90.6544 9.93857 96.1298L9.71965 95.9756L9.93857 96.1298C5.1861 101.493 2.54645 108.396 2.51025 115.556C2.51025 132.593 17.5084 146.456 35.9826 146.456H166.654V146.302H166.911H167.065C178.693 145.364 189.607 140.332 197.86 132.105C205.777 124.15 210.279 113.431 210.412 102.22C210.374 91.3861 206.182 80.9778 198.697 73.1316V73.1316Z" stroke="#88CAC9" stroke-width="7"></path><path d="M91.0448 43.825H75.3385C69.6007 43.825 64.9492 48.4671 64.9492 54.1934V69.8682C64.9492 75.5945 69.6007 80.2366 75.3385 80.2366H91.0448C96.7826 80.2366 101.434 75.5945 101.434 69.8682V54.1934C101.434 48.4671 96.7826 43.825 91.0448 43.825Z" fill="white" stroke="#88CAC9" stroke-width="7"></path><path d="M91.0448 90.7852H75.3385C69.6007 90.7852 64.9492 95.4273 64.9492 101.154V116.828C64.9492 122.555 69.6007 127.197 75.3385 127.197H91.0448C96.7826 127.197 101.434 122.555 101.434 116.828V101.154C101.434 95.4273 96.7826 90.7852 91.0448 90.7852Z" fill="white" stroke="#88CAC9" stroke-width="7"></path><path d="M136.953 90.7852H121.247C115.509 90.7852 110.858 95.4273 110.858 101.154V116.828C110.858 122.555 115.509 127.197 121.247 127.197H136.953C142.691 127.197 147.343 122.555 147.343 116.828V101.154C147.343 95.4273 142.691 90.7852 136.953 90.7852Z" fill="white" stroke="#88CAC9" stroke-width="7"></path><path d="M129.1 47.2427V76.832" stroke="#88CAC9" stroke-width="7" stroke-linecap="round"></path><path d="M143.918 62.0437H114.27" stroke="#88CAC9" stroke-width="7" stroke-linecap="round"></path></g><defs><clipPath id="clip0_125_2181"><rect width="213" height="149" fill="white"></rect></clipPath></defs></svg> 