<?xml version="1.0" encoding="UTF-8"?> <svg xmlns="http://www.w3.org/2000/svg" width="175" height="175" viewBox="0 0 175 175" fill="none"><g clip-path="url(#clip0_125_2170)"><path d="M87.5002 172.426C134.404 172.426 172.427 134.404 172.427 87.5C172.427 40.5964 134.404 2.57349 87.5002 2.57349C40.5966 2.57349 2.57373 40.5964 2.57373 87.5C2.57373 134.404 40.5966 172.426 87.5002 172.426Z" fill="white" stroke="#4BAF4B" stroke-width="7"></path><path d="M87.1141 153.125C123.571 153.125 153.125 123.571 153.125 87.1141C153.125 50.6572 123.571 21.103 87.1141 21.103C50.6572 21.103 21.103 50.6572 21.103 87.1141C21.103 123.571 50.6572 153.125 87.1141 153.125Z" fill="white" stroke="#4BAF4B" stroke-width="7"></path><path d="M114.882 87.1141C114.882 102.45 102.45 114.882 87.1141 114.882C71.778 114.882 59.3457 102.45 59.3457 87.1141C59.3457 71.778 71.778 59.3457 87.1141 59.3457C102.45 59.3457 114.882 71.778 114.882 87.1141Z" stroke="#4BAF4B" stroke-width="7"></path><path d="M91.5146 137.812C91.5146 137.812 125.395 135.818 136.95 99.6985" stroke="#4BAF4B" stroke-width="7" stroke-linecap="round"></path></g><defs><clipPath id="clip0_125_2170"><rect width="175" height="175" fill="white"></rect></clipPath></defs></svg> 