<?xml version="1.0" encoding="UTF-8"?> <svg xmlns="http://www.w3.org/2000/svg" width="185" height="169" viewBox="0 0 185 169" fill="none"><g clip-path="url(#clip0_125_2175)"><path d="M181.057 91.381L153.237 63.639V21.7762H133.363V43.2965L93.5646 3.61011L4.41528 92.5076L18.5374 106.667L27.627 97.6028V166.44H158.796V97.5388L167.886 106.667L182.252 92.5076L181.057 91.381Z" fill="white" stroke="#FFDA3D" stroke-width="7"></path><path d="M117.586 108.216C117.24 108.22 116.896 108.154 116.576 108.022C116.257 107.89 115.967 107.694 115.724 107.448L115.596 107.333C109.367 101.166 100.939 97.7157 92.1616 97.7373C83.3842 97.7589 74.9737 101.251 68.7748 107.448C68.5312 107.692 68.2418 107.885 67.9232 108.017C67.6046 108.15 67.2628 108.218 66.9177 108.219C66.5726 108.219 66.2308 108.152 65.9117 108.021C65.5926 107.89 65.3026 107.697 65.0581 107.454C64.8136 107.211 64.6195 106.923 64.4869 106.605C64.3542 106.287 64.2858 105.947 64.2852 105.602C64.2846 105.258 64.3519 104.917 64.4834 104.599C64.6149 104.281 64.808 103.992 65.0517 103.748C72.2377 96.5677 81.986 92.5219 92.159 92.4979C102.332 92.4739 112.099 96.4736 119.319 103.62L119.435 103.748C119.832 104.101 120.11 104.569 120.229 105.086C120.348 105.604 120.303 106.145 120.1 106.636C119.897 107.127 119.546 107.542 119.095 107.825C118.645 108.108 118.118 108.245 117.586 108.216V108.216Z" fill="#FFDA3D"></path><path d="M107.174 118.842C106.829 118.842 106.486 118.774 106.167 118.642C105.847 118.51 105.557 118.317 105.313 118.073C101.876 114.655 97.2196 112.735 92.3652 112.735C87.5108 112.735 82.8546 114.655 79.4178 118.073C78.9258 118.564 78.2584 118.84 77.5626 118.84C76.8668 118.84 76.1995 118.564 75.7075 118.073C75.2155 117.583 74.939 116.917 74.939 116.224C74.939 115.53 75.2155 114.864 75.7075 114.374C77.898 112.186 80.4995 110.45 83.3633 109.266C86.2271 108.082 89.297 107.472 92.3973 107.472C95.4976 107.472 98.5675 108.082 101.431 109.266C104.295 110.45 106.897 112.186 109.087 114.374C109.486 114.728 109.764 115.196 109.883 115.715C110.002 116.234 109.955 116.777 109.751 117.268C109.546 117.76 109.193 118.175 108.74 118.457C108.288 118.739 107.758 118.873 107.225 118.842H107.174Z" fill="#FFDA3D"></path><path d="M56.8866 98.0894C56.3539 98.1213 55.8245 97.987 55.3719 97.705C54.9194 97.423 54.5663 97.0074 54.3616 96.516C54.1568 96.0246 54.1107 95.4818 54.2296 94.9631C54.3485 94.4443 54.6266 93.9754 55.0251 93.6215C59.9104 88.6954 65.729 84.787 72.1426 82.1233C78.5562 79.4596 85.4369 78.0938 92.3845 78.1054C99.3233 78.0865 106.198 79.4338 112.613 82.07C119.028 84.7063 124.859 88.5797 129.77 93.4679L129.898 93.5959C130.392 94.0831 130.671 94.746 130.675 95.4386C130.678 96.1312 130.406 96.797 129.917 97.2893C129.429 97.7816 128.764 98.0603 128.069 98.0639C127.375 98.0675 126.707 97.7957 126.213 97.3085L126.098 97.1805C117.135 88.2995 105.006 83.3255 92.3708 83.3495C79.7355 83.3735 67.6256 88.3935 58.6968 97.3085C58.4616 97.5512 58.1805 97.7452 57.8698 97.8792C57.5592 98.0133 57.225 98.0847 56.8866 98.0894V98.0894Z" fill="#FFDA3D"></path><path d="M92.436 130.927C94.4214 130.927 96.0308 129.322 96.0308 127.342C96.0308 125.362 94.4214 123.758 92.436 123.758C90.4507 123.758 88.8413 125.362 88.8413 127.342C88.8413 129.322 90.4507 130.927 92.436 130.927Z" fill="#FFDA3D"></path></g><defs><clipPath id="clip0_125_2175"><rect width="185" height="169" fill="white"></rect></clipPath></defs></svg> 