<?xml version="1.0" encoding="UTF-8"?> <svg xmlns="http://www.w3.org/2000/svg" width="56" height="59" viewBox="0 0 56 59" fill="none"><g clip-path="url(#clip0_3_724)"><path d="M2.60583 59C2.23719 59 1.93749 58.6992 1.93749 58.3292V26.1122L1.77286 25.947C0.630352 24.7961 0 23.2696 0 21.6498V16.052C0 16.0181 0.0112563 15.9447 0.0267337 15.8811L0.0422111 15.8656L0.0661307 15.7682L0.0984925 15.7032V15.6848L6.57085 0.408114C6.67638 0.160986 6.91698 0 7.18573 0H48.2247C48.4935 0 48.7341 0.159574 48.8396 0.408114L55.4287 15.9616C55.433 15.9927 55.4358 16.0252 55.4358 16.0577C55.4316 16.093 55.4301 16.1297 55.4287 16.1692C55.4259 16.2808 55.4231 16.487 55.4203 16.8598C55.4133 17.7904 55.4105 19.4031 55.4105 21.654C55.4105 23.2724 54.7801 24.7975 53.6376 25.9512L53.4744 26.1165V58.3306C53.4744 58.7006 53.1747 59.0014 52.806 59.0014H2.60583V59ZM23.4637 38.4022C23.8324 38.4022 24.1321 38.703 24.1321 39.073V57.6627H52.1377V27.0937L51.3835 27.3662C50.6687 27.6247 49.999 27.7503 49.3349 27.7503C47.3805 27.7503 45.5303 26.7844 44.3849 25.1647L43.9262 24.5151L43.4675 25.1633C42.3222 26.7816 40.472 27.7489 38.519 27.7489C36.566 27.7489 34.7158 26.783 33.5705 25.1633L33.1118 24.5137L32.6531 25.1618C31.5077 26.7802 29.6575 27.7475 27.7045 27.7475C25.7516 27.7475 23.9013 26.7816 22.756 25.1618L22.2973 24.5123L21.8386 25.1604C20.6933 26.7788 18.843 27.7461 16.89 27.7461C14.9371 27.7461 13.0868 26.7802 11.9415 25.1604L11.4828 24.5108L11.0241 25.1604C9.87879 26.7788 8.02854 27.7461 6.07417 27.7461C5.41005 27.7461 4.7403 27.6204 4.02553 27.362L3.27136 27.0894V57.6584H9.64804V39.0688C9.64804 38.6988 9.94774 38.398 10.3164 38.398H23.4623L23.4637 38.4022ZM10.9861 57.6627H22.7926V39.7438H10.9861V57.6627V57.6627ZM44.596 21.6512C44.596 24.2736 46.722 26.4074 49.3363 26.4074C51.9506 26.4074 54.0752 24.2736 54.0752 21.6512V16.7242H44.596V21.6512ZM33.7815 21.6512C33.7815 24.2736 35.9075 26.4074 38.5204 26.4074C41.1333 26.4074 43.2593 24.2736 43.2593 21.6512V16.7242H33.7815V21.6512ZM22.967 21.6512C22.967 24.2736 25.0931 26.4074 27.7059 26.4074C30.3188 26.4074 32.4448 24.2736 32.4448 21.6512V16.7242H22.967V21.6512ZM12.1526 21.6512C12.1526 24.2736 14.2786 26.4074 16.8915 26.4074C19.5043 26.4074 21.6304 24.2736 21.6304 21.6512V16.7242H12.1526V21.6512V21.6512ZM1.33668 21.6512C1.33668 24.2736 3.46271 26.4074 6.07558 26.4074C8.68844 26.4074 10.8159 24.2736 10.8159 21.6512V16.7242H1.33668V21.6512V21.6512ZM1.67859 15.3841H53.7333L47.7829 1.34155H7.62894L1.68 15.3841H1.67859Z" fill="black"></path><path d="M31.0547 43.7402C30.686 43.7402 30.3863 43.4394 30.3863 43.0695V35.256C30.3863 34.886 30.686 34.5852 31.0547 34.5852H47.3481C47.7168 34.5852 48.0165 34.886 48.0165 35.256V43.0695C48.0165 43.4394 47.7168 43.7402 47.3481 43.7402H31.0547V43.7402ZM31.723 42.3987H46.6812V35.9268H31.723V42.3987V42.3987Z" fill="black"></path></g><defs><clipPath id="clip0_3_724"><rect width="56" height="59" fill="white"></rect></clipPath></defs></svg> 