<?xml version="1.0" encoding="UTF-8"?> <svg xmlns="http://www.w3.org/2000/svg" width="60" height="60" viewBox="0 0 60 60" fill="none"><path fill-rule="evenodd" clip-rule="evenodd" d="M30 0.403397C28.4423 0.403397 27.0577 1.38462 26.5384 2.88462C25.9038 4.78846 26.9423 6.86539 28.8461 7.5C29.1923 7.61539 29.5961 7.67353 30 7.67353C31.5577 7.67353 32.9423 6.69231 33.4615 5.19231C34.0961 3.28846 33.0577 1.21154 31.1538 0.576924C30.8077 0.461539 30.4038 0.403397 30 0.403397ZM30 1.55724C30.2447 1.55724 30.4481 1.59926 30.6803 1.64723L30.6804 1.64725L30.6808 1.64733L30.681 1.64739C30.7223 1.65591 30.7644 1.66461 30.8079 1.6733C32.0771 2.07715 32.8267 3.51968 32.3651 4.78891C32.019 5.76968 31.0384 6.46109 30 6.46109C29.7115 6.46109 29.4228 6.40385 29.1921 6.34616C27.9228 5.94231 27.1733 4.49978 27.6348 3.23055C27.981 2.24978 28.9615 1.55724 30 1.55724ZM4.15338 24.0572C6.40338 14.1919 14.1918 6.4034 24.0572 4.1534C24.0572 4.50891 24.1025 4.81971 24.1526 5.16451L24.1527 5.16457L24.1733 5.30724C14.8271 7.49955 7.49954 14.8271 5.30723 24.1733L5.29108 24.171C4.89263 24.1141 4.49492 24.0572 4.15338 24.0572ZM36.0002 4.21199C35.9425 4.50045 35.8844 4.9034 35.8267 5.30724C45.1728 7.49955 52.5579 14.8846 54.7502 24.2308C55.0963 24.1731 55.5002 24.1158 55.904 24.1158C53.654 14.2505 45.8656 6.46199 36.0002 4.21199ZM23.0194 24.8652C23.0194 20.9998 26.1346 17.8846 30 17.8846C33.8653 17.8846 36.9805 20.9998 36.9805 24.8652V28.1543H37.731C38.0771 28.1543 38.3079 28.3851 38.3079 28.7312V39.1158C38.2502 40.7889 36.9228 42.1154 35.2497 42.1154H24.7502C23.0771 42.1154 21.7495 40.7889 21.7495 39.1158V28.7312C21.7495 28.3851 21.9803 28.1543 22.3264 28.1543H23.0194V24.8652ZM30 19.0385C33.2307 19.0385 35.8267 21.6344 35.8267 24.8652V28.1543H24.1733V24.8652C24.1733 21.6344 26.7692 19.0385 30 19.0385ZM0.576906 28.8462C1.09614 27.3462 2.48075 26.3649 4.03844 26.3649C4.44229 26.3649 4.84614 26.4231 5.19229 26.5385C7.09614 27.1731 8.1346 29.25 7.49998 31.1538C6.98075 32.6538 5.59614 33.6351 4.03844 33.6351C3.6346 33.6351 3.23075 33.5769 2.8846 33.4615C0.980752 32.8269 -0.0577093 30.75 0.576906 28.8462ZM55.9615 26.3649C54.4038 26.3649 53.0192 27.3462 52.5 28.8462C51.8654 30.75 52.9038 32.8269 54.8077 33.4615C55.1538 33.5769 55.5577 33.6351 55.9615 33.6351C57.5192 33.6351 58.9038 32.6538 59.4231 31.1538C60.0577 29.25 59.0192 27.1731 57.1154 26.5385C56.7692 26.4231 56.3654 26.3649 55.9615 26.3649ZM4.71874 27.6088C4.48654 27.5608 4.28317 27.5188 4.03843 27.5188C2.99997 27.5188 2.01943 28.2113 1.67327 29.1921C1.21173 30.4613 1.96128 31.9038 3.23051 32.3077C3.46128 32.3654 3.74997 32.4226 4.03843 32.4226C5.07689 32.4226 6.05744 31.7312 6.40359 30.7505C6.86513 29.4812 6.11558 28.0387 4.84635 27.6348C4.80272 27.6261 4.7604 27.6174 4.719 27.6088L4.71874 27.6088ZM55.9615 27.5188C56.2063 27.5188 56.4096 27.5608 56.6418 27.6088C56.6833 27.6173 56.7257 27.6261 56.7694 27.6348C58.0387 28.0387 58.7882 29.4812 58.3267 30.7505C57.9805 31.7312 57 32.4226 55.9615 32.4226C55.6731 32.4226 55.3844 32.3654 55.1536 32.3077C53.8844 31.9038 53.1348 30.4613 53.5964 29.1921C53.9425 28.2113 54.9231 27.5188 55.9615 27.5188ZM37.0966 29.3081H22.9034V39.1158C22.9034 40.1543 23.7118 40.9615 24.7502 40.9615H35.2498C36.2882 40.9615 37.0966 40.1543 37.0966 39.1158V29.3081ZM30 30.6344C28.9039 30.6344 27.9808 31.5575 27.9808 32.6536C27.9808 33.7498 28.9039 34.6729 30 34.6729C31.0962 34.6729 32.0192 33.7498 32.0192 32.6536C32.0192 31.5575 31.0962 30.6344 30 30.6344ZM30.8654 32.6536C30.8654 32.1921 30.4615 31.7882 30 31.7882C29.5384 31.7882 29.1346 32.1921 29.1346 32.6536C29.1346 33.1152 29.5384 33.519 30 33.519C30.4615 33.519 30.8654 33.1152 30.8654 32.6536ZM5.30723 35.8267C4.96107 35.8844 4.55723 35.9428 4.15338 35.9428C6.40338 45.8081 14.1918 53.5966 24.0572 55.8466C24.0572 55.5051 24.1141 55.1074 24.171 54.7089L24.1733 54.6928C14.8271 52.5005 7.49954 45.1729 5.30723 35.8267ZM35.7692 54.7502C45.1154 52.5579 52.5004 45.1729 54.6928 35.8267C55.0966 35.8844 55.4995 35.9425 55.788 36.0002C53.538 45.8656 45.7495 53.6541 35.8842 55.9041C35.8842 55.5437 35.8386 55.2292 35.7878 54.8787L35.7692 54.7502ZM30 52.3265C28.4423 52.3265 27.0577 53.3077 26.5385 54.8077C25.9038 56.7115 26.9423 58.7885 28.8461 59.4231C29.1923 59.5385 29.5961 59.5966 30 59.5966C31.5577 59.5966 32.9423 58.6154 33.4615 57.1154C34.0961 55.2115 33.0577 53.1346 31.1538 52.5C30.8077 52.3846 30.4038 52.3265 30 52.3265ZM30.6803 53.5703C30.4481 53.5223 30.2447 53.4803 30 53.4803C28.9615 53.4803 27.981 54.1729 27.6348 55.1536C27.1733 56.4229 27.9228 57.8654 29.1921 58.2692C29.4228 58.3269 29.7115 58.3842 30 58.3842C31.0384 58.3842 32.019 57.6928 32.3651 56.712C32.8267 55.4428 32.0771 54.0002 30.8079 53.5964C30.7642 53.5876 30.7218 53.5789 30.6803 53.5703Z" fill="#393939"></path></svg> 