<svg xmlns="http://www.w3.org/2000/svg" xmlns:xlink="http://www.w3.org/1999/xlink" id="Layer_1" x="0px" y="0px" width="275.222px" height="104.12px" viewBox="0 0 275.222 104.12" xml:space="preserve"><g>	<path fill="#231F20" d="M124.206,33.83h1.753c0,0.152,0.003,0.251,0.01,0.297c0.013,0.759,0.068,1.268,0.163,1.525  c0.096,0.258,0.306,0.456,0.629,0.595c0.502,0.217,2.143,0.327,4.923,0.327c2.013,0,3.459-0.1,4.337-0.298  c0.865-0.192,1.298-0.862,1.298-2.01c0-0.581-0.069-1.019-0.208-1.312c-0.139-0.294-0.377-0.5-0.714-0.62  c-0.336-0.119-0.808-0.188-1.416-0.208c-0.607-0.019-2.578-0.029-5.912-0.029c-1.123,0-2.021-0.104-2.694-0.312  s-1.192-0.54-1.555-0.996c-0.429-0.541-0.644-1.363-0.644-2.465c0-1.222,0.34-2.107,1.02-2.655c0.33-0.271,0.697-0.475,1.1-0.614  c0.402-0.139,0.967-0.251,1.693-0.337c1.195-0.145,2.615-0.218,4.259-0.218c1.525,0,2.704,0.078,3.536,0.233  c0.832,0.155,1.479,0.421,1.941,0.798c0.382,0.31,0.645,0.673,0.787,1.089c0.142,0.416,0.219,1.056,0.232,1.921h-1.803v-0.208  c0-0.66-0.072-1.102-0.217-1.327c-0.212-0.35-0.672-0.6-1.382-0.753c-0.71-0.152-1.768-0.227-3.174-0.227  c-1.75,0-3.063,0.066-3.937,0.198c-0.875,0.132-1.467,0.35-1.778,0.653c-0.29,0.291-0.436,0.773-0.436,1.447  c0,0.607,0.073,1.039,0.218,1.297c0.145,0.257,0.43,0.452,0.852,0.584c0.614,0.198,1.796,0.304,3.546,0.317  c0.594,0.007,2.063,0.014,4.407,0.02c0.971,0.006,1.715,0.099,2.233,0.277c0.52,0.178,0.943,0.485,1.273,0.921  c0.408,0.555,0.613,1.347,0.613,2.377c0,0.984-0.168,1.76-0.505,2.328c-0.402,0.66-1.15,1.102-2.243,1.327  c-1.093,0.225-3.056,0.336-5.889,0.336c-1.498,0-2.603-0.044-3.312-0.133c-0.71-0.089-1.273-0.253-1.689-0.49  c-0.502-0.284-0.848-0.646-1.04-1.085c-0.191-0.439-0.287-1.094-0.287-1.966C124.195,34.394,124.199,34.193,124.206,33.83"></path>	<path fill="none" stroke="#231F20" stroke-miterlimit="10" d="M124.206,33.83h1.753c0,0.152,0.003,0.251,0.01,0.297  c0.013,0.759,0.068,1.268,0.163,1.525c0.096,0.258,0.306,0.456,0.629,0.595c0.502,0.217,2.143,0.327,4.923,0.327  c2.013,0,3.459-0.1,4.337-0.298c0.865-0.192,1.298-0.862,1.298-2.01c0-0.581-0.069-1.019-0.208-1.312  c-0.139-0.294-0.377-0.5-0.714-0.62c-0.336-0.119-0.808-0.188-1.416-0.208c-0.607-0.019-2.578-0.029-5.912-0.029  c-1.123,0-2.021-0.104-2.694-0.312s-1.192-0.54-1.555-0.996c-0.429-0.541-0.644-1.363-0.644-2.465c0-1.222,0.34-2.107,1.02-2.655  c0.33-0.271,0.697-0.475,1.1-0.614c0.402-0.139,0.967-0.251,1.693-0.337c1.195-0.145,2.615-0.218,4.259-0.218  c1.525,0,2.704,0.078,3.536,0.233c0.832,0.155,1.479,0.421,1.941,0.798c0.382,0.31,0.645,0.673,0.787,1.089  c0.142,0.416,0.219,1.056,0.232,1.921h-1.803v-0.208c0-0.66-0.072-1.102-0.217-1.327c-0.212-0.35-0.672-0.6-1.382-0.753  c-0.71-0.152-1.768-0.227-3.174-0.227c-1.75,0-3.063,0.066-3.937,0.198c-0.875,0.132-1.467,0.35-1.778,0.653  c-0.29,0.291-0.436,0.773-0.436,1.447c0,0.607,0.073,1.039,0.218,1.297c0.145,0.257,0.43,0.452,0.852,0.584  c0.614,0.198,1.796,0.304,3.546,0.317c0.594,0.007,2.063,0.014,4.407,0.02c0.971,0.006,1.715,0.099,2.233,0.277  c0.52,0.178,0.943,0.485,1.273,0.921c0.408,0.555,0.613,1.347,0.613,2.377c0,0.984-0.168,1.76-0.505,2.328  c-0.402,0.66-1.15,1.102-2.243,1.327c-1.093,0.225-3.056,0.336-5.889,0.336c-1.498,0-2.603-0.044-3.312-0.133  c-0.71-0.089-1.273-0.253-1.689-0.49c-0.502-0.284-0.848-0.646-1.04-1.085c-0.191-0.439-0.287-1.094-0.287-1.966  C124.195,34.394,124.199,34.193,124.206,33.83z"></path>	<path fill="#231F20" d="M142.407,38.059V24.54h8.557c2.245,0.047,3.599,0.099,4.061,0.159c0.43,0.06,0.824,0.213,1.185,0.46  c0.359,0.248,0.629,0.557,0.807,0.927c0.29,0.593,0.437,1.472,0.437,2.633c0,0.912-0.078,1.63-0.233,2.155  c-0.155,0.525-0.411,0.939-0.768,1.243c-0.363,0.31-0.741,0.519-1.135,0.629c-0.393,0.109-1.002,0.177-1.826,0.203  c-0.297,0.006-1.14,0.013-2.526,0.019h-6.754v5.091H142.407z M144.21,31.384h6.754c1.651-0.006,2.678-0.033,3.081-0.08  c0.402-0.045,0.742-0.181,1.02-0.405c0.204-0.172,0.347-0.411,0.426-0.719c0.08-0.306,0.12-0.774,0.12-1.401  c0-0.693-0.035-1.187-0.105-1.48c-0.069-0.294-0.206-0.52-0.411-0.679c-0.264-0.198-0.595-0.321-0.995-0.371  c-0.399-0.05-1.444-0.091-3.135-0.124h-6.754V31.384z"></path>	<path fill="none" stroke="#231F20" stroke-miterlimit="10" d="M142.407,38.059V24.54h8.557c2.245,0.047,3.599,0.099,4.061,0.159  c0.43,0.06,0.824,0.213,1.185,0.46c0.359,0.248,0.629,0.557,0.807,0.927c0.29,0.593,0.437,1.472,0.437,2.633  c0,0.912-0.078,1.63-0.233,2.155c-0.155,0.525-0.411,0.939-0.768,1.243c-0.363,0.31-0.741,0.519-1.135,0.629  c-0.393,0.109-1.002,0.177-1.826,0.203c-0.297,0.006-1.14,0.013-2.526,0.019h-6.754v5.091H142.407z M144.21,31.384h6.754  c1.651-0.006,2.678-0.033,3.081-0.08c0.402-0.045,0.742-0.181,1.02-0.405c0.204-0.172,0.347-0.411,0.426-0.719  c0.08-0.306,0.12-0.774,0.12-1.401c0-0.693-0.035-1.187-0.105-1.48c-0.069-0.294-0.206-0.52-0.411-0.679  c-0.264-0.198-0.595-0.321-0.995-0.371c-0.399-0.05-1.444-0.091-3.135-0.124h-6.754V31.384z"></path>	<path fill="#231F20" d="M160.352,38.059V24.54h8.429c2.284,0.027,3.743,0.083,4.377,0.169c1.116,0.145,1.888,0.647,2.318,1.505  c0.284,0.575,0.426,1.376,0.426,2.407c0,0.779-0.043,1.371-0.129,1.777c-0.086,0.406-0.238,0.731-0.456,0.976  c-0.351,0.389-0.898,0.664-1.645,0.822c0.581,0.099,1.043,0.324,1.388,0.674c0.257,0.277,0.422,0.607,0.495,0.99  c0.071,0.383,0.108,1.142,0.108,2.278v1.921h-1.802v-1.298c0-1.102-0.024-1.864-0.07-2.287c-0.132-0.858-0.617-1.36-1.456-1.506  c-0.33-0.046-0.626-0.074-0.887-0.084c-0.26-0.009-1.15-0.018-2.668-0.025h-6.626v5.2H160.352z M162.154,31.275h6.626  c1.756,0,2.882-0.025,3.377-0.074c0.495-0.05,0.898-0.174,1.208-0.372c0.462-0.304,0.693-1.05,0.693-2.238  c0-1.024-0.214-1.687-0.644-1.991c-0.277-0.198-0.712-0.327-1.302-0.386c-0.592-0.059-1.703-0.089-3.333-0.089h-6.626V31.275z"></path>	<path fill="none" stroke="#231F20" stroke-miterlimit="10" d="M160.352,38.059V24.54h8.429c2.284,0.027,3.743,0.083,4.377,0.169  c1.116,0.145,1.888,0.647,2.318,1.505c0.284,0.575,0.426,1.376,0.426,2.407c0,0.779-0.043,1.371-0.129,1.777  c-0.086,0.406-0.238,0.731-0.456,0.976c-0.351,0.389-0.898,0.664-1.645,0.822c0.581,0.099,1.043,0.324,1.388,0.674  c0.257,0.277,0.422,0.607,0.495,0.99c0.071,0.383,0.108,1.142,0.108,2.278v1.921h-1.802v-1.298c0-1.102-0.024-1.864-0.07-2.287  c-0.132-0.858-0.617-1.36-1.456-1.506c-0.33-0.046-0.626-0.074-0.887-0.084c-0.26-0.009-1.15-0.018-2.668-0.025h-6.626v5.2H160.352  z M162.154,31.275h6.626c1.756,0,2.882-0.025,3.377-0.074c0.495-0.05,0.898-0.174,1.208-0.372c0.462-0.304,0.693-1.05,0.693-2.238  c0-1.024-0.214-1.687-0.644-1.991c-0.277-0.198-0.712-0.327-1.302-0.386c-0.592-0.059-1.703-0.089-3.333-0.089h-6.626V31.275z"></path>	<rect x="179.217" y="24.54" fill="#231F20" width="1.802" height="13.519"></rect>	<rect x="179.217" y="24.54" fill="none" stroke="#231F20" stroke-miterlimit="10" width="1.802" height="13.519"></rect>	<polygon fill="#231F20" points="184.662,24.54 187.664,24.54 199.509,36.395 199.925,36.395 199.925,24.54 201.727,24.54   201.727,38.059 198.677,38.059 186.861,26.234 186.466,26.234 186.466,38.059 184.662,38.059  "></polygon>	<polygon fill="none" stroke="#231F20" stroke-miterlimit="10" points="184.662,24.54 187.664,24.54 199.509,36.395 199.925,36.395   199.925,24.54 201.727,24.54 201.727,38.059 198.677,38.059 186.861,26.234 186.466,26.234 186.466,38.059 184.662,38.059  "></polygon>	<path fill="#231F20" d="M212.768,31.206h8.864c-0.013,2.093-0.082,3.453-0.208,4.08c-0.138,0.693-0.355,1.215-0.652,1.565  c-0.298,0.35-0.754,0.627-1.367,0.832c-0.832,0.271-2.704,0.406-5.615,0.406c-2.741,0-4.679-0.089-5.814-0.267  c-0.99-0.159-1.707-0.588-2.148-1.288c-0.495-0.786-0.743-2.529-0.743-5.229c0-1.875,0.135-3.338,0.406-4.388  c0.258-0.996,0.87-1.65,1.837-1.961c0.967-0.31,2.867-0.465,5.7-0.465c0.931,0,1.975,0.025,3.135,0.074  c1.158,0.05,1.949,0.104,2.371,0.163c0.865,0.12,1.568,0.453,2.109,1.001c0.323,0.337,0.552,0.727,0.684,1.168  c0.133,0.443,0.205,1.067,0.218,1.872h-1.862c-0.019-1.049-0.165-1.709-0.435-1.98c-0.179-0.172-0.43-0.297-0.753-0.377  c-0.324-0.079-0.839-0.144-1.545-0.198c-0.972-0.066-2.176-0.099-3.615-0.099c-1.895,0-3.258,0.05-4.09,0.149  c-0.832,0.099-1.384,0.277-1.655,0.535c-0.251,0.237-0.424,0.665-0.519,1.282c-0.097,0.618-0.145,1.606-0.145,2.966  c0,2.027,0.082,3.358,0.247,3.992c0.106,0.376,0.271,0.655,0.496,0.837c0.224,0.182,0.561,0.309,1.01,0.381  c0.884,0.138,2.819,0.208,5.805,0.208c1.649,0,2.868-0.066,3.653-0.198c0.713-0.119,1.167-0.378,1.362-0.778  c0.195-0.399,0.302-1.299,0.322-2.699h-7.053V31.206z"></path>	<path fill="none" stroke="#231F20" stroke-miterlimit="10" d="M212.768,31.206h8.864c-0.013,2.093-0.082,3.453-0.208,4.08  c-0.138,0.693-0.355,1.215-0.652,1.565c-0.298,0.35-0.754,0.627-1.367,0.832c-0.832,0.271-2.704,0.406-5.615,0.406  c-2.741,0-4.679-0.089-5.814-0.267c-0.99-0.159-1.707-0.588-2.148-1.288c-0.495-0.786-0.743-2.529-0.743-5.229  c0-1.875,0.135-3.338,0.406-4.388c0.258-0.996,0.87-1.65,1.837-1.961c0.967-0.31,2.867-0.465,5.7-0.465  c0.931,0,1.975,0.025,3.135,0.074c1.158,0.05,1.949,0.104,2.371,0.163c0.865,0.12,1.568,0.453,2.109,1.001  c0.323,0.337,0.552,0.727,0.684,1.168c0.133,0.443,0.205,1.067,0.218,1.872h-1.862c-0.019-1.049-0.165-1.709-0.435-1.98  c-0.179-0.172-0.43-0.297-0.753-0.377c-0.324-0.079-0.839-0.144-1.545-0.198c-0.972-0.066-2.176-0.099-3.615-0.099  c-1.895,0-3.258,0.05-4.09,0.149c-0.832,0.099-1.384,0.277-1.655,0.535c-0.251,0.237-0.424,0.665-0.519,1.282  c-0.097,0.618-0.145,1.606-0.145,2.966c0,2.027,0.082,3.358,0.247,3.992c0.106,0.376,0.271,0.655,0.496,0.837  c0.224,0.182,0.561,0.309,1.01,0.381c0.884,0.138,2.819,0.208,5.805,0.208c1.649,0,2.868-0.066,3.653-0.198  c0.713-0.119,1.167-0.378,1.362-0.778c0.195-0.399,0.302-1.299,0.322-2.699h-7.053V31.206z"></path>	<path fill="#231F20" d="M246.617,38.059l-1.605-2.853h-10.933l-1.615,2.853h-2.04l7.665-13.519h2.882l7.646,13.519H246.617z   M244.151,33.622l-4.211-7.498h-0.723l-4.268,7.498H244.151z"></path>	<path fill="none" stroke="#231F20" stroke-miterlimit="10" d="M246.617,38.059l-1.605-2.853h-10.933l-1.615,2.853h-2.04  l7.665-13.519h2.882l7.646,13.519H246.617z M244.151,33.622l-4.211-7.498h-0.723l-4.268,7.498H244.151z"></path>	<rect x="251.042" y="24.54" fill="#231F20" width="1.803" height="13.519"></rect>	<rect x="251.042" y="24.54" fill="none" stroke="#231F20" stroke-miterlimit="10" width="1.803" height="13.519"></rect>	<path fill="#231F20" d="M256.487,38.059V24.54h8.428c2.285,0.027,3.744,0.083,4.379,0.169c1.115,0.145,1.888,0.647,2.316,1.505  c0.284,0.575,0.426,1.376,0.426,2.407c0,0.779-0.043,1.371-0.128,1.777c-0.086,0.406-0.237,0.731-0.456,0.976  c-0.35,0.389-0.897,0.664-1.644,0.822c0.581,0.099,1.043,0.324,1.386,0.674c0.258,0.277,0.423,0.607,0.496,0.99  c0.072,0.383,0.109,1.142,0.109,2.278v1.921h-1.804v-1.298c0-1.102-0.022-1.864-0.068-2.287c-0.132-0.858-0.618-1.36-1.456-1.506  c-0.33-0.046-0.626-0.074-0.888-0.084c-0.26-0.009-1.149-0.018-2.669-0.025h-6.625v5.2H256.487z M258.29,31.275h6.625  c1.758,0,2.883-0.025,3.379-0.074c0.494-0.05,0.896-0.174,1.208-0.372c0.462-0.304,0.692-1.05,0.692-2.238  c0-1.024-0.214-1.687-0.643-1.991c-0.278-0.198-0.712-0.327-1.304-0.386c-0.591-0.059-1.701-0.089-3.333-0.089h-6.625V31.275z"></path>	<path fill="none" stroke="#231F20" stroke-miterlimit="10" d="M256.487,38.059V24.54h8.428c2.285,0.027,3.744,0.083,4.379,0.169  c1.115,0.145,1.888,0.647,2.316,1.505c0.284,0.575,0.426,1.376,0.426,2.407c0,0.779-0.043,1.371-0.128,1.777  c-0.086,0.406-0.237,0.731-0.456,0.976c-0.35,0.389-0.897,0.664-1.644,0.822c0.581,0.099,1.043,0.324,1.386,0.674  c0.258,0.277,0.423,0.607,0.496,0.99c0.072,0.383,0.109,1.142,0.109,2.278v1.921h-1.804v-1.298c0-1.102-0.022-1.864-0.068-2.287  c-0.132-0.858-0.618-1.36-1.456-1.506c-0.33-0.046-0.626-0.074-0.888-0.084c-0.26-0.009-1.149-0.018-2.669-0.025h-6.625v5.2  H256.487z M258.29,31.275h6.625c1.758,0,2.883-0.025,3.379-0.074c0.494-0.05,0.896-0.174,1.208-0.372  c0.462-0.304,0.692-1.05,0.692-2.238c0-1.024-0.214-1.687-0.643-1.991c-0.278-0.198-0.712-0.327-1.304-0.386  c-0.591-0.059-1.701-0.089-3.333-0.089h-6.625V31.275z"></path>	<polygon fill="#231F20" points="124.582,46.518 127.582,46.518 139.428,58.372 139.844,58.372 139.844,46.518 141.647,46.518   141.647,60.036 138.596,60.036 126.781,48.211 126.384,48.211 126.384,60.036 124.582,60.036  "></polygon>	<polygon fill="none" stroke="#231F20" stroke-miterlimit="10" points="124.582,46.518 127.582,46.518 139.428,58.372   139.844,58.372 139.844,46.518 141.647,46.518 141.647,60.036 138.596,60.036 126.781,48.211 126.384,48.211 126.384,60.036   124.582,60.036  "></polygon>	<polygon fill="#231F20" points="145.299,60.036 145.299,46.518 158.552,46.518 158.552,48.102 147.102,48.102 147.102,52.231   158.065,52.231 158.065,53.816 147.102,53.816 147.102,58.451 158.561,58.451 158.561,60.036  "></polygon>	<polygon fill="none" stroke="#231F20" stroke-miterlimit="10" points="145.299,60.036 145.299,46.518 158.552,46.518   158.552,48.102 147.102,48.102 147.102,52.231 158.065,52.231 158.065,53.816 147.102,53.816 147.102,58.451 158.561,58.451   158.561,60.036  "></polygon>	<polygon fill="#231F20" points="160.46,46.518 175.821,46.518 175.821,48.102 169.058,48.102 169.058,60.036 167.254,60.036   167.254,48.102 160.46,48.102  "></polygon>	<polygon fill="none" stroke="#231F20" stroke-miterlimit="10" points="160.46,46.518 175.821,46.518 175.821,48.102   169.058,48.102 169.058,60.036 167.254,60.036 167.254,48.102 160.46,48.102  "></polygon>	<polygon fill="#231F20" points="177.998,46.518 179.949,46.518 185.418,58.521 185.981,58.521 191.289,46.518 193.527,46.518   198.639,58.521 199.174,58.521 204.788,46.518 206.76,46.518 200.382,60.036 197.342,60.036 192.429,48.479 187.288,60.036   184.198,60.036  "></polygon>	<polygon fill="none" stroke="#231F20" stroke-miterlimit="10" points="177.998,46.518 179.949,46.518 185.418,58.521   185.981,58.521 191.289,46.518 193.527,46.518 198.639,58.521 199.174,58.521 204.788,46.518 206.76,46.518 200.382,60.036   197.342,60.036 192.429,48.479 187.288,60.036 184.198,60.036  "></polygon>	<path fill="#231F20" d="M217.464,46.478c2.312,0,3.94,0.074,4.889,0.223c0.946,0.148,1.638,0.437,2.074,0.866  c0.277,0.271,0.485,0.593,0.625,0.966c0.138,0.373,0.246,0.896,0.325,1.57c0.1,0.852,0.149,1.928,0.149,3.228  c0,1.665-0.078,2.924-0.233,3.779c-0.154,0.854-0.424,1.479-0.807,1.877c-0.396,0.422-1.048,0.711-1.956,0.865  c-0.908,0.155-2.396,0.233-4.462,0.233c-1.017,0-2.145-0.017-3.382-0.049c-1.238-0.034-2.052-0.066-2.442-0.1  c-0.673-0.065-1.204-0.175-1.594-0.326c-0.39-0.153-0.736-0.391-1.04-0.714c-0.403-0.423-0.672-1.017-0.807-1.782  c-0.136-0.767-0.203-2.061-0.203-3.883c0-2.152,0.147-3.68,0.445-4.585c0.356-1.069,1.172-1.7,2.446-1.892  C212.66,46.577,214.651,46.485,217.464,46.478 M216.424,48.102c-1.888,0-3.274,0.076-4.159,0.228  c-0.516,0.086-0.887,0.233-1.114,0.441s-0.388,0.546-0.48,1.015c-0.151,0.753-0.228,1.855-0.228,3.308  c0,1.492,0.041,2.58,0.124,3.264c0.083,0.683,0.232,1.141,0.451,1.372c0.171,0.19,0.419,0.329,0.742,0.416  c0.323,0.086,0.835,0.151,1.534,0.197c1.156,0.079,2.499,0.118,4.031,0.118c2.179,0,3.764-0.088,4.754-0.267  c0.779-0.132,1.241-0.592,1.387-1.376c0.151-0.846,0.229-1.994,0.229-3.447c0-1.776-0.066-3.027-0.199-3.753  c-0.132-0.74-0.643-1.179-1.535-1.318c-0.521-0.079-1.108-0.13-1.763-0.153C219.544,48.123,218.286,48.109,216.424,48.102"></path>	<path fill="none" stroke="#231F20" stroke-miterlimit="10" d="M217.464,46.478c2.312,0,3.94,0.074,4.889,0.223  c0.946,0.148,1.638,0.437,2.074,0.866c0.277,0.271,0.485,0.593,0.625,0.966c0.138,0.373,0.246,0.896,0.325,1.57  c0.1,0.852,0.149,1.928,0.149,3.228c0,1.665-0.078,2.924-0.233,3.779c-0.154,0.854-0.424,1.479-0.807,1.877  c-0.396,0.422-1.048,0.711-1.956,0.865c-0.908,0.155-2.396,0.233-4.462,0.233c-1.017,0-2.145-0.017-3.382-0.049  c-1.238-0.034-2.052-0.066-2.442-0.1c-0.673-0.065-1.204-0.175-1.594-0.326c-0.39-0.153-0.736-0.391-1.04-0.714  c-0.403-0.423-0.672-1.017-0.807-1.782c-0.136-0.767-0.203-2.061-0.203-3.883c0-2.152,0.147-3.68,0.445-4.585  c0.356-1.069,1.172-1.7,2.446-1.892C212.66,46.577,214.651,46.485,217.464,46.478z M216.424,48.102  c-1.888,0-3.274,0.076-4.159,0.228c-0.516,0.086-0.887,0.233-1.114,0.441s-0.388,0.546-0.48,1.015  c-0.151,0.753-0.228,1.855-0.228,3.308c0,1.492,0.041,2.58,0.124,3.264c0.083,0.683,0.232,1.141,0.451,1.372  c0.171,0.19,0.419,0.329,0.742,0.416c0.323,0.086,0.835,0.151,1.534,0.197c1.156,0.079,2.499,0.118,4.031,0.118  c2.179,0,3.764-0.088,4.754-0.267c0.779-0.132,1.241-0.592,1.387-1.376c0.151-0.846,0.229-1.994,0.229-3.447  c0-1.776-0.066-3.027-0.199-3.753c-0.132-0.74-0.643-1.179-1.535-1.318c-0.521-0.079-1.108-0.13-1.763-0.153  C219.544,48.123,218.286,48.109,216.424,48.102z"></path>	<path fill="#231F20" d="M228.902,60.036V46.518h8.428c2.284,0.027,3.744,0.083,4.377,0.169c1.116,0.145,1.889,0.647,2.318,1.505  c0.284,0.575,0.426,1.376,0.426,2.407c0,0.779-0.043,1.371-0.129,1.776c-0.086,0.406-0.238,0.731-0.455,0.977  c-0.35,0.389-0.899,0.664-1.646,0.822c0.581,0.099,1.044,0.323,1.388,0.674c0.258,0.276,0.423,0.606,0.495,0.99  c0.072,0.383,0.108,1.142,0.108,2.277v1.921h-1.802v-1.298c0-1.102-0.024-1.864-0.07-2.287c-0.132-0.857-0.617-1.359-1.456-1.506  c-0.33-0.046-0.625-0.074-0.886-0.084c-0.261-0.009-1.15-0.018-2.669-0.025h-6.626v5.2H228.902z M230.704,53.252h6.626  c1.756,0,2.882-0.024,3.377-0.073c0.496-0.05,0.898-0.174,1.208-0.372c0.462-0.305,0.694-1.05,0.694-2.238  c0-1.024-0.215-1.687-0.645-1.991c-0.277-0.198-0.712-0.327-1.303-0.386c-0.59-0.059-1.702-0.089-3.332-0.089h-6.626V53.252z"></path>	<path fill="none" stroke="#231F20" stroke-miterlimit="10" d="M228.902,60.036V46.518h8.428c2.284,0.027,3.744,0.083,4.377,0.169  c1.116,0.145,1.889,0.647,2.318,1.505c0.284,0.575,0.426,1.376,0.426,2.407c0,0.779-0.043,1.371-0.129,1.776  c-0.086,0.406-0.238,0.731-0.455,0.977c-0.35,0.389-0.899,0.664-1.646,0.822c0.581,0.099,1.044,0.323,1.388,0.674  c0.258,0.276,0.423,0.606,0.495,0.99c0.072,0.383,0.108,1.142,0.108,2.277v1.921h-1.802v-1.298c0-1.102-0.024-1.864-0.07-2.287  c-0.132-0.857-0.617-1.359-1.456-1.506c-0.33-0.046-0.625-0.074-0.886-0.084c-0.261-0.009-1.15-0.018-2.669-0.025h-6.626v5.2  H228.902z M230.704,53.252h6.626c1.756,0,2.882-0.024,3.377-0.073c0.496-0.05,0.898-0.174,1.208-0.372  c0.462-0.305,0.694-1.05,0.694-2.238c0-1.024-0.215-1.687-0.645-1.991c-0.277-0.198-0.712-0.327-1.303-0.386  c-0.59-0.059-1.702-0.089-3.332-0.089h-6.626V53.252z"></path>	<polygon fill="#231F20" points="247.768,46.518 249.57,46.518 249.57,52.331 251.917,52.331 260.681,46.518 263.841,46.518   253.788,53.113 264.366,60.036 261.177,60.036 251.917,53.915 249.57,53.915 249.57,60.036 247.768,60.036  "></polygon>	<polygon fill="none" stroke="#231F20" stroke-miterlimit="10" points="247.768,46.518 249.57,46.518 249.57,52.331 251.917,52.331   260.681,46.518 263.841,46.518 253.788,53.113 264.366,60.036 261.177,60.036 251.917,53.915 249.57,53.915 249.57,60.036   247.768,60.036  "></polygon>	<path fill="#231F20" d="M124.206,77.787h1.753c0,0.152,0.003,0.251,0.01,0.297c0.013,0.759,0.068,1.269,0.163,1.525  c0.096,0.258,0.306,0.456,0.629,0.595c0.502,0.217,2.143,0.327,4.923,0.327c2.013,0,3.459-0.101,4.337-0.298  c0.865-0.192,1.298-0.862,1.298-2.011c0-0.58-0.069-1.019-0.208-1.312c-0.139-0.294-0.377-0.5-0.714-0.62  c-0.336-0.119-0.808-0.188-1.416-0.208c-0.607-0.019-2.578-0.029-5.912-0.029c-1.123,0-2.021-0.104-2.694-0.312  s-1.192-0.54-1.555-0.996c-0.429-0.541-0.644-1.363-0.644-2.465c0-1.222,0.34-2.107,1.02-2.655c0.33-0.271,0.697-0.475,1.1-0.614  c0.402-0.139,0.967-0.251,1.693-0.337c1.195-0.145,2.615-0.218,4.259-0.218c1.525,0,2.704,0.078,3.536,0.233  c0.832,0.154,1.479,0.421,1.941,0.798c0.382,0.31,0.645,0.673,0.787,1.089c0.142,0.416,0.219,1.056,0.232,1.921h-1.803V72.29  c0-0.66-0.072-1.102-0.217-1.327c-0.212-0.35-0.672-0.6-1.382-0.753c-0.71-0.151-1.768-0.227-3.174-0.227  c-1.75,0-3.063,0.065-3.937,0.197c-0.875,0.133-1.467,0.351-1.778,0.653c-0.29,0.291-0.436,0.773-0.436,1.447  c0,0.606,0.073,1.039,0.218,1.297c0.145,0.257,0.43,0.452,0.852,0.584c0.614,0.198,1.796,0.304,3.546,0.317  c0.594,0.007,2.063,0.014,4.407,0.02c0.971,0.006,1.715,0.099,2.233,0.277c0.52,0.178,0.943,0.484,1.273,0.921  c0.408,0.555,0.613,1.347,0.613,2.377c0,0.984-0.168,1.76-0.505,2.328c-0.402,0.66-1.15,1.102-2.243,1.327  c-1.093,0.225-3.056,0.336-5.889,0.336c-1.498,0-2.603-0.044-3.312-0.134c-0.71-0.089-1.273-0.253-1.689-0.489  c-0.502-0.284-0.848-0.646-1.04-1.085c-0.191-0.439-0.287-1.095-0.287-1.966C124.195,78.352,124.199,78.15,124.206,77.787"></path>	<path fill="none" stroke="#231F20" stroke-miterlimit="10" d="M124.206,77.787h1.753c0,0.152,0.003,0.251,0.01,0.297  c0.013,0.759,0.068,1.269,0.163,1.525c0.096,0.258,0.306,0.456,0.629,0.595c0.502,0.217,2.143,0.327,4.923,0.327  c2.013,0,3.459-0.101,4.337-0.298c0.865-0.192,1.298-0.862,1.298-2.011c0-0.58-0.069-1.019-0.208-1.312  c-0.139-0.294-0.377-0.5-0.714-0.62c-0.336-0.119-0.808-0.188-1.416-0.208c-0.607-0.019-2.578-0.029-5.912-0.029  c-1.123,0-2.021-0.104-2.694-0.312s-1.192-0.54-1.555-0.996c-0.429-0.541-0.644-1.363-0.644-2.465c0-1.222,0.34-2.107,1.02-2.655  c0.33-0.271,0.697-0.475,1.1-0.614c0.402-0.139,0.967-0.251,1.693-0.337c1.195-0.145,2.615-0.218,4.259-0.218  c1.525,0,2.704,0.078,3.536,0.233c0.832,0.154,1.479,0.421,1.941,0.798c0.382,0.31,0.645,0.673,0.787,1.089  c0.142,0.416,0.219,1.056,0.232,1.921h-1.803V72.29c0-0.66-0.072-1.102-0.217-1.327c-0.212-0.35-0.672-0.6-1.382-0.753  c-0.71-0.151-1.768-0.227-3.174-0.227c-1.75,0-3.063,0.065-3.937,0.197c-0.875,0.133-1.467,0.351-1.778,0.653  c-0.29,0.291-0.436,0.773-0.436,1.447c0,0.606,0.073,1.039,0.218,1.297c0.145,0.257,0.43,0.452,0.852,0.584  c0.614,0.198,1.796,0.304,3.546,0.317c0.594,0.007,2.063,0.014,4.407,0.02c0.971,0.006,1.715,0.099,2.233,0.277  c0.52,0.178,0.943,0.484,1.273,0.921c0.408,0.555,0.613,1.347,0.613,2.377c0,0.984-0.168,1.76-0.505,2.328  c-0.402,0.66-1.15,1.102-2.243,1.327c-1.093,0.225-3.056,0.336-5.889,0.336c-1.498,0-2.603-0.044-3.312-0.134  c-0.71-0.089-1.273-0.253-1.689-0.489c-0.502-0.284-0.848-0.646-1.04-1.085c-0.191-0.439-0.287-1.095-0.287-1.966  C124.195,78.352,124.199,78.15,124.206,77.787z"></path>	<path fill="#231F20" d="M151.004,68.458c2.311,0,3.939,0.073,4.888,0.223c0.947,0.147,1.64,0.437,2.075,0.866  c0.277,0.271,0.485,0.593,0.624,0.966c0.138,0.373,0.247,0.896,0.326,1.57c0.099,0.852,0.148,1.928,0.148,3.228  c0,1.665-0.077,2.924-0.232,3.779c-0.155,0.854-0.424,1.479-0.808,1.877c-0.396,0.422-1.048,0.711-1.956,0.866  c-0.907,0.154-2.395,0.232-4.462,0.232c-1.016,0-2.144-0.017-3.382-0.049c-1.237-0.034-2.051-0.066-2.44-0.1  c-0.675-0.065-1.205-0.175-1.596-0.326c-0.389-0.153-0.735-0.391-1.04-0.714c-0.401-0.423-0.672-1.017-0.807-1.782  c-0.135-0.767-0.203-2.061-0.203-3.883c0-2.152,0.149-3.681,0.446-4.585c0.355-1.069,1.172-1.7,2.446-1.893  C146.201,68.557,148.191,68.465,151.004,68.458 M149.964,70.081c-1.888,0-3.275,0.076-4.16,0.229  c-0.514,0.086-0.886,0.233-1.114,0.441c-0.227,0.208-0.388,0.546-0.479,1.015c-0.152,0.753-0.229,1.854-0.229,3.308  c0,1.492,0.041,2.58,0.124,3.264c0.083,0.683,0.233,1.141,0.451,1.372c0.171,0.19,0.419,0.329,0.743,0.416  c0.323,0.086,0.835,0.151,1.535,0.197c1.155,0.079,2.499,0.118,4.03,0.118c2.179,0,3.764-0.088,4.754-0.267  c0.778-0.132,1.241-0.591,1.387-1.376c0.152-0.846,0.228-1.994,0.228-3.447c0-1.776-0.065-3.027-0.197-3.753  c-0.133-0.74-0.645-1.179-1.535-1.318c-0.522-0.079-1.11-0.13-1.765-0.152C153.084,70.103,151.826,70.089,149.964,70.081"></path>	<path fill="none" stroke="#231F20" stroke-miterlimit="10" d="M151.004,68.458c2.311,0,3.939,0.073,4.888,0.223  c0.947,0.147,1.64,0.437,2.075,0.866c0.277,0.271,0.485,0.593,0.624,0.966c0.138,0.373,0.247,0.896,0.326,1.57  c0.099,0.852,0.148,1.928,0.148,3.228c0,1.665-0.077,2.924-0.232,3.779c-0.155,0.854-0.424,1.479-0.808,1.877  c-0.396,0.422-1.048,0.711-1.956,0.866c-0.907,0.154-2.395,0.232-4.462,0.232c-1.016,0-2.144-0.017-3.382-0.049  c-1.237-0.034-2.051-0.066-2.44-0.1c-0.675-0.065-1.205-0.175-1.596-0.326c-0.389-0.153-0.735-0.391-1.04-0.714  c-0.401-0.423-0.672-1.017-0.807-1.782c-0.135-0.767-0.203-2.061-0.203-3.883c0-2.152,0.149-3.681,0.446-4.585  c0.355-1.069,1.172-1.7,2.446-1.893C146.201,68.557,148.191,68.465,151.004,68.458z M149.964,70.081  c-1.888,0-3.275,0.076-4.16,0.229c-0.514,0.086-0.886,0.233-1.114,0.441c-0.227,0.208-0.388,0.546-0.479,1.015  c-0.152,0.753-0.229,1.854-0.229,3.308c0,1.492,0.041,2.58,0.124,3.264c0.083,0.683,0.233,1.141,0.451,1.372  c0.171,0.19,0.419,0.329,0.743,0.416c0.323,0.086,0.835,0.151,1.535,0.197c1.155,0.079,2.499,0.118,4.03,0.118  c2.179,0,3.764-0.088,4.754-0.267c0.778-0.132,1.241-0.591,1.387-1.376c0.152-0.846,0.228-1.994,0.228-3.447  c0-1.776-0.065-3.027-0.197-3.753c-0.133-0.74-0.645-1.179-1.535-1.318c-0.522-0.079-1.11-0.13-1.765-0.152  C153.084,70.103,151.826,70.089,149.964,70.081z"></path>	<polygon fill="#231F20" points="162.441,68.497 164.243,68.497 164.243,80.431 174.92,80.431 174.92,82.016 162.441,82.016  "></polygon>	<polygon fill="none" stroke="#231F20" stroke-miterlimit="10" points="162.441,68.497 164.243,68.497 164.243,80.431   174.92,80.431 174.92,82.016 162.441,82.016  "></polygon>	<path fill="#231F20" d="M177.484,68.497h1.802v6.646c0,1.962,0.02,3.144,0.06,3.546c0.052,0.516,0.201,0.889,0.446,1.118  c0.244,0.232,0.649,0.384,1.218,0.456c0.938,0.112,2.287,0.168,4.05,0.168c2.417,0,4.081-0.071,4.992-0.218  c0.541-0.086,0.923-0.252,1.145-0.5c0.221-0.247,0.348-0.652,0.381-1.213c0.033-0.508,0.056-1.628,0.069-3.357v-6.646h1.803v6.646  c-0.014,1.803-0.046,3.048-0.1,3.733c-0.119,1.176-0.552,1.995-1.298,2.456c-0.462,0.278-1.022,0.453-1.683,0.525  s-2.288,0.139-4.883,0.198c-2.277-0.033-3.642-0.061-4.091-0.085c-0.448-0.022-0.94-0.09-1.476-0.203  c-0.891-0.19-1.545-0.692-1.961-1.505c-0.198-0.396-0.322-0.87-0.371-1.421c-0.05-0.552-0.085-1.784-0.104-3.699V68.497z"></path>	<path fill="none" stroke="#231F20" stroke-miterlimit="10" d="M177.484,68.497h1.802v6.646c0,1.962,0.02,3.144,0.06,3.546  c0.052,0.516,0.201,0.889,0.446,1.118c0.244,0.232,0.649,0.384,1.218,0.456c0.938,0.112,2.287,0.168,4.05,0.168  c2.417,0,4.081-0.071,4.992-0.218c0.541-0.086,0.923-0.252,1.145-0.5c0.221-0.247,0.348-0.652,0.381-1.213  c0.033-0.508,0.056-1.628,0.069-3.357v-6.646h1.803v6.646c-0.014,1.803-0.046,3.048-0.1,3.733  c-0.119,1.176-0.552,1.995-1.298,2.456c-0.462,0.278-1.022,0.453-1.683,0.525s-2.288,0.139-4.883,0.198  c-2.277-0.033-3.642-0.061-4.091-0.085c-0.448-0.022-0.94-0.09-1.476-0.203c-0.891-0.19-1.545-0.692-1.961-1.505  c-0.198-0.396-0.322-0.87-0.371-1.421c-0.05-0.552-0.085-1.784-0.104-3.699V68.497z"></path>	<polygon fill="#231F20" points="195.953,68.497 211.314,68.497 211.314,70.081 204.55,70.081 204.55,82.016 202.747,82.016   202.747,70.081 195.953,70.081  "></polygon>	<polygon fill="none" stroke="#231F20" stroke-miterlimit="10" points="195.953,68.497 211.314,68.497 211.314,70.081   204.55,70.081 204.55,82.016 202.747,82.016 202.747,70.081 195.953,70.081  "></polygon>	<rect x="213.947" y="68.497" fill="#231F20" width="1.803" height="13.52"></rect>	<rect x="213.947" y="68.497" fill="none" stroke="#231F20" stroke-miterlimit="10" width="1.803" height="13.52"></rect>	<path fill="#231F20" d="M227.988,68.458c2.312,0,3.941,0.073,4.888,0.223c0.948,0.147,1.64,0.437,2.075,0.866  c0.278,0.271,0.486,0.593,0.625,0.966c0.138,0.373,0.247,0.896,0.326,1.57c0.099,0.852,0.148,1.928,0.148,3.228  c0,1.665-0.077,2.924-0.232,3.779c-0.156,0.854-0.425,1.479-0.808,1.877c-0.396,0.422-1.049,0.711-1.955,0.866  c-0.908,0.154-2.396,0.232-4.463,0.232c-1.017,0-2.144-0.017-3.382-0.049c-1.237-0.034-2.052-0.066-2.441-0.1  c-0.674-0.065-1.205-0.175-1.595-0.326c-0.39-0.153-0.735-0.391-1.04-0.714c-0.402-0.423-0.672-1.017-0.807-1.782  c-0.135-0.767-0.203-2.061-0.203-3.883c0-2.152,0.148-3.681,0.446-4.585c0.355-1.069,1.172-1.7,2.446-1.893  C223.186,68.557,225.176,68.465,227.988,68.458 M226.949,70.081c-1.889,0-3.275,0.076-4.16,0.229  c-0.515,0.086-0.886,0.233-1.114,0.441c-0.227,0.208-0.388,0.546-0.479,1.015c-0.152,0.753-0.229,1.854-0.229,3.308  c0,1.492,0.041,2.58,0.124,3.264c0.082,0.683,0.233,1.141,0.45,1.372c0.172,0.19,0.42,0.329,0.743,0.416  c0.324,0.086,0.835,0.151,1.535,0.197c1.155,0.079,2.499,0.118,4.031,0.118c2.179,0,3.763-0.088,4.754-0.267  c0.778-0.132,1.24-0.591,1.387-1.376c0.151-0.846,0.228-1.994,0.228-3.447c0-1.776-0.066-3.027-0.198-3.753  c-0.132-0.74-0.645-1.179-1.535-1.318c-0.521-0.079-1.109-0.13-1.763-0.152C230.069,70.103,228.812,70.089,226.949,70.081"></path>	<path fill="none" stroke="#231F20" stroke-miterlimit="10" d="M227.988,68.458c2.312,0,3.941,0.073,4.888,0.223  c0.948,0.147,1.64,0.437,2.075,0.866c0.278,0.271,0.486,0.593,0.625,0.966c0.138,0.373,0.247,0.896,0.326,1.57  c0.099,0.852,0.148,1.928,0.148,3.228c0,1.665-0.077,2.924-0.232,3.779c-0.156,0.854-0.425,1.479-0.808,1.877  c-0.396,0.422-1.049,0.711-1.955,0.866c-0.908,0.154-2.396,0.232-4.463,0.232c-1.017,0-2.144-0.017-3.382-0.049  c-1.237-0.034-2.052-0.066-2.441-0.1c-0.674-0.065-1.205-0.175-1.595-0.326c-0.39-0.153-0.735-0.391-1.04-0.714  c-0.402-0.423-0.672-1.017-0.807-1.782c-0.135-0.767-0.203-2.061-0.203-3.883c0-2.152,0.148-3.681,0.446-4.585  c0.355-1.069,1.172-1.7,2.446-1.893C223.186,68.557,225.176,68.465,227.988,68.458z M226.949,70.081  c-1.889,0-3.275,0.076-4.16,0.229c-0.515,0.086-0.886,0.233-1.114,0.441c-0.227,0.208-0.388,0.546-0.479,1.015  c-0.152,0.753-0.229,1.854-0.229,3.308c0,1.492,0.041,2.58,0.124,3.264c0.082,0.683,0.233,1.141,0.45,1.372  c0.172,0.19,0.42,0.329,0.743,0.416c0.324,0.086,0.835,0.151,1.535,0.197c1.155,0.079,2.499,0.118,4.031,0.118  c2.179,0,3.763-0.088,4.754-0.267c0.778-0.132,1.24-0.591,1.387-1.376c0.151-0.846,0.228-1.994,0.228-3.447  c0-1.776-0.066-3.027-0.198-3.753c-0.132-0.74-0.645-1.179-1.535-1.318c-0.521-0.079-1.109-0.13-1.763-0.152  C230.069,70.103,228.812,70.089,226.949,70.081z"></path>	<polygon fill="#231F20" points="239.426,68.497 242.427,68.497 254.272,80.352 254.688,80.352 254.688,68.497 256.491,68.497   256.491,82.016 253.44,82.016 241.625,70.191 241.229,70.191 241.229,82.016 239.426,82.016  "></polygon>	<polygon fill="none" stroke="#231F20" stroke-miterlimit="10" points="239.426,68.497 242.427,68.497 254.272,80.352   254.688,80.352 254.688,68.497 256.491,68.497 256.491,82.016 253.44,82.016 241.625,70.191 241.229,70.191 241.229,82.016   239.426,82.016  "></polygon>	<path fill="#231F20" d="M259.768,77.787h1.753c0,0.152,0.003,0.251,0.01,0.297c0.014,0.759,0.068,1.269,0.163,1.525  c0.097,0.258,0.306,0.456,0.629,0.595c0.502,0.217,2.144,0.327,4.922,0.327c2.015,0,3.461-0.101,4.339-0.298  c0.864-0.192,1.298-0.862,1.298-2.011c0-0.58-0.07-1.019-0.208-1.312c-0.14-0.294-0.377-0.5-0.714-0.62  c-0.336-0.119-0.809-0.188-1.416-0.208c-0.607-0.019-2.578-0.029-5.912-0.029c-1.123,0-2.021-0.104-2.694-0.312  s-1.192-0.54-1.555-0.996c-0.43-0.541-0.645-1.363-0.645-2.465c0-1.222,0.34-2.107,1.021-2.655c0.33-0.271,0.697-0.475,1.099-0.614  c0.403-0.139,0.968-0.251,1.694-0.337c1.195-0.145,2.615-0.218,4.259-0.218c1.525,0,2.704,0.078,3.536,0.233  c0.832,0.154,1.479,0.421,1.939,0.798c0.385,0.31,0.646,0.673,0.788,1.089c0.143,0.416,0.22,1.056,0.233,1.921h-1.803V72.29  c0-0.66-0.072-1.102-0.219-1.327c-0.211-0.35-0.671-0.6-1.381-0.753c-0.71-0.151-1.768-0.227-3.175-0.227  c-1.749,0-3.061,0.065-3.936,0.197c-0.875,0.133-1.469,0.351-1.778,0.653c-0.291,0.291-0.436,0.773-0.436,1.447  c0,0.606,0.072,1.039,0.218,1.297c0.145,0.257,0.429,0.452,0.852,0.584c0.614,0.198,1.796,0.304,3.545,0.317  c0.596,0.007,2.064,0.014,4.408,0.02c0.97,0.006,1.715,0.099,2.233,0.277c0.518,0.178,0.941,0.484,1.272,0.921  c0.409,0.555,0.613,1.347,0.613,2.377c0,0.984-0.167,1.76-0.504,2.328c-0.403,0.66-1.151,1.102-2.244,1.327  c-1.092,0.225-3.055,0.336-5.887,0.336c-1.499,0-2.604-0.044-3.313-0.134c-0.71-0.089-1.272-0.253-1.688-0.489  c-0.502-0.284-0.849-0.646-1.04-1.085c-0.192-0.439-0.287-1.095-0.287-1.966C259.758,78.352,259.761,78.15,259.768,77.787"></path>	<path fill="none" stroke="#231F20" stroke-miterlimit="10" d="M259.768,77.787h1.753c0,0.152,0.003,0.251,0.01,0.297  c0.014,0.759,0.068,1.269,0.163,1.525c0.097,0.258,0.306,0.456,0.629,0.595c0.502,0.217,2.144,0.327,4.922,0.327  c2.015,0,3.461-0.101,4.339-0.298c0.864-0.192,1.298-0.862,1.298-2.011c0-0.58-0.07-1.019-0.208-1.312  c-0.14-0.294-0.377-0.5-0.714-0.62c-0.336-0.119-0.809-0.188-1.416-0.208c-0.607-0.019-2.578-0.029-5.912-0.029  c-1.123,0-2.021-0.104-2.694-0.312s-1.192-0.54-1.555-0.996c-0.43-0.541-0.645-1.363-0.645-2.465c0-1.222,0.34-2.107,1.021-2.655  c0.33-0.271,0.697-0.475,1.099-0.614c0.403-0.139,0.968-0.251,1.694-0.337c1.195-0.145,2.615-0.218,4.259-0.218  c1.525,0,2.704,0.078,3.536,0.233c0.832,0.154,1.479,0.421,1.939,0.798c0.385,0.31,0.646,0.673,0.788,1.089  c0.143,0.416,0.22,1.056,0.233,1.921h-1.803V72.29c0-0.66-0.072-1.102-0.219-1.327c-0.211-0.35-0.671-0.6-1.381-0.753  c-0.71-0.151-1.768-0.227-3.175-0.227c-1.749,0-3.061,0.065-3.936,0.197c-0.875,0.133-1.469,0.351-1.778,0.653  c-0.291,0.291-0.436,0.773-0.436,1.447c0,0.606,0.072,1.039,0.218,1.297c0.145,0.257,0.429,0.452,0.852,0.584  c0.614,0.198,1.796,0.304,3.545,0.317c0.596,0.007,2.064,0.014,4.408,0.02c0.97,0.006,1.715,0.099,2.233,0.277  c0.518,0.178,0.941,0.484,1.272,0.921c0.409,0.555,0.613,1.347,0.613,2.377c0,0.984-0.167,1.76-0.504,2.328  c-0.403,0.66-1.151,1.102-2.244,1.327c-1.092,0.225-3.055,0.336-5.887,0.336c-1.499,0-2.604-0.044-3.313-0.134  c-0.71-0.089-1.272-0.253-1.688-0.489c-0.502-0.284-0.849-0.646-1.04-1.085c-0.192-0.439-0.287-1.095-0.287-1.966  C259.758,78.352,259.761,78.15,259.768,77.787z"></path>	<rect x="106.39" y="4.119" fill="#231F20" width="2" height="100.001"></rect>	<path fill="#2832FF" d="M64.912,18.586c-1.586-1.585-1.586-4.156,0-5.741c1.587-1.589,4.157-1.589,5.744,0  c1.585,1.585,1.585,4.156,0,5.741C69.068,20.172,66.499,20.172,64.912,18.586"></path>	<path fill="#2832FF" d="M10.839,72.659c-1.585-1.586-1.585-4.156,0-5.741c1.586-1.588,4.157-1.588,5.742-0.002  c1.586,1.587,1.586,4.157,0,5.743C14.996,74.246,12.425,74.246,10.839,72.659"></path>	<path fill="#2832FF" d="M76.565,6.933c-1.586-1.586-1.586-4.156,0-5.744c1.586-1.585,4.158-1.585,5.743,0  c1.586,1.588,1.586,4.157,0.001,5.744C80.724,8.518,78.151,8.518,76.565,6.933"></path>	<path fill="#2832FF" d="M12.449,32.488c-1.587-1.585-1.587-4.155,0-5.741c1.585-1.588,4.156-1.587,5.742-0.002  c1.586,1.588,1.586,4.158,0,5.743C16.604,34.075,14.034,34.075,12.449,32.488"></path>			<rect x="25.435" y="4.55" transform="matrix(0.7074 0.7069 -0.7069 0.7074 20.8188 -13.26)" fill="#2832FF" width="1.978" height="27.927"></rect>	<path fill="#00D2FF" d="M33.424,11.513c-1.586-1.587-1.586-4.157,0.001-5.743c1.586-1.588,4.156-1.588,5.742,0  c1.586,1.586,1.586,4.156,0,5.743C37.581,13.098,35.011,13.098,33.424,11.513"></path>	<path fill="#2832FF" d="M88.61,32.029c1.586,1.587,1.587,4.158,0,5.744c-1.584,1.585-4.156,1.585-5.744,0  c-1.584-1.586-1.584-4.157,0-5.744C84.454,30.443,87.026,30.443,88.61,32.029"></path>	<path fill="#2832FF" d="M67.012,53.627c1.586,1.587,1.587,4.159,0,5.744c-1.585,1.586-4.156,1.586-5.744,0  c-1.584-1.585-1.584-4.157,0-5.744C62.856,52.042,65.427,52.041,67.012,53.627"></path>			<rect x="67.295" y="29.411" transform="matrix(0.7077 0.7065 -0.7065 0.7077 56.9476 -32.9389)" fill="#2832FF" width="1.977" height="45.893"></rect>	<path fill="#00D2FF" d="M56.366,64.275c2.377,2.382,2.378,6.234,0,8.614c-2.38,2.38-6.235,2.38-8.614,0  c-2.379-2.38-2.379-6.232,0-8.614C50.131,61.897,53.986,61.897,56.366,64.275"></path>	<path fill="#2832FF" d="M64.584,45.921l-2.384-3.59c0.526-0.968,0.948-1.988,1.258-3.047l4.229-0.852  c0.339-0.071,0.583-0.368,0.585-0.715v-5.614c0-0.347-0.246-0.646-0.585-0.716l-4.229-0.851c-0.31-1.058-0.732-2.079-1.258-3.047  l2.382-3.588c0.192-0.291,0.154-0.674-0.093-0.921l-3.97-3.97c-0.245-0.246-0.63-0.284-0.921-0.094l-3.586,2.382  c-0.968-0.526-1.99-0.948-3.047-1.258l-0.853-4.228c-0.068-0.341-0.367-0.586-0.716-0.586l-5.611-0.001  c-0.347,0.001-0.646,0.246-0.716,0.587l-0.852,4.228c-1.057,0.31-2.08,0.731-3.047,1.258l-3.589-2.382  c-0.29-0.194-0.674-0.154-0.92,0.091l-3.969,3.971c-0.247,0.246-0.285,0.631-0.094,0.921l2.382,3.587  c-0.527,0.967-0.949,1.989-1.259,3.048l-4.228,0.851c-0.342,0.07-0.584,0.369-0.586,0.717v5.612  c0.001,0.347,0.244,0.645,0.586,0.715l4.228,0.853c0.31,1.057,0.732,2.077,1.259,3.046l-2.384,3.59  c-0.194,0.29-0.154,0.675,0.093,0.921l3.969,3.969c0.246,0.246,0.63,0.285,0.921,0.094l3.587-2.383  c0.969,0.526,1.991,0.947,3.048,1.258l0.853,4.228c0.069,0.341,0.368,0.584,0.715,0.586l5.612-0.001  c0.348-0.001,0.647-0.244,0.716-0.585l0.853-4.228c1.057-0.31,2.078-0.732,3.045-1.259l3.59,2.385  c0.291,0.192,0.676,0.154,0.922-0.093l3.969-3.97C64.735,46.595,64.774,46.21,64.584,45.921 M41.458,42.04  c-3.938-3.938-3.939-10.325,0-14.264c3.939-3.938,10.325-3.938,14.263,0c3.931,3.942,3.931,10.322,0,14.264  C51.783,45.979,45.397,45.979,41.458,42.04"></path>	<path fill="#2832FF" d="M56.864,25.235L78.737,3.362l1.399,1.398L58.273,26.624C57.838,26.126,57.372,25.66,56.864,25.235   M39.144,42.956L12.378,69.723l1.398,1.397l26.756-26.755C40.035,43.931,39.567,43.463,39.144,42.956"></path>	<path fill="#00D2FF" d="M19.207,64.292c-2.372-2.371-2.371-6.216,0.001-8.587c2.371-2.37,6.213-2.37,8.585,0  c2.371,2.371,2.371,6.216,0,8.587C25.42,66.662,21.578,66.662,19.207,64.292"></path>	<path fill="#231F20" d="M0,91.859h4.778c-0.007,0.799,0.155,1.313,0.487,1.541c0.236,0.15,0.543,0.239,0.919,0.268  c0.375,0.028,1.559,0.049,3.551,0.064c2.087-0.008,3.339-0.021,3.759-0.041c0.419-0.02,0.75-0.081,0.995-0.184  c0.364-0.15,0.546-0.557,0.546-1.221c0-0.483-0.129-0.806-0.386-0.968c-0.257-0.161-0.78-0.251-1.57-0.267  c-0.61,0-1.898-0.047-3.866-0.142c-2.016-0.096-3.328-0.15-3.937-0.166c-1.185-0.039-2.096-0.152-2.733-0.338  C1.907,90.221,1.411,89.92,1.055,89.5c-0.608-0.695-0.913-1.857-0.913-3.486c0-1.826,0.348-3.114,1.044-3.865  c0.529-0.585,1.344-0.958,2.442-1.121c1.099-0.161,3.332-0.242,6.7-0.242c2.378,0,4.05,0.067,5.015,0.202  c1.486,0.205,2.506,0.617,3.059,1.238c0.554,0.62,0.83,1.666,0.83,3.137c0,0.135-0.004,0.388-0.012,0.759h-4.778  c-0.016-0.45-0.053-0.759-0.112-0.925c-0.06-0.166-0.177-0.301-0.351-0.403c-0.213-0.126-0.588-0.207-1.126-0.243  s-1.676-0.053-3.415-0.053c-2.095,0-3.371,0.064-3.83,0.194C5.15,84.823,4.92,85.184,4.92,85.776c0,0.569,0.23,0.917,0.688,1.043  c0.38,0.104,2.123,0.202,5.229,0.298c2.617,0.079,4.366,0.172,5.247,0.278c0.881,0.107,1.583,0.311,2.105,0.61  c0.593,0.356,1.012,0.844,1.257,1.464c0.244,0.621,0.367,1.512,0.367,2.674c0,1.526-0.206,2.66-0.616,3.404  c-0.309,0.544-0.738,0.952-1.287,1.221c-0.549,0.269-1.322,0.45-2.318,0.545c-1.067,0.096-3.055,0.143-5.964,0.143  c-2.435,0-4.233-0.063-5.395-0.19c-1.162-0.126-2.035-0.351-2.62-0.676c-0.609-0.347-1.03-0.806-1.263-1.375S0,93.781,0,92.619  V91.859z"></path>	<path fill="#231F20" d="M39.081,97.219l-1.387-2.738H26.986L25.6,97.219h-5.632l8.584-16.185h7.66l8.466,16.185H39.081z   M35.962,90.935l-3.118-6.13h-0.985l-3.118,6.13H35.962z"></path>	<polygon fill="#231F20" points="45.413,81.034 54.056,81.034 62.534,93.104 63.043,93.104 62.926,81.034 67.94,81.034   67.94,97.219 59.369,97.219 50.854,85.148 50.322,85.148 50.429,97.219 45.413,97.219  "></polygon>	<path fill="#231F20" d="M69.636,91.859h4.778c-0.007,0.799,0.155,1.313,0.487,1.541c0.237,0.15,0.543,0.239,0.919,0.268  c0.375,0.028,1.559,0.049,3.55,0.064c2.087-0.008,3.34-0.021,3.759-0.041c0.419-0.02,0.751-0.081,0.996-0.184  c0.363-0.15,0.546-0.557,0.546-1.221c0-0.483-0.129-0.806-0.386-0.968c-0.256-0.161-0.78-0.251-1.571-0.267  c-0.608,0-1.897-0.047-3.865-0.142c-2.016-0.096-3.328-0.15-3.937-0.166c-1.185-0.039-2.096-0.152-2.733-0.338  c-0.636-0.187-1.132-0.487-1.487-0.907c-0.61-0.695-0.913-1.857-0.913-3.486c0-1.826,0.347-3.114,1.043-3.865  c0.529-0.585,1.343-0.958,2.442-1.121c1.099-0.161,3.332-0.242,6.7-0.242c2.379,0,4.051,0.067,5.015,0.202  c1.486,0.205,2.506,0.617,3.059,1.238c0.553,0.62,0.83,1.666,0.83,3.137c0,0.135-0.004,0.388-0.012,0.759h-4.778  c-0.016-0.45-0.053-0.759-0.113-0.925c-0.059-0.166-0.176-0.301-0.35-0.403c-0.213-0.126-0.588-0.207-1.126-0.243  s-1.676-0.053-3.415-0.053c-2.094,0-3.371,0.064-3.83,0.194c-0.458,0.132-0.687,0.492-0.687,1.085c0,0.569,0.229,0.917,0.687,1.043  c0.38,0.104,2.123,0.202,5.229,0.298c2.617,0.079,4.366,0.172,5.247,0.278c0.881,0.107,1.583,0.311,2.104,0.61  c0.593,0.356,1.012,0.844,1.257,1.464c0.245,0.621,0.368,1.512,0.368,2.674c0,1.526-0.206,2.66-0.617,3.404  c-0.307,0.544-0.737,0.952-1.286,1.221c-0.55,0.269-1.322,0.45-2.318,0.545c-1.067,0.096-3.055,0.143-5.964,0.143  c-2.435,0-4.233-0.063-5.395-0.19c-1.162-0.126-2.036-0.351-2.621-0.676c-0.608-0.347-1.029-0.806-1.262-1.375  s-0.35-1.434-0.35-2.596V91.859z"></path></g></svg>