<?xml version="1.0" encoding="UTF-8"?> <svg xmlns="http://www.w3.org/2000/svg" width="79" height="79" viewBox="0 0 79 79" fill="none"><path d="M73.3317 45.4498C70.2486 45.4498 67.6654 42.8882 67.6654 39.7477C67.6654 36.6904 70.2486 34.0457 73.3317 34.0457C76.4985 34.0457 78.998 36.6073 78.998 39.7477C79.0817 42.9705 76.4985 45.4498 73.3317 45.4498ZM45.0821 5.70201C45.0821 2.56171 42.582 0 39.4158 0C36.3327 0 33.7495 2.64464 33.7495 5.70201C33.7495 8.84231 36.3327 11.404 39.4158 11.404C42.582 11.404 45.1653 8.9248 45.0821 5.70201ZM45.0821 73.298C45.0821 70.1577 42.582 67.596 39.4158 67.596C36.3327 67.596 33.7495 70.2406 33.7495 73.298C33.7495 76.4383 36.3327 79 39.4158 79C42.582 79 45.1653 76.5208 45.0821 73.298ZM11.3326 39.7479C11.3326 36.6076 8.83247 34.0459 5.66629 34.0459C2.58315 34.0459 0 36.6905 0 39.7479C0 42.8882 2.58315 45.4499 5.66629 45.4499C8.83306 45.4499 11.4164 42.9707 11.3326 39.7479ZM40.0822 25.7823V14.6268C40.0822 14.2965 39.8322 13.9656 39.4155 13.9656C39.0824 13.9656 38.7487 14.2135 38.7487 14.6268V25.7829C38.7487 26.1132 38.9987 26.4441 39.4155 26.4441C39.7485 26.4435 40.0822 26.1132 40.0822 25.7823V25.7823ZM14.4159 40.3265H25.666C25.9991 40.3265 26.3327 40.0786 26.3327 39.6653C26.3327 39.335 26.0828 39.0042 25.666 39.0042H14.4159C14.0828 39.0042 13.7491 39.252 13.7491 39.6653C13.7491 40.0786 14.0822 40.3265 14.4159 40.3265ZM53.4153 40.1611H64.6655C64.9986 40.1611 65.3322 39.9132 65.3322 39.4999C65.3322 39.1696 65.0823 38.8387 64.6655 38.8387H53.4153C53.0823 38.8387 52.7486 39.0866 52.7486 39.4999C52.6655 39.9132 53.0823 40.1611 53.4153 40.1611ZM40.0825 64.5386V53.3825C40.0825 53.0522 39.8325 52.7213 39.4158 52.7213C39.0827 52.7213 38.749 52.9692 38.749 53.3825V64.5386C38.749 64.8689 38.999 65.1997 39.4158 65.1997C39.7488 65.1173 40.0825 64.8695 40.0825 64.5386ZM21.4994 15.453C21.4994 12.3127 18.9993 9.75099 15.8331 9.75099C12.75 9.75099 10.1668 12.3956 10.1668 15.453C10.1668 18.5933 12.75 21.155 15.8331 21.155C18.9993 21.155 21.5832 18.6758 21.4994 15.453ZM30.4993 29.0882L22.5829 21.2379C22.3329 20.9901 21.9161 20.9901 21.6662 21.2379C21.4162 21.4858 21.4162 21.8991 21.6662 22.147L29.5826 29.9972C29.8326 30.2451 30.2493 30.2451 30.4993 29.9972C30.6661 29.7493 30.6661 29.336 30.4993 29.0882ZM63.0822 21.1549C66.1653 21.1549 68.7485 18.5933 68.7485 15.4529C68.7485 12.3955 66.1653 9.75085 63.0822 9.75085C59.9154 9.75085 57.4159 12.3124 57.4159 15.4529C57.3322 18.6756 59.9154 21.1549 63.0822 21.1549ZM48.4159 29.9972C48.6658 30.245 49.0826 30.245 49.3325 29.9972L57.2489 22.1469C57.4989 21.8991 57.4989 21.4858 57.2489 21.2379C56.999 20.99 56.5822 20.99 56.3323 21.2379L48.4159 29.0882C48.1653 29.336 48.1653 29.7493 48.4159 29.9972ZM15.833 57.1017C12.7498 57.1017 10.1667 59.6632 10.1667 62.8037C10.1667 65.8611 12.7498 68.5057 15.833 68.5057C18.9997 68.5057 21.4993 65.9441 21.4993 62.8037C21.583 59.5803 18.9991 57.1017 15.833 57.1017ZM30.0825 48.5902C29.8325 48.3423 29.4157 48.3423 29.1658 48.5902L21.2494 56.4404C20.9994 56.6883 20.9994 57.1016 21.2494 57.3495C21.4993 57.5973 21.9161 57.5973 22.1661 57.3495L30.0825 49.4992C30.3324 49.2508 30.3324 48.8381 30.0825 48.5902ZM57.4154 62.8035C57.4154 65.9438 59.9155 68.5055 63.0817 68.5055C66.1649 68.5055 68.748 65.8609 68.748 62.8035C68.748 59.6632 66.1649 57.1015 63.0817 57.1015C59.9155 57.1015 57.3322 59.5802 57.4154 62.8035ZM48.7492 49.4992L56.6656 57.3494C56.9155 57.5973 57.3323 57.5973 57.5823 57.3494C57.8322 57.1016 57.8322 56.6883 57.5823 56.4404L49.6659 48.5902C49.4159 48.3423 48.9991 48.3423 48.7492 48.5902C48.4992 48.838 48.4992 49.2508 48.7492 49.4992ZM39.4993 39.3346C36.8324 39.3346 34.5829 37.1032 34.5829 34.4592C34.5829 31.8152 36.8324 29.5838 39.4993 29.5838C42.2493 29.5838 44.4158 31.8152 44.4158 34.4592C44.4158 37.1862 42.2493 39.3346 39.4993 39.3346ZM39.4993 30.9885C37.666 30.9885 36.0825 32.6411 36.0825 34.4592C36.0825 36.3597 37.5822 37.9299 39.4993 37.9299C41.4158 37.9299 42.9161 36.4428 42.9161 34.4592C42.9161 32.4757 41.4995 30.9062 39.4993 30.9885ZM47.1659 46.1935H31.8327C31.6659 42.475 32.5826 39.6655 34.0829 39.0043C36.083 38.1777 38.3327 40.1612 38.4995 40.4915C39.0831 40.9872 39.333 40.9872 39.4162 40.9872C39.583 40.9872 39.9161 40.8218 40.3328 40.4915C40.5828 40.2436 42.833 38.1777 44.8325 39.0043C46.4159 39.6655 47.4156 42.475 47.1658 46.1935H47.1659ZM33.3326 44.8712H45.7492C45.5824 41.483 44.8325 40.574 44.2495 40.4091C43.3329 39.9958 41.8332 41.0703 41.3326 41.566C40.749 42.1447 40.166 42.475 39.4993 42.475C38.9157 42.475 38.3327 42.1447 37.666 41.566C37.1661 41.1527 35.6659 39.9958 34.7491 40.4091C34.166 40.5746 33.3325 41.4006 33.3325 44.8712H33.3326Z" fill="white"></path></svg> 