<?xml version="1.0" encoding="UTF-8"?> <svg xmlns="http://www.w3.org/2000/svg" width="73" height="73" viewBox="0 0 73 73" fill="none"><g clip-path="url(#clip0_5_731)"><path d="M32.1055 73L30.1416 66.9497L29.844 66.8849C26.2496 66.1047 22.8495 64.6936 19.7351 62.6927L19.4799 62.5287L13.7986 65.4236L7.58433 59.216L10.4858 53.5347L10.3218 53.2794C8.31565 50.1558 6.90194 46.7517 6.12168 43.1626L6.05688 42.8663L0 40.8945V32.1134L6.06614 30.135L6.13094 29.8388C6.9231 26.2258 8.33417 22.8244 10.3232 19.7298L10.4871 19.4746L7.58433 13.7933L13.7986 7.58565L19.4799 10.4805L19.7351 10.3165C22.8495 8.31433 26.2496 6.90326 29.844 6.12433L30.1416 6.05953L32.1055 0H40.8945L42.8809 6.05821L43.1771 6.12301C46.7676 6.90458 50.1663 8.31565 53.2781 10.3152L53.5333 10.4792L59.2226 7.58433L65.4223 13.792L62.5274 19.4733L62.6914 19.7285C64.687 22.8442 66.0981 26.2483 66.8849 29.8467L66.9497 30.1429L73 32.1134V40.8866L66.918 42.865L66.8532 43.1626C66.0703 46.7689 64.6632 50.169 62.6689 53.2702L62.5049 53.5254L65.3998 59.2067L59.2001 65.4143L53.5188 62.5195L53.2636 62.6835C50.1425 64.6857 46.7412 66.0967 43.1546 66.877L42.8584 66.9418L40.8879 73H32.1068H32.1055ZM33.0272 71.7437H39.986L41.9115 65.8494L42.2712 65.778C46.1672 65.0163 49.8251 63.4994 53.1419 61.2711L53.4474 61.0634L58.9673 63.879L63.8843 58.962L61.0687 53.4421L61.275 53.1392C63.4981 49.8397 65.0123 46.1818 65.7767 42.2633L65.8494 41.8983L71.3006 40.1249L71.7437 40.1209L71.7516 39.5959V33.014L65.8666 31.0964L65.7939 30.7301C65.0361 26.8381 63.5193 23.1762 61.2869 19.8502L61.0793 19.5447L63.8948 14.0247L58.9779 9.10781L53.4421 11.9233L53.1392 11.717C49.8304 9.48735 46.1751 7.97181 42.2712 7.20743L41.9142 7.13601L39.9887 1.24179H33.0299L31.1202 7.13601L30.7539 7.20875C26.846 7.97313 23.1868 9.48868 19.8806 11.717L19.5764 11.9247L14.0565 9.10913L9.13955 14.0261L11.963 19.5539L11.7567 19.8568C9.53496 23.159 8.0181 26.8169 7.2471 30.7314L7.17437 31.0964L1.28014 33.014V39.9728L7.17437 41.8904L7.2471 42.2567C8.00091 46.1474 9.51777 49.8053 11.7554 53.1287L11.963 53.4381L9.13822 58.9607L14.0551 63.8776L19.5751 61.0621L19.878 61.2684C23.1881 63.4981 26.846 65.015 30.7539 65.778L31.1189 65.8508L33.0285 71.745L33.0272 71.7437ZM36.5079 57.2997C35.3799 57.2997 34.1976 57.1873 32.9941 56.9651C28.2201 56.1492 23.852 53.6576 20.6899 49.9495C17.4922 46.199 15.7307 41.4222 15.7307 36.4987C15.7307 25.0475 25.0514 15.7307 36.5066 15.7307H36.5979C48.0001 15.781 57.268 25.0779 57.2759 36.4987C57.2759 41.4249 55.5131 46.2029 52.3127 49.9561C49.1494 53.6643 44.7813 56.1558 40.0111 56.9717C38.8289 57.1899 37.6532 57.2997 36.5066 57.2997H36.5079ZM30.5992 47.1472C30.943 47.1472 31.2234 47.4275 31.2234 47.7714V55.242L31.6082 55.3504C32.2152 55.521 32.7773 55.6532 33.3261 55.7524C34.4118 55.9296 35.4817 56.0182 36.5145 56.0182C37.5474 56.0182 38.6027 55.9296 39.6792 55.7537C40.2439 55.6532 40.8086 55.521 41.4143 55.3504L41.7991 55.242V47.7714C41.7991 47.4328 42.0848 47.1472 42.4233 47.1472C42.7619 47.1472 43.0475 47.4275 43.0475 47.7714V54.8307L43.7907 54.5001C45.1159 53.9116 46.355 53.1763 47.4764 52.3153L48.7116 51.3671H47.6748V44.9188C47.6748 41.9274 45.2415 39.4941 42.2501 39.4941H40.0826L37.2326 44.3951C37.1255 44.5816 36.9232 44.7032 36.7156 44.7085C36.5264 44.6927 36.2725 44.608 36.1562 44.4123L33.2031 39.4941H30.7592C27.7678 39.4941 25.3344 41.9274 25.3344 44.9188V52.1566L25.5421 52.3153C26.6741 53.1842 27.9146 53.9195 29.2291 54.5001L29.9723 54.828V47.7714C29.9723 47.4328 30.258 47.1472 30.5965 47.1472H30.5992ZM36.5 16.9884C25.7365 16.9884 16.9804 25.7418 16.9804 36.5C16.9804 41.9366 19.1744 46.9911 23.1577 50.731L24.049 51.5682V44.9281C24.049 41.2437 27.047 38.2457 30.7314 38.2457H33.5297C33.748 38.2457 33.9543 38.3607 34.068 38.5459L36.6799 42.8518L39.1859 38.5525C39.297 38.3567 39.5033 38.2377 39.7268 38.2377H42.2607C45.945 38.2377 48.9431 41.2357 48.9431 44.9201V50.6186L49.5197 51.0259L49.8357 50.731C53.8216 46.9885 56.013 41.934 56.005 36.5C56.005 25.7418 47.2556 16.9897 36.5013 16.9897L36.5 16.9884ZM36.4987 36.3691C34.433 36.3691 32.489 35.5637 31.0263 34.0997C28.0071 31.0792 28.0071 26.1663 31.0263 23.1471C32.4824 21.6831 34.4264 20.8777 36.4987 20.8777C38.571 20.8777 40.515 21.6831 41.971 23.1458C44.9915 26.1663 44.9915 31.0805 41.971 34.0997C40.515 35.5637 38.571 36.3691 36.4987 36.3691ZM36.4987 22.1275C34.7689 22.1275 33.1409 22.8019 31.915 24.0278C29.3878 26.5643 29.3878 30.6838 31.915 33.211C33.1317 34.437 34.761 35.1114 36.4987 35.1114C38.2364 35.1114 39.8564 34.437 41.0823 33.211C43.6096 30.6838 43.6096 26.5643 41.0823 24.0292C39.8643 22.8032 38.2364 22.1275 36.4974 22.1275H36.4987Z" fill="black"></path></g><defs><clipPath id="clip0_5_731"><rect width="73" height="73" fill="white"></rect></clipPath></defs></svg> 