<?xml version="1.0" encoding="UTF-8"?> <svg xmlns="http://www.w3.org/2000/svg" width="70" height="70" viewBox="0 0 70 70" fill="none"><g clip-path="url(#clip0_5_737)"><path d="M52.1426 17.2876C51.814 16.959 51.3215 16.959 50.9937 17.2876L46.8074 21.4738L34.7411 18.8474C34.4948 18.7651 34.1663 18.8474 34.0023 19.0936L13.2342 39.7787C12.9057 40.1073 12.9057 40.5998 13.2342 40.9277L28.5018 56.1952C28.6657 56.3592 28.8304 56.4415 29.0766 56.4415C29.3229 56.4415 29.4868 56.3592 29.6514 56.1952L50.3365 35.5101C50.5004 35.3462 50.5828 35.0176 50.5828 34.7714L47.9556 22.6228L52.1419 18.4365C52.4705 18.1086 52.4705 17.6161 52.1419 17.2876H52.1426ZM48.859 34.6075L29.0773 54.4715L14.9587 40.3528L34.8227 20.5711L45.4938 22.8697L42.1286 26.2349C40.8974 25.5785 39.2559 25.7424 38.2709 26.7274C37.6961 27.3022 37.3682 28.1226 37.3682 29.026C37.3682 29.8471 37.6968 30.6674 38.2709 31.3246C38.8457 31.8994 39.6661 32.2273 40.5695 32.2273C41.3906 32.2273 42.2109 31.8987 42.8681 31.3246C43.4429 30.7498 43.7708 29.9294 43.7708 29.026C43.7708 28.4512 43.6068 27.8771 43.3606 27.4662L46.6435 24.0187L48.8597 34.6075H48.859ZM42.0463 28.9437C42.0463 29.3539 41.8824 29.7647 41.5538 30.011C40.979 30.5858 39.9124 30.5858 39.3375 30.011C39.009 29.6824 38.845 29.3546 38.845 28.9437C38.845 28.5328 39.009 28.1226 39.3375 27.8764C39.6661 27.5478 39.994 27.3839 40.4049 27.3839C40.8158 27.3839 41.2259 27.5478 41.4722 27.8764C41.8824 28.1226 42.0463 28.5328 42.0463 28.9437V28.9437Z" fill="black"></path><path d="M35 8.81508C32.5698 8.81508 30.5921 6.83804 30.5921 4.40719C30.5921 1.97634 32.5691 0 35 0C37.4308 0 39.4079 1.97704 39.4079 4.40789C39.4079 6.83874 37.4308 8.81578 35 8.81578V8.81508ZM35 1.54786C33.4233 1.54786 32.14 2.83048 32.14 4.40789C32.14 5.98531 33.4226 7.26792 35 7.26792C36.5774 7.26792 37.86 5.98531 37.86 4.40789C37.86 2.83048 36.5774 1.54786 35 1.54786V1.54786Z" fill="black"></path><path d="M35 70C32.5698 70 30.5921 68.0229 30.5921 65.5921C30.5921 63.1612 32.5691 61.1842 35 61.1842C37.4308 61.1842 39.4079 63.1612 39.4079 65.5921C39.4079 68.0229 37.4308 70 35 70V70ZM35 62.7328C33.4233 62.7328 32.14 64.0154 32.14 65.5928C32.14 67.1702 33.4226 68.4528 35 68.4528C36.5774 68.4528 37.86 67.1702 37.86 65.5928C37.86 64.0154 36.5774 62.7328 35 62.7328V62.7328Z" fill="black"></path><path d="M65.5921 39.4072C63.162 39.4072 61.1842 37.4302 61.1842 34.9993C61.1842 32.5685 63.1613 30.5914 65.5921 30.5914C68.023 30.5914 70 32.5685 70 34.9993C70 37.4302 68.023 39.4072 65.5921 39.4072ZM65.5921 32.14C64.0154 32.14 62.7321 33.4226 62.7321 35C62.7321 36.5774 64.0147 37.8601 65.5921 37.8601C67.1695 37.8601 68.4521 36.5774 68.4521 35C68.4521 33.4226 67.1695 32.14 65.5921 32.14V32.14Z" fill="black"></path><path d="M4.40789 39.4072C1.97775 39.4072 0 37.4302 0 34.9993C0 32.5685 1.97704 30.5914 4.40789 30.5914C6.83874 30.5914 8.81578 32.5685 8.81578 34.9993C8.81578 37.4302 6.83874 39.4072 4.40789 39.4072ZM4.40789 32.14C2.83118 32.14 1.54786 33.4226 1.54786 35C1.54786 36.5774 2.83048 37.8601 4.40789 37.8601C5.98531 37.8601 7.26792 36.5774 7.26792 35C7.26792 33.4226 5.98531 32.14 4.40789 32.14V32.14Z" fill="black"></path><path d="M56.0847 13.9153C58.8237 16.6543 60.9738 19.8429 62.4753 23.3938C63.0902 24.8474 63.5848 26.3376 63.9584 27.8559C64.4572 27.7426 64.9758 27.68 65.5077 27.6737C65.1095 26.0104 64.5733 24.3802 63.9014 22.7902C62.3219 19.0549 60.0599 15.7009 57.1795 12.8205C54.299 9.94007 50.9444 7.67878 47.2098 6.09856C45.5754 5.40694 43.8981 4.86097 42.1863 4.45923C42.1828 4.99113 42.1223 5.50896 42.0111 6.0085C43.5759 6.38561 45.1104 6.89148 46.6069 7.5247C50.1578 9.02683 53.3464 11.1763 56.0854 13.9153H56.0847Z" fill="black"></path><path d="M63.9584 42.1441C63.5848 43.6632 63.0902 45.1526 62.4753 46.6062C60.9739 50.1571 58.823 53.3457 56.0847 56.0848C53.3464 58.8238 50.1571 60.9739 46.6062 62.4753C45.0998 63.1121 43.5555 63.6207 41.9795 63.9986C42.0998 64.4946 42.1701 65.0103 42.1842 65.5408C43.8967 65.1391 45.5747 64.5924 47.2091 63.9008C50.9444 62.3212 54.2983 60.0592 57.1788 57.1788C60.0592 54.2984 62.3205 50.9444 63.9007 47.2092C64.5733 45.6198 65.1088 43.9889 65.507 42.3257C64.9751 42.3193 64.4565 42.2574 63.9577 42.1434L63.9584 42.1441Z" fill="black"></path><path d="M23.3938 62.4753C19.8429 60.9732 16.6543 58.8238 13.9153 56.0848C11.1763 53.3458 9.02616 50.1572 7.52473 46.6062C6.90981 45.1526 6.41519 43.6625 6.0416 42.1442C5.54276 42.2574 5.02423 42.3201 4.49232 42.3264C4.89055 43.9896 5.42667 45.6198 6.09858 47.2099C7.67811 50.9452 9.9401 54.2991 12.8205 57.1795C15.701 60.06 19.0549 62.3213 22.7902 63.9015C24.3366 64.5558 25.9211 65.08 27.5365 65.4747C27.5548 64.9449 27.6294 64.4292 27.7546 63.9339C26.2708 63.5631 24.8144 63.0769 23.3931 62.476L23.3938 62.4753Z" fill="black"></path><path d="M6.04179 27.856C6.41539 26.337 6.91 24.8475 7.52493 23.3939C9.02706 19.843 11.1772 16.6544 13.9155 13.9153C16.6545 11.1763 19.8431 9.02621 23.394 7.52478C24.8054 6.92815 26.2506 6.44409 27.7231 6.07472C27.607 5.57659 27.5423 5.05805 27.5339 4.52686C25.9192 4.92156 24.3361 5.44572 22.7911 6.09934C19.0558 7.67887 15.7019 9.94086 12.8214 12.8213C9.941 15.7017 7.67971 19.0557 6.09949 22.7909C5.42687 24.3803 4.89145 26.0112 4.49323 27.6744C5.02513 27.6808 5.54366 27.7427 6.0425 27.8567L6.04179 27.856Z" fill="black"></path></g><defs><clipPath id="clip0_5_737"><rect width="70" height="70" fill="white"></rect></clipPath></defs></svg> 