<?xml version="1.0" encoding="UTF-8"?> <svg xmlns="http://www.w3.org/2000/svg" width="62" height="56" viewBox="0 0 62 56" fill="none"><g clip-path="url(#clip0_4_727)"><path d="M27.0186 56C23.8159 56 21.1107 53.3659 21.1107 50.2478C21.1107 47.1297 23.7604 44.3267 27.0186 44.3267C30.2768 44.3267 32.9265 46.9823 32.9265 50.2478C32.9265 53.5132 30.2213 56 27.0186 56V56ZM27.0186 46.3521C24.802 46.3521 23.1305 48.0274 23.1305 50.2489C23.1305 52.339 24.8382 53.9757 27.0186 53.9757C29.199 53.9757 30.9067 52.2687 30.9067 50.2489C30.9067 48.101 29.1628 46.3521 27.0186 46.3521V46.3521Z" fill="black"></path><path d="M47.4542 56C44.2515 56 41.5463 53.3659 41.5463 50.2478C41.5463 47.1297 44.1961 44.3267 47.4542 44.3267C50.7124 44.3267 53.3621 46.9823 53.3621 50.2478C53.3621 53.5132 50.657 56 47.4542 56ZM47.4542 46.3521C45.3111 46.3521 43.5661 48.0999 43.5661 50.2489C43.5661 52.2687 45.3462 53.9757 47.4542 53.9757C49.5622 53.9757 51.3423 52.2687 51.3423 50.2489C51.3423 48.101 49.5984 46.3521 47.4542 46.3521Z" fill="black"></path><path d="M19.5873 41.4432C19.2153 41.4432 18.824 41.1428 18.729 40.7847L11.2027 4.35922L0.650203 2.0674C-0.021559 1.89398 -0.021559 1.27966 0.0101065 1.02237C0.0711758 0.527051 0.403664 0 0.900134 0C0.940847 0 0.982691 0.00340033 1.02567 0.010201L12.328 2.54571C12.7521 2.65339 12.9002 2.80187 13.0077 3.22691L14.6554 10.4741H61.3022C61.482 10.4741 61.6539 10.5592 61.7851 10.7144C61.9581 10.9185 62.0316 11.2075 61.9886 11.5112L55.746 33.8333C55.6883 34.0667 55.5571 34.3342 55.0539 34.3342H19.619L20.5407 39.4177H54.5461C55.2529 39.4177 55.2608 40.3891 55.2608 40.4299C55.2608 40.4707 55.2529 41.4421 54.5461 41.4421H19.5873V41.4432ZM19.0332 32.3088H54.2193L59.6589 12.4996H15.0433L19.0321 32.3088H19.0332Z" fill="black"></path></g><defs><clipPath id="clip0_4_727"><rect width="62" height="56" fill="white"></rect></clipPath></defs></svg> 