<?xml version="1.0" encoding="UTF-8"?> <svg xmlns="http://www.w3.org/2000/svg" width="100" height="100" viewBox="0 0 100 100" fill="none"><g clip-path="url(#clip0_5_447)"><path d="M99.9997 50C99.9997 77.6144 77.6138 100 50 100C22.3858 100 0 77.6147 0 50C0 22.386 22.3858 0 50 0C77.6142 0 99.9997 22.386 99.9997 50Z" fill="white"></path><path d="M49.5825 17.776C51.3427 18.7854 53.2097 20.0844 54.631 21.461L54.0727 22.0191C51.268 21.7225 48.3142 22.0927 45.6554 22.1335C45.3589 21.8359 44.7616 21.3884 45.3179 21.0145L49.5825 17.776ZM99.1737 52.4372C99.211 53.6967 99.33 54.7784 98.8362 56.0673C93.7124 57.5171 90.3467 52.1198 85.3752 52.9339L85.9373 55.7315C90.5367 55.882 93.4095 60.27 98.1612 60.0814C97.4862 61.4228 98.4624 64.9569 95.4716 63.5442C92.3671 62.8021 90.1225 60.0814 86.7206 60.0814C86.3101 60.8312 86.5699 61.8693 86.498 62.7563C90.0869 63.3165 92.668 66.3342 96.2558 66.8914C95.9183 68.1181 95.5838 69.4917 94.5733 70.2399C91.6544 69.5332 89.3746 66.9252 86.2671 66.9998L85.7137 69.5686C88.6669 69.6442 90.575 72.2436 93.229 73.0238C93.302 74.1074 92.3284 75.0757 91.7677 76.0429C89.4115 75.3389 87.6147 73.3252 84.9227 73.4737C84.8854 72.4646 85.4875 71.3188 85.2602 70.2399C82.2368 71.1345 80.2094 68.3396 77.9685 66.663C77.904 61.1763 72.0984 57.577 71.7918 52.4372C71.733 51.4125 71.89 50.3185 72.3593 49.1429C74.2674 44.7536 73.668 39.0549 71.5757 34.9626C70.94 33.8857 69.8135 33.0355 68.7637 32.4024C70.2996 35.6409 72.1714 39.4673 71.2372 43.4479C71.1289 46.5218 69.3059 49.474 69.2851 52.4372C69.278 53.4937 69.5046 54.5503 70.1154 55.6171C72.5479 59.9757 76.9241 64.1014 75.2785 69.5676C74.8261 71.2466 73.4787 72.5449 73.1425 74.2536C75.9882 76.5984 78.6788 79.2406 82.4546 79.3894C83.8 78.5345 83.0527 74.7436 85.8203 76.4921L89.8613 78.5031C89.5668 79.5794 88.6612 80.5439 87.841 81.285C86.3077 80.5426 84.8121 79.6526 82.9004 79.7252C82.3366 80.3202 81.8515 80.9881 81.8946 81.8419C83.2399 82.0623 84.474 82.6272 85.5978 83.4098C85.076 84.5278 84.0591 85.2285 83.1243 86.0847L79.9895 84.9697C79.4661 85.7148 78.379 86.4977 78.7605 87.3155C79.4678 87.6168 80.2524 88.0242 80.7731 88.5462C79.3895 90.0342 77.6357 90.9914 75.9482 92.0014C74.4946 87.2747 69.7053 83.9606 70.1164 78.4944L69.8939 78.2733C68.7681 79.5325 69.1442 81.5462 69.2168 83.1804C70.5642 86.6041 73.7779 89.2486 74.2653 93.0031C73.7026 93.9693 72.4339 94.162 71.4607 94.571C71.5737 87.8018 61.2531 82.6676 67.8715 75.8205C70.0788 72.4677 73.7769 69.268 72.4665 64.6519C71.1212 60.1951 66.3628 57.4335 66.4048 52.4372L66.4122 52.0476C67.496 46.8372 70.7884 41.2931 68.0951 35.7503C67.3444 33.5208 65.6673 30.9874 63.3861 30.0556C66.787 33.9285 68.1354 40.2476 66.1897 45.459C65.2091 47.5319 63.8591 50.0014 63.7236 52.4382H63.7155C63.6432 53.7108 63.9044 54.9763 64.7297 56.1763C67.3121 60.3449 71.7972 64.9238 69.2172 70.3563C66.3006 74.7075 61.2148 79.1335 64.055 84.8646C66.1117 88.2874 69.2931 91.7028 68.4349 95.9105L65.0692 97.0255C67.3131 89.1773 56.3172 84.566 60.9203 76.7151C63.7622 72.5111 68.845 68.5666 65.9678 62.987C64.2477 59.5299 60.6934 57.4837 60.8057 53.1633L60.928 52.4379C62.0861 46.3105 66.7679 40.5105 63.4943 33.9626C62.6341 32.0292 60.9149 30.0579 59.0069 28.9409L58.8916 29.0556C62.708 32.7389 63.8691 38.7991 61.8115 43.6707C60.8514 46.5288 58.7443 49.376 58.316 52.4389C58.1123 53.883 58.2841 55.3797 59.1228 56.9563C61.5533 60.7854 65.8155 64.8473 63.1558 69.7978C60.3549 73.8867 55.6788 77.8653 57.5466 83.1827C59.6039 87.8349 63.8997 92.2666 61.5802 98.0352L58.1073 98.8155C60.8736 93.1937 56.7257 87.6155 54.2959 82.7399C51.34 75.7449 60.6467 72.3954 60.7959 66.0001C60.7606 61.8723 56.3498 59.5285 55.4176 55.7339C53.5086 54.1315 51.5299 56.371 49.2477 55.9553C47.5628 56.2921 44.975 53.6479 43.9692 56.5141C42.7715 60.7161 37.3149 63.8054 39.7131 68.7894C41.995 73.2185 47.4865 76.4573 45.6521 82.189C44.0096 87.5429 38.5839 92.6406 41.9489 98.8155C40.5666 98.37 37.9852 99.2228 38.0225 97.0258C35.8919 89.5479 44.9777 85.1914 42.1714 77.7175C40.8654 73.1396 34.915 70.6105 36.225 65.1044C37.1935 60.572 42.3056 57.4034 41.5885 52.4385C41.5304 52.0228 41.4275 51.5974 41.2806 51.1539C39.3725 45.7964 35.4798 40.4375 37.8 34.1847C38.437 32.3987 39.7094 30.8737 40.8275 29.2773C37.1249 31.2486 35.2572 35.4168 35.3339 39.6573C35.1725 44.2686 38.5963 48.2188 39.0834 52.4385C39.2751 54.1416 38.9947 55.8854 37.8 57.7352C35.3712 61.0141 32.1948 64.4713 33.651 68.7887C35.0357 73.1436 40.495 75.7817 40.1585 80.8436C40.1215 86.8312 33.1283 90.5593 35.1103 97.2556L31.6297 96.1322C30.2477 90.1817 36.6039 87.1372 36.6768 81.6315C37.5764 75.3001 29.4597 72.9509 29.9468 66.779C29.9119 62.0897 34.0608 59.1198 35.8932 55.1753C36.2076 54.2155 36.3121 53.3085 36.2701 52.4389C36.0455 48.0777 32.0956 44.668 32.7511 39.7646C32.9716 36.1559 34.2057 32.9927 36.5625 30.2787C33.3108 31.5783 31.9675 35.3024 31.0693 38.4282C29.5105 43.4402 33.2315 47.9486 33.6046 52.4392C33.77 54.4222 33.2829 56.3937 31.4075 58.4095C28.7135 61.568 25.9815 65.5533 27.9265 69.7984C29.9862 74.4824 36.457 78.1282 33.6504 83.9703C32.1191 87.6543 28.4526 90.4429 28.6032 94.7944C27.6317 94.385 26.6239 93.977 25.7982 93.2349C25.7982 87.6924 33.723 84.2305 29.9472 78.3894C29.6127 79.5419 29.5408 81.1081 29.2789 82.4101C27.9685 85.7974 25.1649 88.5088 24.1157 92.0105C22.3613 91.3369 20.5269 89.9215 19.0676 88.4335L21.0889 87.2028C20.8644 86.4573 20.267 85.8255 19.7446 85.1931C18.4319 85.0095 17.57 85.8663 16.4878 86.2021C15.553 85.382 14.6507 84.6376 13.9054 83.6332C14.5764 81.7319 19.8192 83.3041 17.1632 80.178C15.3701 79.0626 13.5703 80.6559 12.0001 81.3998L9.87147 78.7248C11.7039 77.6098 13.5316 76.0436 15.8108 76.4927C16.3725 77.4991 16.4115 78.979 17.4937 79.5044C21.3461 79.4299 24.0757 76.5309 27.0289 74.2606C24.9706 71.2135 23.2952 67.0068 25.1236 63.3218C26.5886 59.6292 30.4057 56.5191 30.5788 52.4369C30.6178 51.5078 30.4723 50.5302 30.0638 49.478C28.0455 44.3058 27.3332 37.3155 31.1856 32.7375C29.091 33.2974 27.8559 35.8947 27.1442 37.867C24.8284 42.9175 27.7574 47.5964 27.8586 52.4365C27.8724 53.3071 27.8014 54.1797 27.5893 55.0586C25.6066 59.0392 22.3942 62.5319 21.8725 67.1125C19.5906 68.5606 17.7172 71.0931 14.4658 70.2385C14.3515 71.0934 14.6134 72.3964 14.9116 73.3646C12.3332 73.2569 10.5751 75.1476 8.40412 76.0406C7.24771 75.6713 6.94685 74.184 6.49908 73.1432C9.04014 72.2894 10.8732 69.7549 13.7908 69.7951C14.129 68.8603 13.6012 68.0038 13.4523 67.1118C9.82306 65.5091 4.07029 75.0342 3.58655 66.776C7.21309 66.5526 9.5306 63.2034 13.1222 62.8697L13.2294 60.1947C9.15343 59.785 6.53135 63.9539 2.45704 63.5429L1.55848 59.9733C6.27149 60.2663 9.07947 56.0643 13.5679 55.8382C14.1643 55.0579 14.2362 53.9044 14.3512 52.8265C9.45194 52.1914 6.08996 57.5931 0.890182 55.9526C0.890182 55.9526 0.711007 53.7044 0.613855 52.4369H0.620915C0.585618 51.9412 0.552001 51.5957 0.552001 51.5957C5.18871 53.3857 9.26268 50.0723 13.2294 48.362C14.2382 48.0616 15.8115 48.5824 16.264 47.4673C16.2246 46.6115 17.7935 45.6108 16.4875 45.0135C10.6883 44.2305 6.83591 51.1894 0.88951 48.0252L0.44342 47.1305C1.6805 30.3161 11.2121 14.0599 27.0289 6.06028C33.4349 2.41814 41.3932 0.56162 49.4191 0.495734C59.105 0.415801 68.8921 2.94356 76.1727 8.07099C83.2429 12.3857 90.0059 19.4964 93.6761 26.7148C97.1863 33.0392 98.8019 40.1359 99.2843 47.6911C93.15 52.3024 89.0347 43.3466 82.7881 45.3509C83.1246 46.3202 83.3108 47.3228 84.0248 48.1412C89.5611 48.1024 93.3736 53.8697 99.1687 51.5967L99.1737 52.4372ZM28.7098 31.7288C24.82 29.1981 19.8885 31.581 16.2633 32.9593C15.9268 29.572 14.5441 26.486 11.6612 24.2539C11.3815 24.1155 10.9949 23.8242 10.6467 23.8028C10.4382 23.7897 10.2399 23.8733 10.0859 24.1385C11.3926 32.1362 6.16695 37.7168 2.46377 43.7837C3.69681 44.7864 5.67783 44.6365 7.17342 44.3419C11.0991 42.78 14.8386 40.0616 19.513 40.9934C20.8953 38.6496 23.2178 36.3793 25.1222 34.5191C26.2857 33.5175 27.8841 32.8814 28.7098 31.7288ZM40.6039 36.7516C40.5293 37.2332 40.6412 38.0917 41.3875 37.7599C42.5486 36.1603 44.6043 37.4258 45.875 37.5385V37.0884C45.1778 35.9991 43.7433 35.4519 42.2867 35.5064C41.9506 35.5181 41.609 35.567 41.2803 35.6429C40.7928 35.7506 40.4536 36.1944 40.6039 36.7516ZM58.8899 31.9586C57.8458 29.6513 55.4523 28.7175 53.2803 28.1596C52.2157 28.0292 51.1107 27.9409 50.0148 27.9305C49.8094 27.9285 49.6044 27.9258 49.4 27.9305C46.3345 27.9921 43.4055 28.775 41.6161 31.2854C41.3593 31.9941 40.2301 32.9894 41.2786 33.6245C43.6348 33.4747 46.3234 33.1807 47.894 35.1924C47.894 36.98 49.0541 39.3583 47.1104 40.2141C45.4998 38.7305 43.5924 40.8456 41.84 39.6549C41.016 39.1707 40.4947 39.7359 40.1571 40.4426C39.67 45.0549 42.0975 50.1452 46.4347 52.7115C48.1925 53.3422 50.5554 53.9422 52.3898 53.0472C56.8023 51.0031 58.63 46.3181 59.4516 42.0018C59.3413 41.1804 59.3807 39.5797 58.2223 39.5409C56.9142 40.364 55.0065 39.8777 53.6202 39.5409C52.8006 39.8041 52.763 40.9971 51.8301 41.2232L51.2616 40.772C50.7749 38.7288 50.4747 35.8258 52.3838 34.4121C54.5171 33.5563 57.0225 33.1824 59.2287 33.8539C59.6405 33.1476 59.0048 32.5914 58.8899 31.9586ZM56.6386 35.6272C56.4903 35.6309 56.3461 35.6382 56.2002 35.6429C55.4166 36.163 53.1331 35.789 53.9573 37.5385C55.3793 36.4195 57.3613 37.2038 58.7823 37.7599C59.3077 37.5004 59.1938 36.9793 59.2284 36.5302C58.7722 35.6857 57.682 35.6064 56.6386 35.6272ZM72.9203 19.8967C70.1524 19.7506 67.8345 21.3138 65.2911 22.0212C65.0696 19.868 66.7138 17.5941 67.0889 15.4325C62.9766 15.6957 59.7195 18.1583 56.3176 20.1255C55.5303 18.2329 54.7406 16.3305 53.9587 14.4309L58.4461 10.1884L58.5611 9.62951L52.4997 9.29373C51.4556 7.47366 51.0441 5.28135 49.8101 3.60711C48.8003 5.50443 48.1219 7.51246 47.113 9.40811L41.0587 9.7449V10.1884L45.6538 14.3161C45.092 16.4379 44.57 18.7432 43.1877 20.3469C40.4953 18.7426 37.8413 16.9964 34.8895 15.8824C34.1791 15.6543 33.1666 15.2834 32.5309 15.768C33.4645 17.8148 34.7718 20.0165 34.5519 22.2506C33.3172 22.0245 32.3467 21.2369 31.1866 20.9058C29.7993 20.5292 28.1531 19.7934 26.8071 20.2409C29.0513 23.3643 30.8831 26.6332 31.5167 30.3921C38.9617 26.8171 47.6442 24.8509 56.6567 26.3787C60.8813 27.0476 64.766 28.7596 68.5435 30.17C68.6911 26.2285 71.1965 23.0613 72.9203 19.8967ZM85.7053 41.3295C89.5168 42.3332 93.3403 46.4646 97.3763 43.784C93.8613 37.981 88.6296 32.6222 90.0845 25.0335C90.2368 24.5155 89.9003 23.9911 89.4162 23.9175C87.136 24.8446 85.3702 27.0797 84.4679 29.2767C84.0968 30.576 83.8769 31.9573 83.3542 33.182C80.6225 31.7676 77.7077 30.3974 74.3796 30.7285C73.1795 30.8773 71.459 30.9556 71.2375 32.1814C75.0143 34.1894 78.1201 37.5406 80.4346 41.1091C82.0462 40.8476 84.0225 41.071 85.7053 41.3295ZM45.767 46.574L45.8746 47.2466C47.3359 48.2151 47.7854 49.8566 49.8084 49.7074C51.6025 49.8135 52.9485 48.1412 53.8424 46.8028C51.4146 46.4693 48.4604 46.9854 45.767 46.574ZM47.7874 43.5623C47.8603 43.8603 47.6022 44.3068 48.0099 44.4573C49.2067 44.1987 51.3746 45.0907 52.0429 43.677C51.5763 43.1569 50.8145 42.9208 50.0151 42.9208C49.2161 42.9208 48.3868 43.1526 47.7874 43.5623Z" fill="#025546"></path><path opacity="0.99" d="M45.7697 42.2712H53.9694V45.6227H45.7697V42.2712Z" fill="white"></path><path d="M47.2845 44.0632C48.3441 44.3127 48.6063 44.6866 49.4437 44.791C50.3338 44.7752 50.2054 44.5953 51.7581 44.0622C51.86 44.0264 52.0002 43.8027 51.8264 43.6311C50.8623 42.6789 50.196 43.3592 49.5916 43.3772C48.7898 43.3859 48.0378 42.6943 47.2546 43.5933C47.1211 43.7759 47.0515 43.9552 47.2845 44.0632Z" fill="#025546"></path><path d="M86.0227 99.0541V94.2805H84.3089V93.3086H88.8982V94.2805H87.1885V99.0541H86.0227Z" fill="#025546"></path><path d="M89.6391 99.0542V93.3083H91.3841L92.432 97.2277L93.468 93.3083H95.2171V99.0542H94.1336V94.5314L92.9873 99.0542H91.8645L90.7222 94.5314V99.0542H89.6391Z" fill="#025546"></path></g><defs><clipPath id="clip0_5_447"><rect width="100" height="100" fill="white"></rect></clipPath></defs></svg> 