<svg xmlns="http://www.w3.org/2000/svg" xmlns:xlink="http://www.w3.org/1999/xlink" width="1080" zoomAndPan="magnify" viewBox="0 0 810 809.999993" height="1080" preserveAspectRatio="xMidYMid meet" version="1.0"><defs><filter x="0%" y="0%" width="100%" height="100%" id="18090dbfa8"><feColorMatrix values="0 0 0 0 1 0 0 0 0 1 0 0 0 0 1 0 0 0 1 0" color-interpolation-filters="sRGB"/></filter><g/><mask id="434df07348"><g filter="url(#18090dbfa8)"><rect x="-81" width="972" fill="#000000" y="-80.999999" height="971.999992" fill-opacity="0.61"/></g></mask><clipPath id="49b14c7180"><path d="M 0.554688 0.144531 L 533.800781 0.144531 L 533.800781 529.644531 L 0.554688 529.644531 Z M 0.554688 0.144531 " clip-rule="nonzero"/></clipPath><clipPath id="45a1187fab"><rect x="0" width="534" y="0" height="530"/></clipPath><clipPath id="13ecd4a5b3"><path d="M 62.164062 124.011719 L 345.664062 124.011719 L 345.664062 295.761719 L 62.164062 295.761719 Z M 62.164062 124.011719 " clip-rule="nonzero"/></clipPath><clipPath id="656237dab4"><path d="M 316.511719 329.304688 L 713.09375 329.304688 L 713.09375 542.25 L 316.511719 542.25 Z M 316.511719 329.304688 " clip-rule="nonzero"/></clipPath><clipPath id="9810575858"><path d="M 316.511719 295.875 L 713.886719 295.875 L 713.886719 542.847656 L 316.511719 542.847656 Z M 316.511719 295.875 " clip-rule="nonzero"/></clipPath><clipPath id="f83529a9af"><path d="M 713.09375 295.875 L 316.511719 295.875 L 316.511719 542.171875 L 713.171875 542.171875 Z M 697.726562 539.003906 L 697.726562 474.515625 L 710.003906 474.515625 L 710.003906 539.003906 Z M 709.925781 429.441406 L 697.644531 429.441406 L 697.644531 329.304688 L 709.925781 329.304688 Z M 694.554688 429.441406 L 694.554688 539.082031 L 319.683594 539.082031 L 319.683594 329.304688 L 694.554688 329.304688 Z M 694.554688 429.441406 " clip-rule="nonzero"/></clipPath><clipPath id="1eb1981604"><path d="M 328.386719 302 L 710.71875 302 L 710.71875 539.679688 L 328.386719 539.679688 Z M 328.386719 302 " clip-rule="nonzero"/></clipPath><clipPath id="213aff508e"><path d="M 697.726562 474.597656 L 710.003906 474.597656 L 710.003906 539.082031 L 697.726562 539.082031 Z M 697.726562 329.304688 L 697.726562 429.441406 L 710.003906 429.441406 L 710.003906 329.304688 Z M 336.082031 304.984375 C 332.121094 304.984375 328.871094 308.230469 328.871094 312.191406 C 328.871094 316.152344 332.121094 319.402344 336.082031 319.402344 C 340.042969 319.402344 343.289062 316.152344 343.289062 312.191406 C 343.289062 308.230469 340.121094 304.984375 336.082031 304.984375 Z M 355.570312 304.984375 C 351.609375 304.984375 348.359375 308.230469 348.359375 312.191406 C 348.359375 316.152344 351.609375 319.402344 355.570312 319.402344 C 359.53125 319.402344 362.777344 316.152344 362.777344 312.191406 C 362.777344 308.230469 359.53125 304.984375 355.570312 304.984375 Z M 374.976562 304.984375 C 371.015625 304.984375 367.769531 308.230469 367.769531 312.191406 C 367.769531 316.152344 371.015625 319.402344 374.976562 319.402344 C 378.9375 319.402344 382.1875 316.152344 382.1875 312.191406 C 382.1875 308.230469 379.019531 304.984375 374.976562 304.984375 Z M 701.050781 317.261719 L 694.792969 317.261719 L 704.539062 307.519531 L 704.539062 313.777344 L 707.707031 313.777344 L 707.707031 302.132812 L 695.980469 302.132812 L 695.980469 305.300781 L 702.242188 305.300781 L 692.496094 315.042969 L 692.496094 308.785156 L 689.328125 308.785156 L 689.328125 320.433594 L 701.050781 320.433594 Z M 701.050781 317.261719 " clip-rule="nonzero"/></clipPath><clipPath id="e546dd495e"><path d="M 319.746094 329.132812 L 694.777344 329.132812 L 694.777344 364.5625 L 319.746094 364.5625 Z M 319.746094 329.132812 " clip-rule="nonzero"/></clipPath><clipPath id="b6352daef2"><path d="M 359.191406 369.835938 L 485.1875 369.835938 L 485.1875 444.835938 L 359.191406 444.835938 Z M 359.191406 369.835938 " clip-rule="nonzero"/></clipPath><clipPath id="e162440e41"><path d="M 377.1875 369.835938 L 467.09375 369.835938 C 471.867188 369.835938 476.445312 371.734375 479.820312 375.109375 C 483.195312 378.484375 485.09375 383.0625 485.09375 387.835938 L 485.09375 427.15625 C 485.09375 431.929688 483.195312 436.507812 479.820312 439.882812 C 476.445312 443.257812 471.867188 445.152344 467.09375 445.152344 L 377.1875 445.152344 C 372.414062 445.152344 367.835938 443.257812 364.460938 439.882812 C 361.085938 436.507812 359.191406 431.929688 359.191406 427.15625 L 359.191406 387.835938 C 359.191406 383.0625 361.085938 378.484375 364.460938 375.109375 C 367.835938 371.734375 372.414062 369.835938 377.1875 369.835938 Z M 377.1875 369.835938 " clip-rule="nonzero"/></clipPath><clipPath id="db383d5b3f"><path d="M 507.261719 369.835938 L 644.511719 369.835938 L 644.511719 444.835938 L 507.261719 444.835938 Z M 507.261719 369.835938 " clip-rule="nonzero"/></clipPath><clipPath id="e21b7b1f95"><path d="M 525.261719 369.835938 L 626.335938 369.835938 C 631.109375 369.835938 635.6875 371.734375 639.066406 375.109375 C 642.441406 378.484375 644.335938 383.0625 644.335938 387.835938 L 644.335938 427.152344 C 644.335938 431.925781 642.441406 436.503906 639.066406 439.882812 C 635.6875 443.257812 631.109375 445.152344 626.335938 445.152344 L 525.261719 445.152344 C 520.488281 445.152344 515.910156 443.257812 512.535156 439.882812 C 509.160156 436.503906 507.261719 431.925781 507.261719 427.152344 L 507.261719 387.835938 C 507.261719 383.0625 509.160156 378.484375 512.535156 375.109375 C 515.910156 371.734375 520.488281 369.835938 525.261719 369.835938 Z M 525.261719 369.835938 " clip-rule="nonzero"/></clipPath><clipPath id="0bb62acc58"><path d="M 381.25 414 L 464 414 L 464 443.804688 L 381.25 443.804688 Z M 381.25 414 " clip-rule="nonzero"/></clipPath><clipPath id="6b6bd5c262"><path d="M 459 414 L 465.25 414 L 465.25 421 L 459 421 Z M 459 414 " clip-rule="nonzero"/></clipPath><clipPath id="30d770b3ce"><path d="M 381.25 383 L 464 383 L 464 443.804688 L 381.25 443.804688 Z M 381.25 383 " clip-rule="nonzero"/></clipPath><clipPath id="adc99d0901"><path d="M 459 381 L 465.25 381 L 465.25 387 L 459 387 Z M 459 381 " clip-rule="nonzero"/></clipPath><clipPath id="805f73f252"><path d="M 381.25 371.054688 L 464 371.054688 L 464 443.804688 L 381.25 443.804688 Z M 381.25 371.054688 " clip-rule="nonzero"/></clipPath><clipPath id="baffae7d39"><path d="M 517 377 L 622 377 L 622 443 L 517 443 Z M 517 377 " clip-rule="nonzero"/></clipPath><clipPath id="f0ad433ee7"><path d="M 507.261719 391.132812 L 592.019531 337.128906 L 644.007812 418.722656 L 559.253906 472.726562 Z M 507.261719 391.132812 " clip-rule="nonzero"/></clipPath><clipPath id="17eb8792d8"><path d="M 592.1875 337.019531 L 507.429688 391.027344 L 559.421875 472.621094 L 644.175781 418.613281 Z M 592.1875 337.019531 " clip-rule="nonzero"/></clipPath><clipPath id="c56e574a67"><path d="M 559 373 L 627 373 L 627 433 L 559 433 Z M 559 373 " clip-rule="nonzero"/></clipPath><clipPath id="dda9c93b1f"><path d="M 507.261719 391.132812 L 592.019531 337.128906 L 644.007812 418.722656 L 559.253906 472.726562 Z M 507.261719 391.132812 " clip-rule="nonzero"/></clipPath><clipPath id="114b3e8931"><path d="M 592.1875 337.019531 L 507.429688 391.027344 L 559.421875 472.621094 L 644.175781 418.613281 Z M 592.1875 337.019531 " clip-rule="nonzero"/></clipPath><clipPath id="567d50e8b7"><path d="M 332.507812 459.84375 L 346 459.84375 L 346 473 L 332.507812 473 Z M 332.507812 459.84375 " clip-rule="nonzero"/></clipPath><clipPath id="a81862f0b8"><path d="M 108.152344 421.066406 L 246.152344 421.066406 L 246.152344 589.816406 L 108.152344 589.816406 Z M 108.152344 421.066406 " clip-rule="nonzero"/></clipPath><clipPath id="469be6cb23"><path d="M 139.050781 472.179688 L 215 472.179688 L 215 529.179688 L 139.050781 529.179688 Z M 139.050781 472.179688 " clip-rule="nonzero"/></clipPath></defs><g mask="url(#434df07348)"><g transform="matrix(1, 0, 0, 1, 155, 156)"><g clip-path="url(#45a1187fab)"><g clip-path="url(#49b14c7180)"><path fill="#004aad" d="M 494.457031 126.875 L 472.660156 97.960938 C 472.578125 97.855469 472.488281 97.757812 472.386719 97.675781 C 472.386719 97.675781 472.382812 97.675781 472.382812 97.675781 L 436.808594 60.71875 L 436.710938 60.585938 L 436.628906 60.527344 L 420.441406 49.070312 L 407.984375 40.25 C 407.972656 40.242188 407.957031 40.242188 407.945312 40.234375 L 368.230469 22.210938 L 341.550781 10.972656 L 309.890625 3.445312 L 275.597656 0.226562 L 240.867188 1.507812 L 207.929688 7.214844 L 178.917969 17.011719 L 178.890625 17.023438 L 178.785156 17.058594 L 142.308594 32.894531 L 142.1875 32.964844 C 142.171875 32.972656 142.15625 32.972656 142.140625 32.980469 L 109.785156 51.582031 L 109.585938 51.695312 L 93.601562 67.984375 L 87.238281 74.433594 L 87.214844 74.492188 L 47.703125 114.75 C 47.703125 114.753906 47.699219 114.757812 47.695312 114.757812 L 47.6875 114.769531 L 47.496094 114.960938 L 22.847656 165.648438 L 8.898438 199.773438 L 8.859375 199.871094 L 8.738281 200.160156 L 8.761719 200.375 L 0.566406 258.230469 L 0.582031 258.390625 C 0.578125 258.472656 0.546875 258.546875 0.554688 258.628906 L 4.1875 295.320312 L 4.226562 295.710938 L 4.261719 295.761719 L 14.066406 352.398438 C 14.066406 352.398438 14.066406 352.402344 14.066406 352.402344 L 14.074219 352.429688 L 14.117188 352.695312 L 41.257812 403.460938 L 60.359375 434.46875 L 60.382812 434.507812 L 60.574219 434.660156 L 99.183594 469.632812 L 126.503906 491.78125 L 164.078125 509.46875 L 194.734375 518.535156 L 225.964844 526.597656 L 260.292969 529.898438 L 295.015625 528.121094 L 327.839844 521.371094 L 354.007812 513.601562 L 393.9375 497.851562 L 425.132812 476.886719 L 461.984375 443.699219 L 462.089844 443.628906 L 462.160156 443.539062 L 462.164062 443.539062 L 486.347656 413.757812 L 513.089844 364.714844 L 513.210938 364.566406 L 523.125 329.035156 C 523.128906 329.019531 523.125 329.003906 523.128906 328.988281 L 523.160156 328.890625 L 533.671875 271.777344 L 533.71875 271.519531 L 526.3125 213.527344 L 526.339844 213.433594 L 518.699219 178.550781 C 518.648438 178.320312 518.542969 178.125 518.414062 177.945312 L 494.496094 127.046875 Z M 515.476562 179.449219 L 520.46875 202.257812 L 500.945312 159.371094 L 501.25 158.335938 L 497.621094 141.535156 Z M 519.90625 328.136719 L 517.367188 337.238281 L 522.378906 309.652344 L 523.414062 308.398438 L 523.773438 307.125 Z M 459.808594 441.136719 L 425.726562 464.042969 L 442.664062 426.675781 L 443.144531 426.488281 L 481.808594 400.738281 L 462.199219 438.191406 Z M 299.101562 523.886719 L 294.71875 524.789062 L 260.488281 526.5625 L 260.414062 526.554688 L 259.398438 524.863281 L 302.207031 522.644531 Z M 165.382812 506.390625 L 163.808594 505.652344 L 144.546875 484.613281 L 195.597656 497.777344 L 196.042969 497.820312 L 207.621094 518.152344 L 188.601562 513.242188 Z M 118.667969 481.125 L 101.605469 465.351562 L 140.324219 483.523438 L 141.582031 483.847656 L 159.835938 503.789062 L 128.449219 489.054688 Z M 62.929688 432.269531 L 62.355469 431.339844 L 56.492188 421.820312 L 40.4375 391.417969 L 73.269531 417.867188 L 74.21875 418.308594 L 92.015625 455.832031 Z M 7.476562 294.605469 L 7.179688 291.617188 L 14.375 239.203125 L 34.070312 270.359375 L 34.34375 270.574219 L 27.371094 326.574219 Z M 406.183594 43.070312 L 421.414062 53.851562 L 389.96875 38.226562 L 388.945312 36.855469 L 382.722656 32.441406 Z M 491.34375 128.296875 L 496.871094 153.878906 L 459.835938 110.574219 L 459.984375 110.097656 L 455.582031 89.015625 L 486.925781 122.433594 Z M 422.316406 466.335938 L 375.644531 484.667969 L 387.777344 448.007812 L 440.4375 427.539062 L 423.089844 465.816406 Z M 209.839844 518.675781 L 198.035156 498.011719 L 255.417969 503.507812 L 257.046875 523.175781 Z M 382.675781 36.503906 L 332.71875 29.078125 L 332.273438 28.472656 L 324.886719 23.199219 L 365.066406 24.503906 L 366.765625 25.21875 Z M 141.289062 480.285156 L 127.425781 442.621094 L 187.003906 457.890625 L 194.722656 494.101562 L 141.601562 480.429688 Z M 488.867188 188.269531 L 465.589844 215.46875 L 431.726562 158.792969 L 451.019531 136.90625 Z M 212.132812 27.507812 L 257.75 36.171875 L 205.84375 33.863281 L 211.765625 27.71875 Z M 223.75 20.890625 L 260.375 34.96875 L 214.339844 26.226562 L 223.242188 21.0625 Z M 238.234375 16.019531 L 263.679688 34.453125 L 226.21875 20.050781 L 237.910156 16.078125 Z M 254.554688 13.175781 L 266.722656 34.589844 L 240.53125 15.621094 Z M 306.25 17.953125 L 316.984375 22.488281 L 276.179688 34.621094 L 305.828125 17.851562 Z M 319.828125 23.691406 L 327.644531 29.273438 L 279.363281 35.410156 L 319.34375 23.484375 Z M 398.476562 55.234375 L 401.480469 70.445312 L 340.679688 47.046875 L 339.3125 39.601562 L 398.253906 54.9375 Z M 448.753906 134.425781 L 429.722656 156.113281 L 384.90625 106.292969 L 398.535156 91.257812 Z M 255.90625 461.023438 L 255.765625 410.734375 L 325.160156 407.386719 L 322.65625 457.691406 Z M 310.753906 199.582031 L 299.382812 137.304688 L 331.554688 131.449219 L 356.183594 191.109375 Z M 231.105469 76.582031 L 246.460938 80.296875 L 227.261719 132.203125 L 197.152344 124.890625 Z M 266.703125 82.242188 L 283.84375 81.578125 L 297 134.203125 L 263.605469 135.574219 Z M 249.589844 77.402344 L 268.191406 41.566406 L 265.261719 78.871094 Z M 284.554688 78.144531 L 271.71875 41.730469 L 299.40625 75.488281 Z M 282.828125 78.277344 L 266.933594 78.902344 L 269.875 41.527344 Z M 301.261719 75.132812 L 274.058594 41.953125 L 313.941406 70.714844 Z M 247.820312 77.1875 L 233.613281 73.773438 L 266.191406 41.792969 Z M 298.683594 134.050781 L 285.511719 81.355469 L 301.554688 78.5 L 330 128.339844 Z M 315.867188 70.042969 L 276.78125 41.855469 L 325.574219 64.246094 Z M 231.707031 73.300781 L 219.980469 68.253906 L 263.683594 41.914062 Z M 248.128906 80.605469 L 265.035156 82.203125 L 261.933594 135.535156 L 228.953125 132.4375 Z M 331.703125 127.960938 L 303.171875 77.988281 L 316.9375 73.210938 L 358.667969 118.390625 Z M 327.273438 63.207031 L 279.417969 41.230469 L 333.5 56.472656 Z M 218.097656 67.4375 L 209.566406 61.183594 L 260.921875 41.628906 Z M 216.808594 70.484375 L 229.484375 75.976562 L 195.453125 124.414062 L 170.390625 113.488281 Z M 297.726562 137.519531 L 309.089844 199.757812 L 260.628906 201.832031 L 263.433594 138.910156 Z M 309.609375 203.078125 L 318.21875 270.101562 L 258.222656 272.785156 L 260.496094 205.164062 Z M 319.878906 269.910156 L 311.265625 202.871094 L 357.308594 194.300781 L 376.074219 259.183594 Z M 357.816406 190.703125 L 333.15625 130.96875 L 360.875 121.15625 L 396.902344 176.546875 Z M 360.316406 117.730469 L 318.429688 72.367188 L 328.957031 66.117188 L 381.078125 105.089844 Z M 337.066406 47.875 L 334.597656 55.066406 L 281.429688 40.0625 Z M 208.019531 59.984375 L 203.121094 52.992188 L 258.425781 40.789062 Z M 206.125 62.808594 L 215.339844 69.5625 L 168.792969 112.710938 L 150.488281 99.050781 Z M 261.761719 138.875 L 258.957031 201.792969 L 211.070312 197.277344 L 227.890625 135.675781 Z M 258.824219 205.136719 L 256.550781 272.746094 L 197.246094 267.140625 L 210.292969 200.546875 Z M 256.453125 276.09375 L 254.894531 343.035156 L 188.511719 336.742188 L 196.714844 270.425781 Z M 256.566406 343.078125 L 258.125 276.117188 L 318.566406 273.429688 L 323.722656 339.941406 Z M 377.679688 258.738281 L 358.910156 193.839844 L 398.53125 179.511719 L 425.945312 240.886719 Z M 398.433594 175.855469 L 362.34375 120.371094 L 383.683594 107.414062 L 428.453125 157.175781 Z M 382.492188 104.078125 L 330.15625 64.925781 L 336.875 57.742188 L 395.738281 89.375 Z M 337.710938 56.292969 L 340.316406 48.695312 L 401.691406 72.289062 L 396.597656 87.9375 Z M 335.8125 39.050781 L 337.125 46.195312 L 282.265625 38.496094 Z M 202.34375 51.453125 L 201.253906 44.203125 L 256.785156 39.441406 Z M 199.785156 54.054688 L 205.03125 61.546875 L 149.210938 97.886719 L 138.777344 82.574219 Z M 193.722656 127.304688 L 164.058594 185.78125 L 127.664062 169.683594 L 167.988281 116.039062 Z M 195.308594 127.855469 L 226.242188 135.394531 L 209.410156 197.023438 L 165.667969 186.285156 Z M 208.644531 200.277344 L 195.601562 266.867188 L 141.453125 253.414062 L 164.3125 189.367188 Z M 195.066406 270.175781 L 186.867188 336.445312 L 126.28125 321.226562 L 140.523438 256.597656 Z M 254.835938 346.386719 L 254.109375 407.363281 L 185.472656 400.835938 L 188.226562 340.054688 Z M 255.78125 407.40625 L 256.507812 346.410156 L 323.886719 343.28125 L 325.210938 404.039062 Z M 325.378906 339.730469 L 320.222656 273.226562 L 376.828125 262.441406 L 388.230469 327.464844 Z M 427.425781 240.132812 L 400.015625 178.765625 L 430.441406 159.871094 L 464.371094 216.652344 Z M 329.898438 30.882812 L 334.65625 37.367188 L 281.554688 36.816406 L 329.644531 30.703125 Z M 272.960938 34.523438 L 290.089844 14.117188 L 290.109375 14.117188 L 303.4375 17.285156 Z M 256.484375 37.789062 L 201.632812 42.492188 L 204.285156 35.480469 L 204.292969 35.46875 Z M 197.972656 44.882812 L 199.125 52.515625 L 138.238281 80.984375 L 136.109375 65.179688 Z M 147.757812 101.183594 L 166.542969 115.199219 L 126.1875 168.867188 L 99.683594 148.722656 Z M 162.730469 188.847656 L 139.878906 252.875 L 94.886719 232.675781 L 125.867188 172.496094 Z M 138.929688 256.109375 L 124.710938 320.636719 L 74.441406 297.75 L 93.632812 235.726562 Z M 186.570312 339.816406 L 183.820312 400.511719 L 121.207031 384.625 L 125.796875 324.523438 Z M 254.09375 410.71875 L 254.238281 460.980469 L 188.265625 454.691406 L 185.492188 404.175781 Z M 254.285156 464.34375 L 255.242188 500.132812 L 196.519531 494.527344 L 188.742188 458.074219 Z M 324.335938 457.433594 L 326.839844 407.207031 L 391.71875 394.308594 L 386.753906 444.808594 Z M 326.878906 403.808594 L 325.550781 343.085938 L 388.597656 330.796875 L 391.835938 390.875 Z M 389.835938 326.976562 L 378.441406 261.996094 L 427.046875 244.042969 L 443.742188 306.640625 Z M 456.535156 109.9375 L 449.460938 132.828125 L 399.484375 89.871094 L 404.675781 73.917969 L 456.511719 109.824219 Z M 386.578125 39.277344 L 396.683594 52.832031 L 338.980469 37.789062 L 338.9375 37.550781 L 334.105469 30.96875 L 385.617188 38.59375 Z M 288.066406 13.925781 L 270.515625 34.835938 L 273.214844 12.539062 Z M 268.824219 34.910156 L 256.425781 13.082031 L 271.535156 12.515625 Z M 197.796875 43.183594 L 136.835938 63.183594 L 142.605469 48.460938 L 143.0625 47.992188 L 200.550781 35.902344 Z M 135.917969 84.308594 L 146.597656 99.984375 L 98.554688 147.492188 L 83.59375 124.921875 Z M 124.394531 171.703125 L 93.476562 231.800781 L 60.816406 206.519531 L 97.550781 151.300781 Z M 92.125 234.980469 L 73.015625 296.757812 L 36.644531 268.132812 L 59.289062 209.5625 Z M 124.167969 324.058594 L 119.59375 383.960938 L 67.707031 360.050781 L 73.789062 301.074219 Z M 183.8125 403.960938 L 186.582031 454.335938 L 126.4375 438.945312 L 121.28125 388.0625 Z M 256.910156 500.183594 L 255.957031 464.351562 L 322.277344 461.058594 L 316.347656 497.15625 Z M 441.761719 423.441406 L 388.496094 444.167969 L 393.425781 393.902344 L 448.914062 372.625 L 441.914062 423.339844 Z M 393.46875 390.332031 L 390.242188 330.371094 L 444.277344 310.007812 L 449.113281 368.972656 Z M 445.234375 305.792969 L 428.574219 243.320312 L 465.769531 219.71875 L 486.382812 279.121094 Z M 497.804688 158.210938 L 489.488281 186.332031 L 452.109375 135.566406 L 459.253906 112.464844 L 497.613281 157.316406 Z M 451.5 85.808594 L 456.015625 107.449219 L 405.214844 72.257812 L 405.234375 72.199219 L 402.179688 56.738281 L 450.648438 84.679688 Z M 254.492188 9.808594 L 253.65625 9.953125 L 245.027344 4.695312 L 274.011719 3.613281 L 272.234375 9.15625 Z M 251.15625 10.386719 L 237.207031 12.808594 L 235.808594 13.28125 L 215.199219 9.34375 L 241.105469 4.84375 L 242.003906 4.808594 Z M 201.253906 34.046875 L 145.164062 45.839844 L 157.609375 33.097656 L 158.859375 32.375 L 207.332031 27.566406 L 201.402344 33.65625 Z M 135.117188 82.84375 L 83.230469 123.089844 L 80.472656 100.214844 L 80.644531 99.789062 L 132.949219 66.757812 Z M 96.308594 150.152344 L 59.742188 205.121094 L 41.535156 176.929688 L 41.523438 176.835938 L 81.195312 127.351562 Z M 57.921875 208.460938 L 35.523438 266.40625 L 15.65625 234.976562 L 15.570312 234.144531 L 39.644531 180.164062 Z M 72.144531 300.324219 L 72.199219 300.351562 L 66.152344 358.84375 L 29.007812 329.210938 L 28.773438 328.828125 L 35.855469 271.765625 Z M 119.558594 387.625 L 119.570312 387.628906 L 124.679688 438.152344 L 75.207031 415.136719 L 74.933594 414.917969 L 67.894531 363.816406 Z M 125.050781 442.011719 L 125.460938 442.117188 L 139.136719 479.277344 L 96.066406 459.113281 L 95.019531 458.265625 L 76.59375 419.417969 Z M 373.472656 485.519531 L 318.0625 496.859375 L 323.988281 460.898438 L 385.894531 448.390625 L 373.621094 485.460938 Z M 483.730469 395.441406 L 443.734375 422.125 L 450.699219 371.933594 L 492.742188 344.269531 L 484.355469 394.671875 Z M 492.933594 340.140625 L 450.6875 367.984375 L 445.882812 309.3125 L 487.074219 282.652344 L 493.074219 339.972656 Z M 513.21875 247.167969 L 487.636719 277.710938 L 467.167969 218.652344 L 490.546875 191.441406 L 513.332031 246.773438 Z M 401.75 54.558594 L 401.609375 53.84375 L 392.175781 41.191406 L 430.253906 60.109375 L 434.355469 63.015625 L 448.089844 81.273438 Z M 360.769531 22.691406 L 322.4375 21.445312 L 321.621094 20.863281 L 311.628906 16.609375 L 338.386719 13.636719 L 340.382812 14.109375 Z M 308.582031 15.3125 L 307.421875 14.820312 L 294.5625 11.746094 L 307.875 6.597656 L 309.230469 6.722656 L 333.585938 12.496094 Z M 291.699219 11.0625 L 290.769531 10.839844 L 273.957031 9.253906 L 275.769531 3.597656 L 304.144531 6.25 Z M 210.53125 10.152344 L 232.597656 14.367188 L 222.007812 17.953125 L 220.78125 18.660156 L 186.667969 17.914062 L 208.628906 10.484375 Z M 180.144531 20.121094 L 182.027344 19.484375 L 217.988281 20.269531 L 209.886719 24.945312 L 209.144531 25.707031 L 162.382812 30.347656 Z M 139.359375 47.585938 L 95.542969 70.78125 L 111.648438 54.367188 L 119.609375 49.789062 L 150.789062 35.359375 L 139.742188 46.609375 Z M 91.679688 74.714844 L 138.441406 49.929688 L 132.667969 64.660156 L 132.707031 64.964844 L 81.707031 97.140625 L 90.066406 76.359375 Z M 80.195312 125.84375 L 80.226562 125.886719 L 41.269531 174.484375 L 38.207031 146.53125 L 38.847656 144.957031 L 77.40625 102.710938 Z M 12.148438 200.652344 L 17.191406 188.320312 L 35.300781 150.707031 L 38.300781 178.078125 L 38.582031 178.515625 L 15.230469 230.808594 Z M 65.839844 362.871094 L 66.117188 363 L 73.035156 413.386719 L 38.09375 385.234375 L 37.269531 383.898438 L 29.113281 333.566406 Z M 218.183594 521.136719 L 257.457031 524.882812 L 258.34375 526.355469 L 226.671875 523.328125 Z M 258.730469 523.234375 L 257.089844 503.503906 L 315.261719 500.554688 L 306.613281 520.753906 Z M 374.285156 488.765625 L 417.863281 471.671875 L 396.363281 492.230469 L 392.542969 494.808594 L 357.191406 508.757812 L 373.5625 488.910156 Z M 494.640625 343.019531 L 494.984375 342.792969 L 520.203125 312.28125 L 512.5 354.671875 L 510.179688 362.996094 L 486.484375 392.0625 Z M 520.386719 306.816406 L 494.539062 338.191406 L 488.644531 281.597656 L 514.265625 251.113281 L 520.792969 305.375 Z M 491.765625 190.019531 L 491.945312 189.8125 L 500.222656 161.816406 L 522.171875 210.023438 L 522.894531 213.328125 L 514.058594 244.226562 Z M 470.054688 100.054688 L 477.550781 110 L 454.929688 85.882812 L 454.621094 84.398438 L 453.355469 82.714844 Z M 154.09375 31.992188 L 135.996094 40.367188 L 143.726562 35.921875 L 155.074219 30.996094 Z M 77.050781 99.761719 L 77.148438 100.5625 L 40.671875 140.488281 L 50.304688 116.875 L 83.964844 82.578125 Z M 12.414062 236.097656 L 12.988281 237.011719 L 6.472656 284.476562 L 5.027344 269.851562 L 3.902344 258.5 L 10.175781 214.214844 Z M 26.476562 331.464844 L 27.207031 332.046875 L 34.980469 380.183594 L 17.3125 351.542969 L 8.953125 303.304688 Z M 308.570312 520.433594 L 317.125 500.441406 L 370.957031 489.445312 L 353.976562 510.027344 L 352.917969 510.445312 L 343.601562 513.210938 Z M 404.53125 486.730469 L 421.960938 470.066406 L 423.707031 469.378906 L 442.445312 456.808594 L 423.167969 474.179688 Z M 483.660156 411.769531 L 473.597656 424.15625 L 467.507812 431.65625 L 484.703125 398.808594 L 486.003906 397.941406 L 501.621094 378.78125 Z M 530.328125 271.347656 L 521.945312 301.257812 L 515.738281 249.363281 L 516.238281 248.769531 L 523.988281 221.660156 Z M 530.328125 271.347656 " fill-opacity="1" fill-rule="nonzero"/></g></g></g></g><g clip-path="url(#13ecd4a5b3)"><path fill="#022554" d="M 313.804688 197.101562 C 315.257812 193.253906 316.074219 189.089844 316.074219 184.722656 C 316.074219 165.484375 300.484375 149.875 281.230469 149.875 C 277.300781 149.875 273.554688 150.535156 270.027344 151.730469 C 261.394531 135.265625 244.109375 124.019531 224.214844 124.019531 C 200.035156 124.019531 179.738281 140.605469 174.078125 163.015625 C 168.277344 157.96875 160.722656 154.902344 152.429688 154.902344 C 134.207031 154.902344 119.4375 169.671875 119.4375 187.894531 C 119.4375 188.171875 119.4375 188.429688 119.457031 188.710938 C 114.015625 185.839844 107.8125 184.183594 101.214844 184.183594 C 79.644531 184.203125 62.164062 201.6875 62.164062 223.257812 C 62.164062 244.828125 79.644531 262.332031 101.234375 262.332031 C 104.964844 262.332031 108.570312 261.792969 111.980469 260.816406 C 116.503906 278.957031 132.890625 292.414062 152.449219 292.414062 C 165.246094 292.414062 176.667969 286.652344 184.324219 277.582031 C 189.667969 288.40625 200.8125 295.839844 213.6875 295.839844 C 226.566406 295.839844 237.054688 288.824219 242.574219 278.519531 C 242.753906 278.457031 242.933594 278.417969 243.113281 278.359375 C 248.238281 283.601562 255.394531 286.871094 263.308594 286.871094 C 277.261719 286.871094 288.84375 276.742188 291.136719 263.445312 C 296.558594 266.757812 302.9375 268.648438 309.777344 268.648438 C 329.589844 268.648438 345.679688 252.582031 345.679688 232.746094 C 345.679688 214.308594 331.765625 199.097656 313.84375 197.082031 Z M 313.804688 197.101562 " fill-opacity="1" fill-rule="nonzero"/></g><g clip-path="url(#656237dab4)"><path fill="#ffffff" d="M 316.511719 295.875 L 713.09375 295.875 L 713.09375 542.054688 L 316.511719 542.054688 Z M 316.511719 295.875 " fill-opacity="1" fill-rule="nonzero"/></g><g clip-path="url(#9810575858)"><g clip-path="url(#f83529a9af)"><path fill="#3954a3" d="M 316.511719 295.875 L 713.09375 295.875 L 713.09375 542.054688 L 316.511719 542.054688 Z M 316.511719 295.875 " fill-opacity="1" fill-rule="nonzero"/></g></g><g clip-path="url(#1eb1981604)"><g clip-path="url(#213aff508e)"><path fill="#ffffff" d="M 316.511719 295.875 L 713.09375 295.875 L 713.09375 542.054688 L 316.511719 542.054688 Z M 316.511719 295.875 " fill-opacity="1" fill-rule="nonzero"/></g></g><g clip-path="url(#e546dd495e)"><path fill="#6cc8ff" d="M 319.746094 329.132812 L 694.808594 329.132812 L 694.808594 364.5625 L 319.746094 364.5625 Z M 319.746094 329.132812 " fill-opacity="1" fill-rule="nonzero"/></g><g fill="#ffffff" fill-opacity="1"><g transform="translate(322.747312, 352.38305)"><g><path d="M 4.734375 0.109375 C 3.960938 0.109375 3.269531 -0.015625 2.65625 -0.265625 C 2.050781 -0.515625 1.566406 -0.882812 1.203125 -1.375 C 0.835938 -1.863281 0.644531 -2.457031 0.625 -3.15625 L 3.359375 -3.15625 C 3.398438 -2.757812 3.535156 -2.457031 3.765625 -2.25 C 3.992188 -2.050781 4.296875 -1.953125 4.671875 -1.953125 C 5.046875 -1.953125 5.34375 -2.035156 5.5625 -2.203125 C 5.78125 -2.378906 5.890625 -2.625 5.890625 -2.9375 C 5.890625 -3.195312 5.800781 -3.410156 5.625 -3.578125 C 5.457031 -3.753906 5.242188 -3.894531 4.984375 -4 C 4.734375 -4.113281 4.375 -4.238281 3.90625 -4.375 C 3.21875 -4.582031 2.660156 -4.789062 2.234375 -5 C 1.804688 -5.21875 1.4375 -5.53125 1.125 -5.9375 C 0.8125 -6.351562 0.65625 -6.890625 0.65625 -7.546875 C 0.65625 -8.523438 1.007812 -9.289062 1.71875 -9.84375 C 2.4375 -10.40625 3.363281 -10.6875 4.5 -10.6875 C 5.65625 -10.6875 6.585938 -10.40625 7.296875 -9.84375 C 8.015625 -9.289062 8.394531 -8.519531 8.4375 -7.53125 L 5.671875 -7.53125 C 5.648438 -7.875 5.523438 -8.140625 5.296875 -8.328125 C 5.066406 -8.523438 4.769531 -8.625 4.40625 -8.625 C 4.09375 -8.625 3.84375 -8.539062 3.65625 -8.375 C 3.46875 -8.207031 3.375 -7.972656 3.375 -7.671875 C 3.375 -7.328125 3.53125 -7.054688 3.84375 -6.859375 C 4.164062 -6.671875 4.671875 -6.46875 5.359375 -6.25 C 6.035156 -6.019531 6.585938 -5.800781 7.015625 -5.59375 C 7.441406 -5.382812 7.804688 -5.078125 8.109375 -4.671875 C 8.421875 -4.273438 8.578125 -3.765625 8.578125 -3.140625 C 8.578125 -2.535156 8.425781 -1.988281 8.125 -1.5 C 7.820312 -1.007812 7.378906 -0.617188 6.796875 -0.328125 C 6.210938 -0.0351562 5.523438 0.109375 4.734375 0.109375 Z M 4.734375 0.109375 "/></g></g></g><g fill="#ffffff" fill-opacity="1"><g transform="translate(331.972302, 352.38305)"><g><path d="M 9.1875 -8.375 L 9.1875 0 L 6.625 0 L 6.625 -1.140625 C 6.363281 -0.765625 6.007812 -0.460938 5.5625 -0.234375 C 5.125 -0.015625 4.632812 0.09375 4.09375 0.09375 C 3.457031 0.09375 2.894531 -0.046875 2.40625 -0.328125 C 1.914062 -0.617188 1.535156 -1.035156 1.265625 -1.578125 C 0.992188 -2.117188 0.859375 -2.753906 0.859375 -3.484375 L 0.859375 -8.375 L 3.40625 -8.375 L 3.40625 -3.828125 C 3.40625 -3.265625 3.550781 -2.828125 3.84375 -2.515625 C 4.132812 -2.210938 4.523438 -2.0625 5.015625 -2.0625 C 5.515625 -2.0625 5.90625 -2.210938 6.1875 -2.515625 C 6.476562 -2.828125 6.625 -3.265625 6.625 -3.828125 L 6.625 -8.375 Z M 9.1875 -8.375 "/></g></g></g><g fill="#ffffff" fill-opacity="1"><g transform="translate(342.082287, 352.38305)"><g><path d="M 11.609375 -8.453125 C 12.648438 -8.453125 13.476562 -8.132812 14.09375 -7.5 C 14.707031 -6.875 15.015625 -6.003906 15.015625 -4.890625 L 15.015625 0 L 12.46875 0 L 12.46875 -4.546875 C 12.46875 -5.085938 12.320312 -5.503906 12.03125 -5.796875 C 11.75 -6.085938 11.359375 -6.234375 10.859375 -6.234375 C 10.359375 -6.234375 9.960938 -6.085938 9.671875 -5.796875 C 9.390625 -5.503906 9.25 -5.085938 9.25 -4.546875 L 9.25 0 L 6.703125 0 L 6.703125 -4.546875 C 6.703125 -5.085938 6.554688 -5.503906 6.265625 -5.796875 C 5.984375 -6.085938 5.59375 -6.234375 5.09375 -6.234375 C 4.59375 -6.234375 4.203125 -6.085938 3.921875 -5.796875 C 3.640625 -5.503906 3.5 -5.085938 3.5 -4.546875 L 3.5 0 L 0.9375 0 L 0.9375 -8.375 L 3.5 -8.375 L 3.5 -7.3125 C 3.757812 -7.664062 4.097656 -7.941406 4.515625 -8.140625 C 4.929688 -8.347656 5.40625 -8.453125 5.9375 -8.453125 C 6.570312 -8.453125 7.132812 -8.316406 7.625 -8.046875 C 8.125 -7.785156 8.515625 -7.40625 8.796875 -6.90625 C 9.078125 -7.363281 9.46875 -7.734375 9.96875 -8.015625 C 10.46875 -8.304688 11.015625 -8.453125 11.609375 -8.453125 Z M 11.609375 -8.453125 "/></g></g></g><g fill="#ffffff" fill-opacity="1"><g transform="translate(357.967269, 352.38305)"><g><path d="M 11.609375 -8.453125 C 12.648438 -8.453125 13.476562 -8.132812 14.09375 -7.5 C 14.707031 -6.875 15.015625 -6.003906 15.015625 -4.890625 L 15.015625 0 L 12.46875 0 L 12.46875 -4.546875 C 12.46875 -5.085938 12.320312 -5.503906 12.03125 -5.796875 C 11.75 -6.085938 11.359375 -6.234375 10.859375 -6.234375 C 10.359375 -6.234375 9.960938 -6.085938 9.671875 -5.796875 C 9.390625 -5.503906 9.25 -5.085938 9.25 -4.546875 L 9.25 0 L 6.703125 0 L 6.703125 -4.546875 C 6.703125 -5.085938 6.554688 -5.503906 6.265625 -5.796875 C 5.984375 -6.085938 5.59375 -6.234375 5.09375 -6.234375 C 4.59375 -6.234375 4.203125 -6.085938 3.921875 -5.796875 C 3.640625 -5.503906 3.5 -5.085938 3.5 -4.546875 L 3.5 0 L 0.9375 0 L 0.9375 -8.375 L 3.5 -8.375 L 3.5 -7.3125 C 3.757812 -7.664062 4.097656 -7.941406 4.515625 -8.140625 C 4.929688 -8.347656 5.40625 -8.453125 5.9375 -8.453125 C 6.570312 -8.453125 7.132812 -8.316406 7.625 -8.046875 C 8.125 -7.785156 8.515625 -7.40625 8.796875 -6.90625 C 9.078125 -7.363281 9.46875 -7.734375 9.96875 -8.015625 C 10.46875 -8.304688 11.015625 -8.453125 11.609375 -8.453125 Z M 11.609375 -8.453125 "/></g></g></g><g fill="#ffffff" fill-opacity="1"><g transform="translate(373.852251, 352.38305)"><g><path d="M 0.421875 -4.203125 C 0.421875 -5.054688 0.582031 -5.804688 0.90625 -6.453125 C 1.226562 -7.109375 1.671875 -7.609375 2.234375 -7.953125 C 2.796875 -8.304688 3.421875 -8.484375 4.109375 -8.484375 C 4.703125 -8.484375 5.21875 -8.363281 5.65625 -8.125 C 6.101562 -7.882812 6.445312 -7.570312 6.6875 -7.1875 L 6.6875 -8.375 L 9.25 -8.375 L 9.25 0 L 6.6875 0 L 6.6875 -1.1875 C 6.4375 -0.789062 6.085938 -0.472656 5.640625 -0.234375 C 5.203125 0.00390625 4.6875 0.125 4.09375 0.125 C 3.414062 0.125 2.796875 -0.0507812 2.234375 -0.40625 C 1.671875 -0.757812 1.226562 -1.265625 0.90625 -1.921875 C 0.582031 -2.578125 0.421875 -3.335938 0.421875 -4.203125 Z M 6.6875 -4.1875 C 6.6875 -4.820312 6.507812 -5.320312 6.15625 -5.6875 C 5.800781 -6.0625 5.367188 -6.25 4.859375 -6.25 C 4.347656 -6.25 3.914062 -6.066406 3.5625 -5.703125 C 3.207031 -5.335938 3.03125 -4.835938 3.03125 -4.203125 C 3.03125 -3.554688 3.207031 -3.046875 3.5625 -2.671875 C 3.914062 -2.296875 4.347656 -2.109375 4.859375 -2.109375 C 5.367188 -2.109375 5.800781 -2.289062 6.15625 -2.65625 C 6.507812 -3.03125 6.6875 -3.539062 6.6875 -4.1875 Z M 6.6875 -4.1875 "/></g></g></g><g fill="#ffffff" fill-opacity="1"><g transform="translate(384.037241, 352.38305)"><g><path d="M 3.5 -6.96875 C 3.789062 -7.4375 4.160156 -7.800781 4.609375 -8.0625 C 5.066406 -8.320312 5.570312 -8.453125 6.125 -8.453125 L 6.125 -5.75 L 5.421875 -5.75 C 4.773438 -5.75 4.289062 -5.609375 3.96875 -5.328125 C 3.65625 -5.054688 3.5 -4.578125 3.5 -3.890625 L 3.5 0 L 0.9375 0 L 0.9375 -8.375 L 3.5 -8.375 Z M 3.5 -6.96875 "/></g></g></g><g fill="#ffffff" fill-opacity="1"><g transform="translate(390.457239, 352.38305)"><g><path d="M 9.484375 -8.375 L 4.234375 3.96875 L 1.46875 3.96875 L 3.390625 -0.28125 L -0.015625 -8.375 L 2.84375 -8.375 L 4.78125 -3.140625 L 6.703125 -8.375 Z M 9.484375 -8.375 "/></g></g></g><g fill="#004aad" fill-opacity="1"><g transform="translate(352.747311, 472.157804)"><g><path d="M 7.484375 -1.859375 L 3.5625 -1.859375 L 2.921875 0 L 0.234375 0 L 4.046875 -10.53125 L 7.015625 -10.53125 L 10.828125 0 L 8.109375 0 Z M 6.828125 -3.84375 L 5.515625 -7.6875 L 4.234375 -3.84375 Z M 6.828125 -3.84375 "/></g></g></g><g fill="#004aad" fill-opacity="1"><g transform="translate(363.802303, 472.157804)"><g><path d="M 3.5 -11.09375 L 3.5 0 L 0.9375 0 L 0.9375 -11.09375 Z M 3.5 -11.09375 "/></g></g></g><g fill="#004aad" fill-opacity="1"><g transform="translate(368.227298, 472.157804)"><g><path d="M 8.8125 -4.3125 C 8.8125 -4.070312 8.800781 -3.820312 8.78125 -3.5625 L 2.96875 -3.5625 C 3.007812 -3.050781 3.175781 -2.65625 3.46875 -2.375 C 3.769531 -2.101562 4.132812 -1.96875 4.5625 -1.96875 C 5.195312 -1.96875 5.640625 -2.238281 5.890625 -2.78125 L 8.625 -2.78125 C 8.488281 -2.226562 8.234375 -1.726562 7.859375 -1.28125 C 7.492188 -0.84375 7.035156 -0.5 6.484375 -0.25 C 5.941406 0 5.332031 0.125 4.65625 0.125 C 3.832031 0.125 3.097656 -0.0507812 2.453125 -0.40625 C 1.816406 -0.757812 1.316406 -1.257812 0.953125 -1.90625 C 0.597656 -2.550781 0.421875 -3.3125 0.421875 -4.1875 C 0.421875 -5.050781 0.597656 -5.804688 0.953125 -6.453125 C 1.304688 -7.109375 1.800781 -7.609375 2.4375 -7.953125 C 3.082031 -8.304688 3.820312 -8.484375 4.65625 -8.484375 C 5.457031 -8.484375 6.171875 -8.3125 6.796875 -7.96875 C 7.429688 -7.632812 7.925781 -7.148438 8.28125 -6.515625 C 8.632812 -5.890625 8.8125 -5.15625 8.8125 -4.3125 Z M 6.1875 -5 C 6.1875 -5.4375 6.035156 -5.785156 5.734375 -6.046875 C 5.441406 -6.304688 5.070312 -6.4375 4.625 -6.4375 C 4.1875 -6.4375 3.820312 -6.3125 3.53125 -6.0625 C 3.238281 -5.8125 3.054688 -5.457031 2.984375 -5 Z M 6.1875 -5 "/></g></g></g><g fill="#004aad" fill-opacity="1"><g transform="translate(377.467291, 472.157804)"><g><path d="M 3.5 -6.96875 C 3.789062 -7.4375 4.160156 -7.800781 4.609375 -8.0625 C 5.066406 -8.320312 5.570312 -8.453125 6.125 -8.453125 L 6.125 -5.75 L 5.421875 -5.75 C 4.773438 -5.75 4.289062 -5.609375 3.96875 -5.328125 C 3.65625 -5.054688 3.5 -4.578125 3.5 -3.890625 L 3.5 0 L 0.9375 0 L 0.9375 -8.375 L 3.5 -8.375 Z M 3.5 -6.96875 "/></g></g></g><g fill="#004aad" fill-opacity="1"><g transform="translate(383.887289, 472.157804)"><g><path d="M 5.59375 -2.171875 L 5.59375 0 L 4.296875 0 C 3.359375 0 2.628906 -0.222656 2.109375 -0.671875 C 1.585938 -1.128906 1.328125 -1.875 1.328125 -2.90625 L 1.328125 -6.234375 L 0.3125 -6.234375 L 0.3125 -8.375 L 1.328125 -8.375 L 1.328125 -10.40625 L 3.90625 -10.40625 L 3.90625 -8.375 L 5.578125 -8.375 L 5.578125 -6.234375 L 3.90625 -6.234375 L 3.90625 -2.875 C 3.90625 -2.625 3.960938 -2.441406 4.078125 -2.328125 C 4.203125 -2.222656 4.40625 -2.171875 4.6875 -2.171875 Z M 5.59375 -2.171875 "/></g></g></g><g fill="#004aad" fill-opacity="1"><g transform="translate(389.977285, 472.157804)"><g><path d="M 4.328125 0.125 C 3.597656 0.125 2.945312 0 2.375 -0.25 C 1.8125 -0.5 1.363281 -0.84375 1.03125 -1.28125 C 0.707031 -1.71875 0.523438 -2.207031 0.484375 -2.75 L 3.015625 -2.75 C 3.046875 -2.457031 3.179688 -2.21875 3.421875 -2.03125 C 3.660156 -1.851562 3.957031 -1.765625 4.3125 -1.765625 C 4.625 -1.765625 4.867188 -1.828125 5.046875 -1.953125 C 5.222656 -2.078125 5.3125 -2.238281 5.3125 -2.4375 C 5.3125 -2.6875 5.1875 -2.867188 4.9375 -2.984375 C 4.6875 -3.097656 4.28125 -3.222656 3.71875 -3.359375 C 3.113281 -3.492188 2.613281 -3.640625 2.21875 -3.796875 C 1.820312 -3.953125 1.476562 -4.195312 1.1875 -4.53125 C 0.894531 -4.875 0.75 -5.328125 0.75 -5.890625 C 0.75 -6.367188 0.878906 -6.804688 1.140625 -7.203125 C 1.410156 -7.597656 1.800781 -7.910156 2.3125 -8.140625 C 2.832031 -8.367188 3.445312 -8.484375 4.15625 -8.484375 C 5.207031 -8.484375 6.035156 -8.222656 6.640625 -7.703125 C 7.242188 -7.191406 7.59375 -6.503906 7.6875 -5.640625 L 5.3125 -5.640625 C 5.269531 -5.929688 5.140625 -6.160156 4.921875 -6.328125 C 4.710938 -6.492188 4.429688 -6.578125 4.078125 -6.578125 C 3.773438 -6.578125 3.546875 -6.519531 3.390625 -6.40625 C 3.234375 -6.289062 3.15625 -6.132812 3.15625 -5.9375 C 3.15625 -5.695312 3.28125 -5.515625 3.53125 -5.390625 C 3.789062 -5.273438 4.1875 -5.160156 4.71875 -5.046875 C 5.34375 -4.878906 5.847656 -4.71875 6.234375 -4.5625 C 6.628906 -4.40625 6.972656 -4.15625 7.265625 -3.8125 C 7.554688 -3.46875 7.707031 -3.007812 7.71875 -2.4375 C 7.71875 -1.9375 7.582031 -1.492188 7.3125 -1.109375 C 7.039062 -0.734375 6.644531 -0.429688 6.125 -0.203125 C 5.613281 0.015625 5.015625 0.125 4.328125 0.125 Z M 4.328125 0.125 "/></g></g></g><path stroke-linecap="butt" transform="matrix(0.75, 0, 0, 0.75, 673.938018, 336.847738)" fill="none" stroke-linejoin="miter" d="M -0.000690127 1.999891 L 19.723269 1.999891 " stroke="#ffffff" stroke-width="4" stroke-opacity="1" stroke-miterlimit="4"/><path stroke-linecap="butt" transform="matrix(0.75, 0, 0, 0.75, 673.938018, 343.848051)" fill="none" stroke-linejoin="miter" d="M -0.000690127 1.999474 L 19.723269 1.999474 " stroke="#ffffff" stroke-width="4" stroke-opacity="1" stroke-miterlimit="4"/><path stroke-linecap="butt" transform="matrix(0.75, 0, 0, 0.75, 673.938018, 350.59805)" fill="none" stroke-linejoin="miter" d="M -0.000690127 1.999475 L 19.723269 1.999475 " stroke="#ffffff" stroke-width="4" stroke-opacity="1" stroke-miterlimit="4"/><g clip-path="url(#b6352daef2)"><g clip-path="url(#e162440e41)"><path stroke-linecap="butt" transform="matrix(0.75, 0, 0, 0.75, 359.190307, 369.836953)" fill="none" stroke-linejoin="miter" d="M 23.996259 -0.00135453 L 143.871265 -0.00135453 C 150.235848 -0.00135453 156.340015 2.529896 160.840015 7.029896 C 165.340016 11.529896 167.871266 17.634063 167.871266 23.998647 L 167.871266 76.425733 C 167.871266 82.790316 165.340016 88.894483 160.840015 93.394484 C 156.340015 97.894484 150.235848 100.420526 143.871265 100.420526 L 23.996259 100.420526 C 17.631675 100.420526 11.527508 97.894484 7.027508 93.394484 C 2.527507 88.894483 0.00146563 82.790316 0.00146563 76.425733 L 0.00146563 23.998647 C 0.00146563 17.634063 2.527507 11.529896 7.027508 7.029896 C 11.527508 2.529896 17.631675 -0.00135453 23.996259 -0.00135453 Z M 23.996259 -0.00135453 " stroke="#004aad" stroke-width="2" stroke-opacity="1" stroke-miterlimit="4"/></g></g><g clip-path="url(#db383d5b3f)"><g clip-path="url(#e21b7b1f95)"><path stroke-linecap="butt" transform="matrix(0.75, 0, 0, 0.75, 507.26225, 369.837481)" fill="none" stroke-linejoin="miter" d="M 23.999294 -0.00205853 L 158.764935 -0.00205853 C 165.129519 -0.00205853 171.233686 2.529192 175.738895 7.029192 C 180.238896 11.529193 182.764938 17.63336 182.764938 23.997944 L 182.764938 76.419825 C 182.764938 82.784409 180.238896 88.888577 175.738895 93.393785 C 171.233686 97.893786 165.129519 100.419828 158.764935 100.419828 L 23.999294 100.419828 C 17.63471 100.419828 11.530543 97.893786 7.030542 93.393785 C 2.530542 88.888577 -0.000708307 82.784409 -0.000708307 76.419825 L -0.000708307 23.997944 C -0.000708307 17.63336 2.530542 11.529193 7.030542 7.029192 C 11.530543 2.529192 17.63471 -0.00205853 23.999294 -0.00205853 Z M 23.999294 -0.00205853 " stroke="#004aad" stroke-width="2" stroke-opacity="1" stroke-miterlimit="4"/></g></g><g clip-path="url(#0bb62acc58)"><path fill="#ff3a6c" d="M 382.761719 443.539062 C 382.445312 443.539062 382.125 443.402344 381.902344 443.140625 C 381.5 442.664062 381.554688 441.953125 382.03125 441.546875 L 401.085938 425.371094 C 401.464844 425.046875 402.011719 425.011719 402.433594 425.28125 L 414.242188 432.9375 L 438.207031 414.484375 C 438.652344 414.140625 439.28125 414.179688 439.683594 414.570312 L 451.609375 426.175781 L 461.617188 416.632812 C 462.066406 416.203125 462.78125 416.21875 463.210938 416.667969 C 463.640625 417.121094 463.625 417.835938 463.171875 418.265625 L 452.378906 428.558594 C 451.941406 428.976562 451.25 428.976562 450.8125 428.550781 L 438.808594 416.871094 L 414.988281 435.214844 C 414.609375 435.507812 414.085938 435.527344 413.683594 435.265625 L 401.910156 427.632812 L 383.492188 443.269531 C 383.28125 443.449219 383.023438 443.539062 382.761719 443.539062 " fill-opacity="1" fill-rule="nonzero"/></g><path fill="#ff3a6c" d="M 404.566406 426.230469 C 404.566406 424.710938 403.335938 423.480469 401.816406 423.480469 C 400.300781 423.480469 399.070312 424.710938 399.070312 426.230469 C 399.070312 427.746094 400.300781 428.976562 401.816406 428.976562 C 403.335938 428.976562 404.566406 427.746094 404.566406 426.230469 " fill-opacity="1" fill-rule="nonzero"/><path fill="#ff3a6c" d="M 417.046875 434.320312 C 417.046875 432.800781 415.816406 431.570312 414.300781 431.570312 C 412.78125 431.570312 411.550781 432.800781 411.550781 434.320312 C 411.550781 435.835938 412.78125 437.066406 414.300781 437.066406 C 415.816406 437.066406 417.046875 435.835938 417.046875 434.320312 " fill-opacity="1" fill-rule="nonzero"/><path fill="#ff3a6c" d="M 441.644531 415.378906 C 441.644531 413.859375 440.414062 412.628906 438.898438 412.628906 C 437.378906 412.628906 436.148438 413.859375 436.148438 415.378906 C 436.148438 416.894531 437.378906 418.125 438.898438 418.125 C 440.414062 418.125 441.644531 416.894531 441.644531 415.378906 " fill-opacity="1" fill-rule="nonzero"/><path fill="#ff3a6c" d="M 454.40625 427.894531 C 454.40625 426.378906 453.175781 425.148438 451.65625 425.148438 C 450.140625 425.148438 448.910156 426.378906 448.910156 427.894531 C 448.910156 429.414062 450.140625 430.644531 451.65625 430.644531 C 453.175781 430.644531 454.40625 429.414062 454.40625 427.894531 " fill-opacity="1" fill-rule="nonzero"/><g clip-path="url(#6b6bd5c262)"><path fill="#ff3a6c" d="M 465.144531 417.449219 C 465.144531 415.929688 463.914062 414.699219 462.394531 414.699219 C 460.875 414.699219 459.644531 415.929688 459.644531 417.449219 C 459.644531 418.96875 460.875 420.199219 462.394531 420.199219 C 463.914062 420.199219 465.144531 418.96875 465.144531 417.449219 " fill-opacity="1" fill-rule="nonzero"/></g><g clip-path="url(#30d770b3ce)"><path fill="#2ab4e3" d="M 382.761719 443.539062 C 382.578125 443.539062 382.394531 443.492188 382.222656 443.398438 C 381.675781 443.101562 381.472656 442.414062 381.773438 441.867188 L 400.828125 406.945312 C 400.984375 406.652344 401.261719 406.445312 401.585938 406.378906 C 401.910156 406.3125 402.246094 406.390625 402.507812 406.589844 L 414.621094 415.964844 L 436.300781 395.566406 C 436.660156 395.226562 437.195312 395.164062 437.625 395.402344 L 448.902344 401.730469 L 461.464844 383.574219 C 461.820312 383.0625 462.523438 382.933594 463.039062 383.289062 C 463.550781 383.644531 463.679688 384.34375 463.324219 384.859375 L 450.171875 403.859375 C 449.84375 404.339844 449.199219 404.488281 448.691406 404.203125 L 437.242188 397.777344 L 415.464844 418.269531 C 415.0625 418.652344 414.441406 418.679688 414 418.339844 L 402.175781 409.1875 L 383.753906 442.949219 C 383.550781 443.324219 383.164062 443.539062 382.761719 443.539062 " fill-opacity="1" fill-rule="nonzero"/></g><g clip-path="url(#adc99d0901)"><path fill="#2ab4e3" d="M 465.144531 384.214844 C 465.144531 382.699219 463.914062 381.46875 462.394531 381.46875 C 460.875 381.46875 459.644531 382.699219 459.644531 384.214844 C 459.644531 385.734375 460.875 386.964844 462.394531 386.964844 C 463.914062 386.964844 465.144531 385.734375 465.144531 384.214844 " fill-opacity="1" fill-rule="nonzero"/></g><path fill="#2ab4e3" d="M 451.65625 402.277344 C 451.65625 400.761719 450.425781 399.53125 448.910156 399.53125 C 447.390625 399.53125 446.160156 400.761719 446.160156 402.277344 C 446.160156 403.796875 447.390625 405.027344 448.910156 405.027344 C 450.425781 405.027344 451.65625 403.796875 451.65625 402.277344 " fill-opacity="1" fill-rule="nonzero"/><path fill="#2ab4e3" d="M 440.074219 396.78125 C 440.074219 395.261719 438.84375 394.03125 437.324219 394.03125 C 435.808594 394.03125 434.578125 395.261719 434.578125 396.78125 C 434.578125 398.300781 435.808594 399.53125 437.324219 399.53125 C 438.84375 399.53125 440.074219 398.300781 440.074219 396.78125 " fill-opacity="1" fill-rule="nonzero"/><path fill="#2ab4e3" d="M 417.046875 416.699219 C 417.046875 415.179688 415.816406 413.949219 414.300781 413.949219 C 412.78125 413.949219 411.550781 415.179688 411.550781 416.699219 C 411.550781 418.214844 412.78125 419.445312 414.300781 419.445312 C 415.816406 419.445312 417.046875 418.214844 417.046875 416.699219 " fill-opacity="1" fill-rule="nonzero"/><path fill="#2ab4e3" d="M 404.566406 407.484375 C 404.566406 405.964844 403.335938 404.734375 401.816406 404.734375 C 400.300781 404.734375 399.070312 405.964844 399.070312 407.484375 C 399.070312 409.003906 400.300781 410.230469 401.816406 410.230469 C 403.335938 410.230469 404.566406 409.003906 404.566406 407.484375 " fill-opacity="1" fill-rule="nonzero"/><g clip-path="url(#805f73f252)"><path fill="#ffffff" d="M 462.394531 443.914062 L 382.761719 443.914062 C 381.933594 443.914062 381.257812 443.242188 381.257812 442.410156 L 381.257812 372.558594 C 381.257812 371.726562 381.933594 371.054688 382.761719 371.054688 C 383.59375 371.054688 384.269531 371.726562 384.269531 372.558594 L 384.269531 440.902344 L 462.394531 440.902344 C 463.226562 440.902344 463.898438 441.578125 463.898438 442.410156 C 463.898438 443.242188 463.226562 443.914062 462.394531 443.914062 " fill-opacity="1" fill-rule="nonzero"/></g><g clip-path="url(#baffae7d39)"><g clip-path="url(#f0ad433ee7)"><g clip-path="url(#17eb8792d8)"><path fill="#3954a3" d="M 517.726562 384.472656 C 517.738281 384.464844 517.75 384.457031 517.761719 384.449219 C 517.8125 384.421875 517.867188 384.40625 517.921875 384.40625 L 546.371094 383.460938 L 552.59375 377.675781 C 552.65625 377.621094 552.738281 377.585938 552.824219 377.582031 L 561.054688 377.269531 C 561.257812 377.253906 561.429688 377.40625 561.445312 377.605469 C 561.460938 377.804688 561.308594 377.980469 561.109375 377.996094 C 561.101562 377.996094 561.09375 377.992188 561.082031 377.996094 L 552.992188 378.300781 L 546.765625 384.085938 C 546.703125 384.148438 546.617188 384.179688 546.53125 384.183594 L 517.953125 385.128906 C 517.753906 385.140625 517.582031 384.988281 517.570312 384.785156 C 517.558594 384.664062 517.621094 384.542969 517.726562 384.472656 Z M 526.570312 395.070312 C 526.574219 395.066406 526.574219 395.066406 526.578125 395.066406 C 526.628906 395.035156 526.683594 395.023438 526.738281 395.023438 L 561.871094 393.390625 C 562.074219 393.382812 562.246094 393.535156 562.253906 393.738281 C 562.261719 393.9375 562.109375 394.109375 561.90625 394.117188 L 526.773438 395.75 C 526.570312 395.765625 526.402344 395.613281 526.382812 395.410156 C 526.375 395.269531 526.449219 395.140625 526.570312 395.070312 Z M 528.664062 402.574219 C 528.71875 402.535156 528.789062 402.519531 528.859375 402.515625 L 546.605469 402.304688 C 546.726562 402.304688 546.839844 402.359375 546.90625 402.460938 L 553.011719 411.089844 L 582.574219 411.65625 C 582.773438 411.644531 582.945312 411.804688 582.957031 412.003906 C 582.964844 412.203125 582.808594 412.375 582.609375 412.382812 C 582.59375 412.386719 582.574219 412.382812 582.5625 412.382812 L 552.8125 411.8125 C 552.699219 411.808594 552.589844 411.75 552.527344 411.65625 L 546.425781 403.03125 L 528.871094 403.238281 C 528.667969 403.246094 528.503906 403.089844 528.496094 402.886719 C 528.488281 402.765625 528.550781 402.644531 528.664062 402.574219 Z M 577.777344 382.582031 C 577.789062 382.574219 577.796875 382.570312 577.8125 382.5625 C 577.863281 382.539062 577.921875 382.523438 577.976562 382.527344 L 597.214844 382.398438 C 597.414062 382.386719 597.589844 382.539062 597.597656 382.738281 C 597.609375 382.941406 597.457031 383.113281 597.257812 383.125 C 597.246094 383.125 597.230469 383.125 597.214844 383.125 L 577.980469 383.257812 C 577.78125 383.265625 577.613281 383.105469 577.605469 382.90625 C 577.601562 382.769531 577.667969 382.652344 577.777344 382.582031 Z M 527.125 421.433594 C 527.195312 421.390625 527.277344 421.375 527.359375 421.382812 L 550.144531 423.921875 C 550.292969 423.941406 550.417969 424.042969 550.457031 424.1875 L 553.378906 434.757812 L 567.765625 435.148438 L 572.699219 428.386719 C 572.769531 428.289062 572.878906 428.238281 572.992188 428.238281 L 592.851562 428.117188 C 593.050781 428.113281 593.214844 428.277344 593.21875 428.480469 C 593.222656 428.679688 593.058594 428.84375 592.859375 428.847656 L 573.179688 428.964844 L 568.238281 435.726562 C 568.167969 435.824219 568.054688 435.882812 567.9375 435.875 L 553.085938 435.46875 C 552.929688 435.464844 552.789062 435.359375 552.746094 435.207031 L 549.816406 424.613281 L 527.277344 422.101562 C 527.078125 422.082031 526.929688 421.902344 526.953125 421.703125 C 526.964844 421.59375 527.027344 421.492188 527.125 421.433594 Z M 574.902344 398.386719 C 574.960938 398.351562 575.03125 398.328125 575.097656 398.328125 L 595.1875 398.171875 L 600.980469 392.058594 C 601.042969 391.992188 601.132812 391.953125 601.226562 391.945312 L 620.769531 391.007812 C 620.972656 390.992188 621.144531 391.140625 621.160156 391.34375 C 621.171875 391.546875 621.023438 391.722656 620.820312 391.734375 C 620.8125 391.734375 620.804688 391.734375 620.804688 391.734375 L 601.410156 392.667969 L 595.613281 398.785156 C 595.546875 398.855469 595.453125 398.898438 595.355469 398.898438 L 575.109375 399.058594 C 574.90625 399.0625 574.738281 398.902344 574.738281 398.699219 C 574.734375 398.570312 574.800781 398.453125 574.902344 398.386719 Z M 588.300781 404.234375 C 588.359375 404.199219 588.429688 404.183594 588.5 404.183594 L 600.128906 404.378906 C 600.265625 404.378906 600.386719 404.453125 600.445312 404.570312 L 604.410156 412.050781 L 613.339844 411.761719 C 613.625 410.914062 614.191406 410.1875 614.945312 409.707031 C 616.765625 408.542969 619.183594 409.078125 620.34375 410.902344 C 621.503906 412.722656 620.96875 415.140625 619.148438 416.300781 C 617.324219 417.460938 614.910156 416.925781 613.75 415.105469 C 613.257812 414.332031 613.054688 413.402344 613.171875 412.496094 L 604.207031 412.78125 C 604.070312 412.789062 603.9375 412.710938 603.875 412.589844 L 599.902344 405.097656 L 588.488281 404.910156 C 588.285156 404.910156 588.121094 404.75 588.121094 404.546875 C 588.121094 404.421875 588.191406 404.300781 588.300781 404.234375 Z M 581.898438 441.609375 C 581.957031 441.574219 582.027344 441.554688 582.09375 441.554688 L 598.964844 441.570312 L 607.753906 427.644531 C 607.816406 427.542969 607.925781 427.484375 608.042969 427.476562 L 621.226562 426.882812 C 621.429688 426.875 621.597656 427.03125 621.609375 427.230469 C 621.621094 427.429688 621.460938 427.601562 621.261719 427.613281 L 608.265625 428.199219 L 599.46875 442.132812 C 599.402344 442.238281 599.285156 442.300781 599.160156 442.304688 L 582.09375 442.289062 C 581.890625 442.289062 581.726562 442.132812 581.722656 441.933594 C 581.71875 441.796875 581.789062 441.675781 581.898438 441.609375 Z M 581.898438 441.609375 " fill-opacity="1" fill-rule="nonzero"/></g></g></g><g clip-path="url(#c56e574a67)"><g clip-path="url(#dda9c93b1f)"><g clip-path="url(#114b3e8931)"><path fill="#6cc8ff" d="M 560.835938 374.085938 C 562.660156 372.921875 565.074219 373.457031 566.234375 375.28125 C 567.398438 377.101562 566.859375 379.519531 565.039062 380.679688 C 563.21875 381.839844 560.800781 381.304688 559.640625 379.484375 C 558.480469 377.660156 559.019531 375.242188 560.835938 374.085938 Z M 561.796875 391.15625 C 563.617188 389.996094 566.03125 390.53125 567.195312 392.351562 C 568.355469 394.175781 567.820312 396.589844 565.996094 397.753906 C 564.175781 398.914062 561.761719 398.378906 560.597656 396.554688 C 559.4375 394.734375 559.976562 392.316406 561.796875 391.15625 Z M 596.035156 380.488281 C 597.855469 379.328125 600.273438 379.863281 601.433594 381.683594 C 602.59375 383.507812 602.058594 385.921875 600.238281 387.082031 C 598.414062 388.246094 596 387.710938 594.839844 385.886719 C 593.679688 384.066406 594.214844 381.648438 596.035156 380.488281 Z M 581.5 409.222656 C 583.324219 408.0625 585.738281 408.597656 586.898438 410.417969 C 588.0625 412.242188 587.527344 414.65625 585.703125 415.816406 C 583.882812 416.976562 581.464844 416.441406 580.304688 414.621094 C 579.144531 412.800781 579.683594 410.382812 581.5 409.222656 Z M 620.476562 388.746094 C 622.300781 387.585938 624.714844 388.121094 625.875 389.945312 C 627.039062 391.765625 626.5 394.179688 624.679688 395.34375 C 622.859375 396.503906 620.441406 395.96875 619.28125 394.144531 C 618.121094 392.324219 618.660156 389.90625 620.476562 388.746094 Z M 592.039062 425.757812 C 593.859375 424.597656 596.277344 425.132812 597.4375 426.957031 C 598.597656 428.777344 598.0625 431.191406 596.242188 432.355469 C 594.417969 433.515625 592.003906 432.980469 590.84375 431.15625 C 589.679688 429.335938 590.21875 426.917969 592.039062 425.757812 Z M 620.480469 424.785156 C 622.304688 423.621094 624.71875 424.15625 625.878906 425.980469 C 627.042969 427.800781 626.507812 430.21875 624.683594 431.378906 C 622.863281 432.539062 620.445312 432.003906 619.285156 430.183594 C 618.125 428.359375 618.660156 425.945312 620.480469 424.785156 Z M 620.480469 424.785156 " fill-opacity="1" fill-rule="nonzero"/></g></g></g><g clip-path="url(#567d50e8b7)"><path fill="#3954a3" d="M 339.070312 459.84375 C 338.636719 459.84375 338.210938 459.886719 337.789062 459.972656 C 337.367188 460.054688 336.957031 460.179688 336.558594 460.34375 C 336.160156 460.507812 335.78125 460.710938 335.421875 460.949219 C 335.0625 461.191406 334.734375 461.460938 334.429688 461.765625 C 334.125 462.070312 333.851562 462.402344 333.613281 462.761719 C 333.371094 463.121094 333.171875 463.5 333.003906 463.894531 C 332.839844 464.292969 332.714844 464.703125 332.632812 465.128906 C 332.546875 465.550781 332.507812 465.976562 332.507812 466.40625 C 332.507812 466.839844 332.546875 467.265625 332.632812 467.6875 C 332.714844 468.109375 332.839844 468.519531 333.003906 468.917969 C 333.171875 469.316406 333.371094 469.695312 333.613281 470.054688 C 333.851562 470.410156 334.125 470.742188 334.429688 471.046875 C 334.734375 471.351562 335.0625 471.625 335.421875 471.863281 C 335.78125 472.105469 336.160156 472.304688 336.558594 472.46875 C 336.957031 472.636719 337.367188 472.761719 337.789062 472.84375 C 338.210938 472.929688 338.636719 472.96875 339.070312 472.96875 C 339.5 472.96875 339.925781 472.929688 340.347656 472.84375 C 340.769531 472.761719 341.183594 472.636719 341.578125 472.46875 C 341.976562 472.304688 342.355469 472.105469 342.714844 471.863281 C 343.074219 471.625 343.402344 471.351562 343.707031 471.046875 C 344.011719 470.742188 344.285156 470.410156 344.523438 470.054688 C 344.765625 469.695312 344.964844 469.316406 345.132812 468.917969 C 345.296875 468.519531 345.421875 468.109375 345.503906 467.6875 C 345.589844 467.265625 345.632812 466.839844 345.632812 466.40625 C 345.632812 465.976562 345.589844 465.550781 345.503906 465.128906 C 345.421875 464.703125 345.296875 464.292969 345.132812 463.894531 C 344.964844 463.5 344.765625 463.121094 344.523438 462.761719 C 344.285156 462.402344 344.011719 462.070312 343.707031 461.765625 C 343.402344 461.460938 343.074219 461.191406 342.714844 460.949219 C 342.355469 460.710938 341.976562 460.507812 341.578125 460.34375 C 341.183594 460.179688 340.769531 460.054688 340.347656 459.972656 C 339.925781 459.886719 339.5 459.84375 339.070312 459.84375 Z M 339.070312 471.777344 C 338.714844 471.777344 338.367188 471.742188 338.019531 471.671875 C 337.675781 471.605469 337.339844 471.503906 337.015625 471.367188 C 336.6875 471.234375 336.378906 471.066406 336.085938 470.871094 C 335.792969 470.675781 335.519531 470.453125 335.273438 470.203125 C 335.023438 469.953125 334.800781 469.683594 334.605469 469.390625 C 334.410156 469.097656 334.242188 468.789062 334.109375 468.460938 C 333.972656 468.136719 333.871094 467.800781 333.800781 467.457031 C 333.734375 467.109375 333.699219 466.761719 333.699219 466.40625 C 333.699219 466.054688 333.734375 465.707031 333.800781 465.359375 C 333.871094 465.015625 333.972656 464.679688 334.109375 464.351562 C 334.242188 464.027344 334.410156 463.71875 334.605469 463.425781 C 334.800781 463.132812 335.023438 462.859375 335.273438 462.609375 C 335.519531 462.363281 335.792969 462.140625 336.085938 461.941406 C 336.378906 461.746094 336.6875 461.582031 337.015625 461.445312 C 337.339844 461.3125 337.675781 461.210938 338.019531 461.140625 C 338.367188 461.074219 338.714844 461.039062 339.070312 461.039062 C 339.421875 461.039062 339.769531 461.074219 340.117188 461.140625 C 340.460938 461.210938 340.796875 461.3125 341.125 461.445312 C 341.449219 461.582031 341.757812 461.746094 342.050781 461.941406 C 342.34375 462.140625 342.617188 462.363281 342.863281 462.609375 C 343.113281 462.859375 343.335938 463.132812 343.53125 463.425781 C 343.730469 463.71875 343.894531 464.027344 344.027344 464.351562 C 344.164062 464.679688 344.265625 465.015625 344.335938 465.359375 C 344.402344 465.707031 344.4375 466.054688 344.4375 466.40625 C 344.4375 466.761719 344.402344 467.109375 344.335938 467.457031 C 344.265625 467.800781 344.164062 468.136719 344.027344 468.460938 C 343.894531 468.789062 343.730469 469.097656 343.53125 469.390625 C 343.335938 469.683594 343.113281 469.953125 342.863281 470.203125 C 342.617188 470.453125 342.34375 470.675781 342.050781 470.871094 C 341.757812 471.066406 341.449219 471.234375 341.125 471.367188 C 340.796875 471.503906 340.460938 471.605469 340.117188 471.671875 C 339.769531 471.742188 339.421875 471.777344 339.070312 471.777344 Z M 339.070312 471.777344 " fill-opacity="1" fill-rule="nonzero"/></g><path fill="#3954a3" d="M 339.070312 462.230469 C 338.902344 462.230469 338.761719 462.289062 338.648438 462.40625 C 338.53125 462.523438 338.472656 462.664062 338.472656 462.828125 L 338.472656 467.601562 C 338.472656 467.765625 338.53125 467.90625 338.648438 468.023438 C 338.761719 468.140625 338.902344 468.199219 339.070312 468.199219 C 339.234375 468.199219 339.375 468.140625 339.492188 468.023438 C 339.605469 467.90625 339.664062 467.765625 339.664062 467.601562 L 339.664062 462.828125 C 339.664062 462.664062 339.605469 462.523438 339.492188 462.40625 C 339.375 462.289062 339.234375 462.230469 339.070312 462.230469 Z M 339.070312 462.230469 " fill-opacity="1" fill-rule="nonzero"/><path fill="#3954a3" d="M 339.664062 469.390625 C 339.664062 469.554688 339.605469 469.695312 339.492188 469.8125 C 339.375 469.929688 339.234375 469.988281 339.070312 469.988281 C 338.902344 469.988281 338.761719 469.929688 338.648438 469.8125 C 338.53125 469.695312 338.472656 469.554688 338.472656 469.390625 C 338.472656 469.226562 338.53125 469.085938 338.648438 468.96875 C 338.761719 468.851562 338.902344 468.792969 339.070312 468.792969 C 339.234375 468.792969 339.375 468.851562 339.492188 468.96875 C 339.605469 469.085938 339.664062 469.226562 339.664062 469.390625 Z M 339.664062 469.390625 " fill-opacity="1" fill-rule="nonzero"/><path stroke-linecap="butt" transform="matrix(0.75, 0, 0, 0.75, 345.642701, 491.087803)" fill="none" stroke-linejoin="miter" d="M 0.00243992 1.997512 L 437.72642 1.997512 " stroke="#6cc8ff" stroke-width="4" stroke-opacity="1" stroke-miterlimit="4"/><path stroke-linecap="butt" transform="matrix(0.75, 0.000000000000000195, -0.000000000000000195, 0.75, 345.642701, 499.337803)" fill="none" stroke-linejoin="miter" d="M 0.00243992 1.997513 L 437.72642 1.997513 " stroke="#6cc8ff" stroke-width="4" stroke-opacity="1" stroke-miterlimit="4"/><path stroke-linecap="butt" transform="matrix(0.75, 0, 0, 0.75, 345.642701, 507.587802)" fill="none" stroke-linejoin="miter" d="M 0.00243992 1.997513 L 398.273293 1.997513 " stroke="#6cc8ff" stroke-width="4" stroke-opacity="1" stroke-miterlimit="4"/><path stroke-linecap="butt" transform="matrix(0.75, 0, 0, 0.75, 345.642701, 517.337802)" fill="none" stroke-linejoin="miter" d="M 0.00243992 1.997514 L 356.981625 1.997514 " stroke="#6cc8ff" stroke-width="4" stroke-opacity="1" stroke-miterlimit="4"/><g clip-path="url(#a81862f0b8)"><path stroke-linecap="butt" transform="matrix(0.0927347, 0, 0, 0.0927347, 108.105387, 421.023215)" fill-opacity="1" fill="#022554" fill-rule="evenodd" stroke-linejoin="miter" d="M 745.490787 1.518823 L 752.019826 1.518823 L 779.989387 16.009078 C 798.649802 25.655207 810.991793 32.015755 817.015358 35.006476 C 822.9968 37.997197 843.426374 47.769694 878.261957 64.239722 C 913.097541 80.751873 931.08399 89.092194 932.26343 89.260685 C 933.400746 89.429176 942.66777 93.3466 959.980254 101.012956 C 977.334861 108.679311 990.645677 114.323771 999.996946 117.988457 C 1009.348215 121.653144 1022.827521 126.665761 1040.519111 132.984186 C 1058.168578 139.344734 1069.331129 143.346403 1074.006764 144.989193 C 1078.682398 146.674107 1084.495349 148.65388 1091.48774 151.012759 C 1098.48013 153.329514 1107.494416 156.151744 1118.488476 159.479448 C 1129.482535 162.849275 1143.509439 166.850944 1160.484941 171.484456 C 1177.502565 176.16009 1194.014716 180.330251 1209.97927 183.994937 C 1225.985946 187.659624 1236.348163 190.018502 1240.981675 190.987327 C 1245.657309 191.998275 1260.484547 194.820505 1285.50551 199.49614 C 1310.48435 204.171774 1326.154044 206.994004 1332.514592 208.004952 C 1338.833017 209.0159 1354.334219 211.501147 1379.0182 215.502816 C 1403.660057 219.504486 1416.170539 221.484259 1416.507521 221.484259 C 1416.844504 221.484259 1428.849511 223.843137 1452.480421 228.518772 C 1476.153453 233.152284 1488.074215 235.595408 1488.242706 235.763899 L 1488.495443 236.016636 L 1486.979021 310.489806 C 1486.010196 360.152626 1483.482826 424.347824 1479.481157 502.991154 C 1475.479488 581.676606 1472.320275 636.646904 1470.00352 667.986292 C 1467.686764 699.32568 1464.990902 726.157925 1462.000181 748.483026 C 1459.00946 770.850251 1455.513265 791.995913 1451.511596 812.004259 C 1447.509927 832.012605 1443.171275 852.147319 1438.49564 872.492647 C 1433.820006 892.837976 1429.649845 910.655934 1425.985159 925.988646 C 1422.320472 941.321357 1417.98182 957.833508 1413.011326 975.482975 C 1407.998709 993.174565 1405.007988 1003.831642 1403.99704 1007.496328 C 1402.986092 1011.161015 1401.511793 1015.836649 1399.489897 1021.481109 C 1397.510124 1027.167691 1395.151245 1034.160082 1392.497506 1042.500403 C 1389.843768 1050.840724 1385.673607 1062.845731 1379.987025 1078.515425 C 1374.342565 1094.185119 1369.666931 1106.653478 1366.002244 1116.004747 C 1362.337558 1125.313893 1357.830415 1136.518567 1352.480815 1149.492399 C 1347.173338 1162.508355 1340.349439 1178.178049 1332.009118 1196.501481 C 1323.668797 1214.824914 1318.65618 1225.481991 1317.013389 1228.514835 C 1315.328476 1231.505556 1309.262788 1242.41537 1298.732079 1261.244276 C 1288.243494 1280.073182 1281.925069 1291.235733 1279.734682 1294.731928 C 1277.586417 1298.270246 1272.405309 1307.073919 1264.233479 1321.269313 C 1256.103772 1335.422585 1250.754172 1344.436872 1248.268925 1348.27005 C 1245.741555 1352.103227 1241.908377 1358.08467 1236.769392 1366.256499 C 1231.588283 1374.428329 1227.418123 1380.746754 1224.25891 1385.253897 C 1221.099698 1389.76104 1217.435011 1395.068517 1213.264851 1401.260574 C 1209.09469 1407.410508 1205.093021 1413.09709 1201.259843 1418.236076 C 1197.426665 1423.417184 1194.435944 1427.755836 1192.245557 1431.252031 C 1190.097292 1434.748226 1186.895957 1439.25537 1182.767919 1444.731338 C 1178.597759 1450.249429 1174.59609 1455.76752 1170.762912 1461.243489 C 1166.929734 1466.76158 1162.759574 1472.406039 1158.25243 1478.261113 C 1153.745287 1484.074064 1149.912109 1489.086681 1146.752897 1493.256842 C 1143.593684 1497.427002 1136.854031 1505.346095 1126.491814 1517.01412 C 1116.17172 1528.682145 1103.998221 1541.99296 1090.01344 1556.988689 C 1075.986537 1571.984417 1063.68667 1584.831881 1052.98747 1595.488958 C 1042.330393 1606.146035 1035.253757 1612.927811 1031.757562 1615.750041 C 1028.261367 1618.572271 1020.089537 1625.733153 1007.242073 1637.232686 C 994.436732 1648.73222 986.601885 1655.766733 983.737532 1658.25198 C 980.915302 1660.737227 973.922912 1666.929284 962.760361 1676.743904 C 951.59781 1686.600647 944.268437 1692.919072 940.730119 1695.741302 C 937.233924 1698.563531 933.232255 1701.933358 928.767235 1705.766536 C 924.260091 1709.599714 917.983789 1714.822945 909.980451 1721.520475 C 902.019235 1728.175883 895.911425 1733.104255 891.741264 1736.263467 C 887.571104 1739.42268 883.569434 1742.244909 879.736257 1744.730157 C 875.903079 1747.257527 868.910688 1751.596178 858.759086 1757.746112 C 848.56536 1763.896046 841.909952 1768.066206 838.75074 1770.256594 C 835.591527 1772.404858 832.011086 1774.679491 828.009417 1776.996247 C 824.007748 1779.313003 819.837588 1782.008864 815.498936 1784.999585 C 811.160284 1787.990306 808.001071 1790.180694 805.979175 1791.486502 C 803.999402 1792.834432 799.66075 1795.151188 793.005343 1798.521015 C 786.349935 1801.848719 778.346597 1805.681896 768.995328 1810.020548 C 759.686182 1814.317077 753.157142 1817.18143 749.492456 1818.487238 L 744.016488 1820.509134 L 737.992922 1818.992712 C 733.991253 1817.981764 729.652601 1816.338973 725.01909 1813.980095 C 720.343455 1811.663339 712.508608 1807.66167 701.514549 1802.01721 C 690.520489 1796.330627 684.159942 1792.834432 682.517151 1791.486502 C 680.832238 1790.180694 676.577832 1787.232095 669.753933 1782.767075 C 662.930034 1778.259932 657.748925 1774.932228 654.25273 1772.741841 C 650.756535 1770.593576 643.932636 1766.423416 633.73891 1760.231359 C 623.587307 1754.081426 616.594917 1749.742774 612.761739 1747.257527 C 608.928561 1744.730157 604.926892 1741.907927 600.756732 1738.748714 C 596.586571 1735.589502 591.826691 1731.84057 586.519214 1727.501918 C 581.169614 1723.163266 574.092978 1717.266069 565.247183 1709.768205 C 556.401388 1702.270341 548.735032 1695.741302 542.248116 1690.265333 C 535.7612 1684.747242 526.241439 1676.406921 513.730958 1665.24437 C 501.262599 1654.081819 493.259261 1647.089429 489.763066 1644.267199 C 486.266871 1641.402847 478.600515 1634.747439 466.763999 1624.258853 C 454.927483 1613.770268 448.314198 1607.830948 447.00839 1606.483018 C 445.660459 1605.17721 439.763263 1599.23789 429.232554 1588.749305 C 418.743969 1578.260719 411.414596 1570.762855 407.244435 1566.255712 C 403.074275 1561.748569 393.93362 1551.765457 379.738225 1536.264255 C 365.584953 1520.763052 357.076141 1511.243292 354.253911 1507.747096 C 351.431681 1504.250901 347.261521 1499.069793 341.74343 1492.245894 C 336.267461 1485.421995 331.928809 1479.903904 328.769597 1475.733743 C 325.568262 1471.563583 322.409049 1467.267054 319.249837 1462.759911 C 316.090624 1458.252767 312.76292 1453.577133 309.266725 1448.733007 C 305.77053 1443.931004 302.569195 1439.592352 299.746965 1435.759174 C 296.924735 1431.925997 294.481611 1428.514047 292.501837 1425.481203 C 290.479941 1422.490482 287.741957 1418.573058 284.245762 1413.771055 C 280.749567 1408.92693 277.758846 1404.588278 275.231476 1400.7551 C 272.746229 1396.921922 269.418525 1391.909305 265.248364 1385.759371 C 261.078204 1379.567315 257.918991 1374.765312 255.770727 1371.269117 C 253.58034 1367.730799 250.084144 1362.25483 245.240019 1354.756966 C 240.395893 1347.259102 237.23668 1342.077993 235.762381 1339.255763 C 234.245959 1336.433533 230.075799 1329.230529 223.2519 1317.730995 C 216.428001 1306.231462 211.920857 1298.733598 209.73047 1295.237402 C 207.582206 1291.741207 202.14836 1282.179324 193.513179 1266.50963 C 184.835876 1250.839936 178.348959 1239.00342 174.010307 1231.000082 C 169.671656 1222.996743 165.838478 1215.498879 162.510774 1208.506489 C 159.18307 1201.514098 154.507436 1190.98339 148.48387 1176.998609 C 142.502428 1163.013829 139.511707 1155.852947 139.511707 1155.515964 C 139.511707 1155.178982 136.520986 1147.512626 130.497421 1132.516897 C 124.515978 1117.479046 119.840344 1105.684653 116.51264 1097.007349 C 113.184936 1088.330045 108.509302 1075.145598 102.485736 1057.496131 C 96.504294 1039.846664 90.480729 1021.017758 84.499287 1001.009412 C 78.517844 981.001066 71.820314 956.654068 64.490941 928.010542 C 57.161568 899.324892 51.980459 878.010739 48.989738 863.983835 C 45.999017 849.999054 41.828857 829.653726 36.479257 802.989973 C 31.17178 776.326219 28.012567 758.845243 27.001619 750.504922 C 25.990671 742.164601 23.842407 716.680287 20.514703 674.009857 C 17.186999 631.339427 14.996612 599.157582 13.985664 577.506446 C 13.016839 555.813187 11.837399 532.81412 10.489469 508.509245 C 9.183661 484.162247 7.330256 444.314047 5.0135 389.006767 C 2.654622 333.657364 1.517305 294.483129 1.517305 271.484062 L 1.517305 236.985461 L 4.760763 235.258425 C 6.909028 234.078986 12.848347 232.64681 22.494476 231.004019 C 32.182728 229.319106 45.493543 227.170841 62.511168 224.517103 C 79.486669 221.821241 105.350089 217.48259 140.017181 211.501147 C 174.684273 205.519705 199.494622 201.181053 214.49035 198.485192 C 229.486079 195.831453 249.325933 191.661293 274.009914 186.016833 C 298.651771 180.330251 320.008048 174.980651 337.994497 170.010156 C 355.980947 164.997539 371.48215 160.321905 384.498105 155.983253 C 397.514061 151.686724 407.665664 148.316897 414.995037 146.000141 C 422.32441 143.683386 429.3168 141.324507 436.014331 139.007751 C 442.669738 136.648873 455.980554 131.678378 475.988899 124.012023 C 495.997245 116.345667 514.741906 108.595066 532.265005 100.760219 C 549.74598 92.925372 559.097249 88.923702 560.234566 88.755211 C 561.414005 88.58672 569.838572 84.837788 585.508266 77.508415 C 601.17796 70.179042 615.331232 63.481511 628.010205 57.500069 C 640.647055 51.518626 653.157536 45.495061 665.499526 39.513619 C 677.841517 33.490054 693.174228 25.655207 711.49766 16.009078 L 739.00387 1.518823 Z M 745.490787 1.518823 " stroke="#000000" stroke-width="2" stroke-opacity="1" stroke-miterlimit="4"/></g><g clip-path="url(#469be6cb23)"><path fill="#ffffff" d="M 213.082031 474.414062 C 210.84375 472.179688 207.214844 472.179688 204.980469 474.414062 C 204.980469 474.414062 170.140625 509.253906 164.121094 515.273438 C 163.886719 515.507812 163.570312 515.636719 163.238281 515.636719 C 162.910156 515.636719 162.59375 515.507812 162.359375 515.273438 C 159.308594 512.222656 149.375 502.292969 149.375 502.292969 C 147.140625 500.054688 143.511719 500.054688 141.273438 502.292969 C 139.039062 504.523438 139.039062 508.15625 141.273438 510.390625 C 141.273438 510.390625 154.703125 523.824219 158.308594 527.425781 C 159.617188 528.730469 161.390625 529.46875 163.238281 529.46875 C 165.089844 529.46875 166.863281 528.730469 168.171875 527.425781 C 174.523438 521.074219 213.082031 482.515625 213.082031 482.515625 C 215.316406 480.277344 215.316406 476.648438 213.082031 474.414062 Z M 213.082031 474.414062 " fill-opacity="1" fill-rule="evenodd"/></g></svg>