<?xml version="1.0" encoding="UTF-8"?> <svg xmlns="http://www.w3.org/2000/svg" id="Layer_1" viewBox="0 0 600 350"><defs><style>.cls-1,.cls-2,.cls-3,.cls-4,.cls-5,.cls-6,.cls-7,.cls-8,.cls-9,.cls-10,.cls-11,.cls-12,.cls-13{stroke-linejoin:round;}.cls-1,.cls-2,.cls-3,.cls-5,.cls-6,.cls-7,.cls-8,.cls-9,.cls-10,.cls-11,.cls-12,.cls-13{stroke-linecap:round;}.cls-1,.cls-3{stroke:#85c7c6;}.cls-1,.cls-14,.cls-7,.cls-9,.cls-10{fill:#fff;}.cls-2,.cls-3,.cls-4,.cls-11,.cls-12,.cls-13{fill:none;}.cls-2,.cls-15,.cls-8{stroke:#ffcd4f;}.cls-16{font-family:Arial-BoldMT, Arial;font-size:13.56px;font-weight:700;}.cls-16,.cls-17{fill:#abc8c2;}.cls-16,.cls-4{isolation:isolate;}.cls-18{fill:#005547;}.cls-19,.cls-20{fill:#e6f2f2;}.cls-21{fill:#fdcf3d;}.cls-4{opacity:.3;}.cls-4,.cls-15,.cls-6,.cls-7,.cls-8,.cls-10,.cls-11,.cls-12,.cls-13{stroke-width:.8px;}.cls-4,.cls-6,.cls-20,.cls-9,.cls-10,.cls-11{stroke:#025546;}.cls-15,.cls-8{fill:#ffcd4f;}.cls-5{fill:#5da847;stroke:#4ea74e;}.cls-5,.cls-9{stroke-width:.8px;}.cls-6{fill:#85c7c6;}.cls-20{fill-rule:evenodd;stroke-width:.75px;}.cls-7,.cls-13{stroke:#abc8c2;}.cls-12{stroke:#e6f2f2;}</style></defs><g id="Overview-Page"><g id="Desktop---MS---Overview_1"><g id="MS_Boundless-automation"><g id="Group"><path id="Path" class="cls-19" d="M450.04,128.59c-81.47-46.94-213.54-46.94-294.96,0-41.86,24.1-62.13,55.85-61.15,87.43v11.8c0,30.76,20.38,61.53,61.09,84.97,81.47,46.94,213.54,46.94,294.96,0,40.71-23.5,61.09-54.21,61.09-84.97v-14.21c.05-30.82-20.33-61.53-61.04-85.02Z"></path><path id="Path-2" class="cls-10" d="M76.06,216.02v11.8c0,30.76,20.38,61.53,61.09,84.97,81.47,46.94,213.54,46.94,294.96,0,40.76-23.44,61.15-54.21,61.15-84.97v-14.21l-417.2,2.4Z"></path><ellipse id="Oval" class="cls-10" cx="284.69" cy="213.56" rx="208.63" ry="120.21"></ellipse><path id="Path-3" class="cls-12" d="M284.69,323.34c-53.93,0-104.42-12.02-142.29-33.82-36.01-20.76-55.9-47.7-55.9-75.95s19.89-55.13,55.9-75.9c37.81-21.8,88.36-33.82,142.29-33.82s104.42,12.02,142.29,33.82c36.01,20.76,55.85,47.7,55.85,75.95s-19.84,55.19-55.85,75.95c-37.87,21.75-88.41,33.77-142.29,33.77Z"></path></g></g></g></g><g id="Group-2"><path id="Path-4" class="cls-19" d="M133.88,206.27l131.31,75.57c4.75,2.73,12.46,2.73,17.27,0l88.63-51.09c4.75-2.73,4.75-7.21,0-9.95l-131.31-75.52c-4.75-2.73-12.46-2.73-17.27,0l-88.63,51.04c-4.7,2.79-4.7,7.21,0,9.95Z"></path><g><path id="Path-5" class="cls-10" d="M369.99,223.6v-34.1l-66.5-6.5-68.36-39.34c-4.75-2.73-12.46-2.73-17.27,0l-45.95,26.45-46.28-4.54v33.93c-.05,1.86,1.15,3.72,3.55,5.14l131.42,75.63c4.75,2.73,12.46,2.73,17.27,0l88.63-51.09c2.62-1.53,3.83-3.55,3.5-5.57Z"></path><g id="Path-6"><polygon class="cls-10" points="138.66 201.58 177.02 223.66 177.02 218.14 138.66 196.01 138.66 201.58"></polygon><polygon class="cls-10" points="138.66 190.6 177.02 212.67 177.02 207.15 138.66 185.02 138.66 190.6"></polygon><polygon class="cls-8" points="187.34 229.61 192.37 232.51 192.37 214.91 187.34 212.02 187.34 229.61"></polygon><polygon class="cls-10" points="205.16 239.88 210.24 242.78 210.24 225.19 205.16 222.23 205.16 239.88"></polygon><polygon class="cls-10" points="196.14 234.53 201.22 237.48 201.22 219.83 196.14 216.93 196.14 234.53"></polygon></g><path id="Path-7" class="cls-10" d="M129.29,170.65l131.31,75.52c4.75,2.73,12.46,2.73,17.27,0l88.63-51.09c4.75-2.73,4.75-7.21,0-9.95L235.19,109.61c-4.75-2.73-12.46-2.73-17.27,0l-88.63,51.09c-4.75,2.73-4.75,7.16,0,9.95Z"></path><path id="Path-8" class="cls-7" d="M269.23,243c-2.08,.05-4.15-.38-6.01-1.37l-131.31-75.52c-.22-.11-.44-.27-.66-.44,.22-.16,.44-.33,.66-.44l88.63-51.09c3.83-1.8,8.25-1.8,12.02,0l131.31,75.52c.22,.11,.44,.27,.66,.44-.22,.16-.44,.33-.66,.44l-88.63,51.09c-1.86,.98-3.93,1.42-6.01,1.37h0Z"></path><polygon id="Path-9" class="cls-7" points="173 165.62 226.55 134.8 322.78 190.16 269.23 220.97 173 165.62"></polygon><polyline id="Path-10" class="cls-13" points="182.07 166.66 226.55 141.03 313.71 191.19"></polyline><line id="Path-11" class="cls-13" x1="226.55" y1="134.8" x2="226.55" y2="141.03"></line><ellipse id="Oval-2" class="cls-9" cx="235.14" cy="249.22" rx="3.17" ry="5.46" transform="translate(-93.5 152.29) rotate(-30.23)"></ellipse></g><g><path id="Path-12" class="cls-10" d="M369.99,170.32v-34.1l-66.5-6.5-68.36-39.34c-4.75-2.73-12.46-2.73-17.27,0l-45.95,26.45-46.28-4.54v33.99c-.05,1.86,1.15,3.72,3.55,5.14l131.42,75.57c4.75,2.73,12.46,2.73,17.27,0l88.63-51.09c2.62-1.53,3.83-3.55,3.5-5.57Z"></path><g id="Path-13"><polygon class="cls-10" points="138.66 148.3 177.02 170.37 177.02 164.85 138.66 142.72 138.66 148.3"></polygon><polygon class="cls-10" points="138.66 137.31 177.02 159.39 177.02 153.87 138.66 131.74 138.66 137.31"></polygon><polygon class="cls-10" points="187.34 176.33 192.37 179.22 192.37 161.63 187.34 158.68 187.34 176.33"></polygon><polygon class="cls-8" points="205.16 186.6 210.24 189.5 210.24 171.9 205.16 168.95 205.16 186.6"></polygon><polygon class="cls-8" points="196.14 181.25 201.22 184.14 201.22 166.55 196.14 163.6 196.14 181.25"></polygon></g><path id="Path-14" class="cls-10" d="M129.29,117.31l131.31,75.57c4.75,2.73,12.46,2.73,17.27,0l88.63-51.09c4.75-2.73,4.75-7.21,0-9.95L235.19,56.33c-4.75-2.73-12.46-2.73-17.27,0l-88.63,51.04c-4.75,2.79-4.75,7.21,0,9.95Z"></path><path id="Path-15" class="cls-7" d="M269.23,189.72c-2.08,.05-4.15-.38-6.01-1.37L131.91,112.83c-.22-.11-.44-.27-.66-.44,.22-.16,.44-.33,.66-.44l88.63-51.09c3.83-1.8,8.25-1.8,12.02,0l131.31,75.52c.22,.11,.44,.27,.66,.44-.22,.16-.44,.33-.66,.44l-88.63,51.09c-1.86,.93-3.93,1.42-6.01,1.37h0Z"></path><polygon id="Path-16" class="cls-7" points="173 112.34 226.55 81.52 322.78 136.88 269.23 167.69 173 112.34"></polygon><polyline id="Path-17" class="cls-13" points="182.07 113.38 226.55 87.75 313.71 137.91"></polyline><line id="Path-18" class="cls-13" x1="226.55" y1="81.52" x2="226.55" y2="87.75"></line><ellipse id="Oval-3" class="cls-9" cx="235.14" cy="195.94" rx="3.17" ry="5.46" transform="translate(-66.68 145.04) rotate(-30.23)"></ellipse></g><g><path id="Path-19" class="cls-10" d="M369.95,117.03v-34.1l-66.5-6.5-68.36-39.34c-4.75-2.73-12.46-2.73-17.27,0l-45.9,26.5-46.28-4.48v33.93c-.05,1.86,1.15,3.72,3.55,5.14l131.42,75.52c4.75,2.73,12.46,2.73,17.27,0l88.63-51.09c2.62-1.53,3.77-3.61,3.44-5.57Z"></path><g id="Path-20"><polygon class="cls-10" points="138.66 94.96 177.02 117.09 177.02 111.52 138.66 89.44 138.66 94.96"></polygon><polygon class="cls-10" points="138.66 83.98 177.02 106.11 177.02 100.59 138.66 78.46 138.66 83.98"></polygon><polygon class="cls-10" points="187.34 123.05 192.37 125.95 192.37 108.35 187.34 105.4 187.34 123.05"></polygon><polygon class="cls-10" points="205.16 133.32 210.24 136.22 210.24 118.62 205.16 115.67 205.16 133.32"></polygon><polygon class="cls-15" points="196.14 127.97 201.22 130.86 201.22 113.27 196.14 110.32 196.14 127.97"></polygon></g><path id="Path-21" class="cls-10" d="M129.31,64.03l131.31,75.57c4.75,2.73,12.46,2.73,17.27,0l88.63-51.09c4.75-2.73,4.75-7.21,0-9.95L235.15,3.05c-4.75-2.73-12.46-2.73-17.27,0l-88.58,51.04c-4.75,2.79-4.75,7.21,0,9.95Z"></path><path id="Path-22" class="cls-4" d="M269.25,136.43c-2.08,.05-4.15-.44-6.01-1.37L131.93,59.5c-.22-.11-.44-.27-.66-.44,.22-.16,.44-.33,.66-.44L220.56,7.53c3.83-1.8,8.25-1.8,12.02,0l131.25,75.57c.22,.11,.44,.27,.66,.44-.22,.16-.44,.33-.66,.44l-88.63,51.09c-1.8,.98-3.88,1.42-5.96,1.37h0Z"></path><ellipse id="Oval-4" class="cls-5" cx="235.15" cy="142.65" rx="3.17" ry="5.46" transform="translate(-39.84 137.8) rotate(-30.23)"></ellipse></g></g><g><path id="Path-23" class="cls-1" d="M307.92,105.14c-.32-2.43-.42-4.86-.42-7.29,0-30.62,21.43-67.68,47.93-83.09,13.2-7.6,25.13-8.34,33.79-3.48l12.25,7.07c10.98-6.23,20.9-6.65,28.08-2.43l19.11,10.98s-7.6,14.78-7.6,14.89c1.06-.74,2.22-1.48,3.38-2.11,8.66-4.96,16.47-5.38,22.17-2.01l18.58,10.77s-23.76,52.58-40.75,62.4l-140.95,92.28-20.27-11.72c-6.55-3.8-10.66-12.04-10.66-23.65-.11-22.81,15.63-50.57,35.37-62.61Z"></path><path id="Path-24" class="cls-1" d="M463.86,51.08c-1.16,.63-2.22,1.37-3.38,2.11v-.21c0-25.44-17.84-35.69-39.91-23.02-.95,.53-1.9,1.16-2.85,1.79-7.81-13.41-23.97-16.37-42.65-5.6-26.5,15.31-47.93,52.47-47.93,82.99,0,2.43,.11,4.86,.42,7.29-19.74,12.04-35.48,39.8-35.48,62.71s15.52,32.31,35.05,21.96h0l136.83-78.97c17-9.82,30.83-33.79,30.83-53.42s-13.83-27.45-30.94-17.63Z"></path><line id="Path-25" class="cls-3" x1="401.46" y1="18.46" x2="410.33" y2="23.63"></line><line id="Path-26" class="cls-3" x1="307.92" y1="105.14" x2="327.56" y2="116.54"></line></g><g><path class="cls-2" d="M331.19,137.99c-5.06-6.1-1.7-1.95-6.76-8.05"></path><path class="cls-2" d="M358.44,129.18c-4.97,3.97-5.17,3.89-10.14,7.86-1.03,.83-2.33,1.35-3.02,2.58"></path><path class="cls-2" d="M351.64,148.08c-6.43-1.61-.28-.22-6.71-1.83"></path><path class="cls-2" d="M341.06,119.36c-2.47,5.86-3.03,9.08-4.7,15.14"></path></g><path class="cls-14" d="M271.35,119.62c-.45,2.77-.78,5.56-.99,8.36-.43,5.52-.44,11.06-.45,16.6,0,.87,.34,1.64,.87,2.24,.23,5.1,.1,10.22-.4,15.31-.15,1.51-.34,3.02-.57,4.52-.25,1.62-.76,3.34-.7,4.98,.06,1.92,1.18,3.53,2.67,4.39-2.88,3.93-6.25,7.81-7.86,12.45-1.53,4.39-2.35,9.4,1.22,12.73-.24,1.61,.08,3.26,.43,4.85,.68,3.12,1.95,6.04,4.27,8.15-.38,.86-.57,1.81-.52,2.85,.1,2.11,1.25,3.98,2.28,5.75,1.87,3.21,3.89,6.33,6.07,9.35,4.49,6.22,9.54,12,15.15,17.23,.26,.24,.54,.44,.84,.6,2.39,3.11,2.05,8.01,1.21,11.91-.61,2.83-1.51,5.59-2.13,8.42-.4,1.82-.41,3.54,1.05,4.92,1.06,1,2.66,1.36,4.02,1.79,10.34,3.26,21.8,3.14,31.48,8.37,2.09,1.13,4.84,.14,5.45-2.25,.74-2.88-.18-5.8,.18-8.73,.4-3.19,.89-6.37,1.16-9.58,.5-5.91,.52-11.84,.11-17.75,2.73-7.81,3.29-16.38,4.03-24.54,.74-8.23,.85-16.64-1.57-24.62-.17-.55-.42-1.01-.73-1.37,.04-.63,.15-1.28,.1-1.88-.1-1.42-.52-2.65-1.11-3.94-.78-1.71-1.75-3.26-2.3-5.07-1.16-3.76-1.24-7.91-.58-11.7,.85-4.82,2.6-9.41,4.62-13.84,1.98-4.35,4.83-9.01,2.26-13.75-.12-.22-.25-.41-.39-.58,.16-.99-.13-2.05-1.1-2.96-.29-.27-.58-.52-.89-.75-.5-1.42-2.09-2.27-3.5-2.33-2.03-.09-4.1,.71-6.03,1.23-1.99,.53-3.98,1.07-5.97,1.6-3.79,1.02-7.59,2.03-11.38,3.05-7.78,2.09-15.55,4.17-23.33,6.26-.26,.07-.5,.16-.72,.27-.17-.65-.36-1.29-.57-1.93-.04-.13-.09-.25-.14-.37-.35-4.18-.48-8.37-.4-12.57,.12-.36,.21-.75,.24-1.15,.45-5.27-.08-10.89-1.05-16.09-.46-2.45-1.42-4.98-3.22-6.76-2.02-1.99-5.3-2.59-7.75-1.03-2.52,1.61-2.9,4.68-3.34,7.38Zm6-.93c-.2-.03-.1-.45,0-.03,0,0,0,.02,0,.03Zm1.83-.37c.05-.22,.09-.41,.07-.48,.06,.21,.02,.36-.07,.48Z"></path><g><path class="cls-11" d="M271.84,176.55c-.73-.61-1.15-1.23-1.12-2.33,.28-11.95,.08-23.93,.83-35.85,.48-7.59,.47-15.28,2.35-22.8,.55-2.22,1.1-2.86,3.28-2.94,3.79-.13,6.09,.95,7.76,4.15,2.87,5.49,2.67,11.41,2.54,17.33-.14,6.26-.71,12.54,1.18,18.67"></path><path class="cls-11" d="M336.9,197.85c3.93,7.78,5.33,16.13,4.53,24.68-.34,3.64-.74,7.44-2.06,10.98-2.95,7.87-3.24,16.11-3,24.34,.25,8.22-.02,16.39-1.14,24.53-.13,.93,.71,1.82-.01,2.71"></path><path class="cls-11" d="M293.44,274.72c2.62-5.84,3.31-12.13,3.7-18.37,.19-3.13-2.62-5.36-4.59-7.73-6.35-7.65-13.27-14.85-18.68-23.27-.88-1.37-2-2.64-2.61-4.12-1.26-3.07-1.36-5.73,.81-8.99,6.33-9.47,13.7-17.92,21.86-25.83,3.18-3.08,6.48-3.33,10.32-2.65,4.79,.85,9.39,2.15,13.85,4.25,4.46,2.1,6.11,6,7.86,10,.38,.86,.89,1.74,.96,2.64,.15,1.88,1.89,3.96-.73,5.59-2.72,1.69-4.75,1.56-7.45-.24-2.04-1.36-2.9-3.53-4.06-5.17-2.75-.25-5.19-.45-7.63-.7-2.61-.26-7.06,4.25-6.08,6.51,2.61,6.05,.58,11.08-2.91,15.93-.2,.28-.38,.58-.57,.87"></path><path class="cls-11" d="M326.47,197.46c1.5-.24,2.92,.27,4.19,.83,2.31,1.02,4.26-.32,6.11-.97,1.21-.42,1.54-2.28,.75-4.12-3.61-8.35-9.82-13.96-17.63-18.29-5-2.77-10.43-4.46-15.5-7.04-5.09-2.58-10.52-1.26-15.29,4.1-7.68,8.62-14.4,17.94-20.53,27.78-3.6,5.77-1.62,9.7,1.58,14.08"></path><path class="cls-11" d="M332.71,184.16c.2-.74,.65-1.52,.55-2.22-1.22-8.34,1.64-15.61,5.65-22.67,1.74-3.07,3.4-6.2,3.16-10.06-.12-1.91-1.3-2.92-1.87-4.32-2.75-6.77-7.66-4.13-11.91-2.97-11.85,3.24-23.6,6.84-35.39,10.27-1.55,.45-3.18,.65-4.71,1.16-5.08,1.69-7.12,6.1-9.25,10.44-2.16,4.39-4.22,8.8-6.63,13.09-2.77,4.94-5.76,9.81-8.22,14.94-1.9,3.98-.34,7.38,2.3,10.46"></path><path class="cls-11" d="M302.56,214.59c6.22,3.91,12.8,7.36,18.55,11.86,6.03,4.72,9.24,11.3,8.22,19.35-.03,.24,.29,.53,.44,.8"></path><path class="cls-11" d="M339.94,145.29c-1.61,2.2-.83,5.43-3.56,7.27-2.52,1.71-4.92,3.56-7.77,4.66-2.07,.8-4.16,1.65-6.33,2.03-3.79,.67-4.72,3.59-4.97,6.53-.2,2.24-.68,4.36-1.17,6.51"></path><path class="cls-11" d="M303.93,167.03c3.82-2.88,8.27-4.38,12.76-5.76,.29-.09,1.04-.61,1.26,.29"></path><path class="cls-11" d="M300.6,206.59c-3.01,1.74-4.88,4.75-7.59,6.83"></path></g><path class="cls-20" d="M399.1,45.16c6.36,5.05,11.72,14.7,6.75,28.75-2.44,7.56-10.34,16.23-15.01,13.73-4.35-2.54-3.97-10.62-3.41-17.42-5.7,9.41-10.88,20.83-9.49,29.46,2.02,7.52-1.13,21.04-6.33,22.11-2.74,.57-4.01-.86-4.41-9.57-8.98,20.62-3.22,43.16,6.38,44.32,3.42,1.4,7.57,2.33,11.81,1.03,5.03-6.36,9.36-15.47,7.53-21.44-1.25-4.64-4.1-8.37-2.02-15.21,2.02-8.55,7.67-18.35,12.85-24.9-2.09,10.47-1.52,21.7,5.71,23.72,5.21,2.29,13.77-.78,16.08,6.25,.74,2.6,.27,6.04-.26,9.36,11.25-15.3,18.11-34.76,17.22-49.88-.37-8.46-2.27-16.2-6.69-20.83,.23,7.49,1.37,16.04-3.58,25.04-5.69,8.9-15.32,3.34-9.65-6.12,6.13-10.82,9.69-24.36,5.23-31.26-6.16-9.57-18.49-9.73-30.13-8.3l1.39,1.17Z"></path><g><path id="Path-27" class="cls-6" d="M355.93,213.36c-.44-.43-3.42-12.59,5.53-38.07,9.83-27.97,28.91-47.52,48.69-61.01,16.38-9.48,31.22-10.16,41.74-3.57l23.03,12.87-96.44,107.23-22.55-17.45Z"></path><path class="cls-10" d="M494.86,163.37c0-.19,.01-.38,.01-.57,0-36.82-26.04-51.64-58.16-33.09-32.12,18.54-58.16,63.43-58.16,100.25,0,.19,.01,.37,.01,.55l116.29-67.14Z"></path><text class="cls-16" transform="translate(434.88 177.27)"><tspan x="0" y="0"> </tspan></text><path class="cls-19" d="M468.73,143.32c2.34,1.41,4.39,3.28,6.12,5.6l9.18-11.38c-2.18-2.99-4.8-5.4-7.78-7.2l-7.53,12.98Z"></path><path class="cls-21" d="M407.74,177.55c2.4-4.07,5.08-7.97,7.97-11.62l-5.34-7.53c-3.7,4.66-7.11,9.66-10.16,14.86l7.53,4.29Z"></path><path class="cls-21" d="M416.77,164.62c2.9-3.54,6.02-6.83,9.29-9.78l-2.77-10.26c-4.18,3.76-8.16,7.97-11.86,12.51l5.35,7.53Z"></path><path class="cls-21" d="M400.76,191.7c1.73-4.32,3.79-8.57,6.12-12.67l-7.53-4.28c-2.98,5.24-5.59,10.67-7.78,16.18l9.18,.78Z"></path><path class="cls-21" d="M396.3,206.13c.92-4.28,2.23-8.6,3.85-12.87l-9.18-.78c-2.07,5.44-3.71,10.94-4.86,16.4l10.18-2.75Z"></path><path class="cls-19" d="M484.64,138.4l-9.18,11.38c1.63,2.39,2.93,5.2,3.85,8.42l10.18-9.01c-1.15-4.13-2.79-7.73-4.86-10.79Z"></path><path class="cls-21" d="M459.9,140.41c2.89,.31,5.57,1.13,7.97,2.42l7.53-12.98c-3.05-1.68-6.46-2.74-10.16-3.13l-5.34,13.7Z"></path><path class="cls-21" d="M449.56,141.27c3.27-.83,6.38-1.13,9.29-.94l5.35-13.7c-3.7-.27-7.68,.11-11.86,1.18l-2.77,13.47Z"></path><path class="cls-21" d="M438.42,145.85c3.43-1.93,6.77-3.34,9.97-4.26l2.77-13.47c-4.08,1.16-8.35,2.96-12.74,5.44v12.29Z"></path><path class="cls-21" d="M427.23,153.8c3.2-2.77,6.53-5.21,9.97-7.25v-12.29c-4.39,2.59-8.66,5.71-12.74,9.27l2.77,10.27Z"></path><path class="cls-19" d="M491.21,159.26c-.25-3.17-.72-6.15-1.4-8.89l-10.18,9.01c.47,1.87,.8,3.87,1.02,5.99l10.56-6.1Z"></path><path class="cls-21" d="M394.96,214.83c.22-2.36,.55-4.76,1.02-7.16l-10.18,2.75c-.69,3.54-1.16,7.05-1.4,10.51l10.56-6.1Z"></path><path class="cls-17" d="M400.6,217.52c.54-6.76,2.23-13.91,5-21.05l5.62,.48s.02,0,.03,0c.16,0,.29-.12,.3-.28,.01-.17-.11-.31-.28-.33l-5.44-.46c1.72-4.34,3.81-8.67,6.28-12.91,2.38-4.08,5-7.9,7.8-11.43l3.18,4.47c.06,.08,.15,.13,.25,.13,.06,0,.12-.02,.18-.06,.14-.1,.17-.29,.07-.42l-3.28-4.6c5.8-7.18,12.38-13.04,19.23-17.08v7.25c0,.17,.14,.3,.3,.3s.3-.14,.3-.3v-7.62s0,0,.01,0c6.18-3.53,12.12-5.31,17.48-5.31,.57,0,1.13,.03,1.68,.07l-3.29,8.32c-.06,.16,.01,.33,.17,.39,.04,.01,.07,.02,.11,.02,.12,0,.23-.07,.28-.19l3.35-8.48c2.88,.29,5.57,1.13,7.99,2.54,2.34,1.36,4.34,3.2,5.98,5.46l-5.75,7.09c-.11,.13-.09,.32,.04,.43,.06,.05,.12,.07,.19,.07,.09,0,.18-.04,.24-.11l5.63-6.95c2.7,3.95,4.35,9.12,4.86,15.22l.6-.35c-.89-10.03-4.89-17.54-11.49-21.39-7.58-4.42-17.66-3.48-28.38,2.64-10.67,6.09-20.71,16.6-28.28,29.58-6.77,11.61-10.82,23.96-11.64,35.23l.65-.38Z"></path><g><path class="cls-18" d="M482.28,120.07c-11.38,15.42-27.52,34.06-33.53,45.09-1.66,3.06-2.93,5.63-3.95,7.78-2.52,.2-5.56,2.49-7.64,6.05-2.05,3.52-2.56,7.25-1.53,9.55l-14.3,20.1,2.15,1.7,2.06,1.61,12.56-21.31c2.69,.6,6.41-1.84,8.82-5.97,1.81-3.1,2.41-6.36,1.83-8.67,1.5-1.72,3.27-3.86,5.38-6.63,7.44-9.95,19.46-31.73,28.96-48.67,1.08-1.97,.54-2.51-.81-.63Z"></path><ellipse class="cls-14" cx="442.7" cy="181.81" rx="4" ry="2.31" transform="translate(62.07 471.91) rotate(-59.64)"></ellipse></g></g></svg> 