<?xml version="1.0" encoding="UTF-8"?> <svg xmlns="http://www.w3.org/2000/svg" xmlns:xlink="http://www.w3.org/1999/xlink" version="1.1" id="Layer_1" x="0px" y="0px" viewBox="0 0 76 53" style="enable-background:new 0 0 76 53;" xml:space="preserve"> <style type="text/css"> .st0{fill:none;stroke:#000000;stroke-width:1.5;stroke-linecap:round;stroke-linejoin:round;} </style> <path class="st0" d="M8.9,40.8V6.3c0-2.9,2.4-5.3,5.2-5.3h47.2c2.9,0,5.2,2.4,5.2,5.3v34.5"></path> <path class="st0" d="M1,40.8h73.5v5.3c0,2.9-2.5,5.3-5.7,5.3H6.7c-3.1,0-5.7-2.4-5.7-5.3V40.8z"></path> <path d="M51.3,7c-0.2-0.2-0.6-0.2-0.8,0L47.4,10l-8.9-1.9c-0.2-0.1-0.4,0-0.5,0.2L22.7,23.5c-0.2,0.2-0.2,0.6,0,0.8l11.3,11.3 c0.1,0.1,0.2,0.2,0.4,0.2c0.2,0,0.3-0.1,0.4-0.2L50,20.4c0.1-0.1,0.2-0.4,0.2-0.5l-1.9-9l3.1-3.1C51.6,7.6,51.6,7.2,51.3,7L51.3,7z M48.9,19.7L34.3,34.4L23.9,24L38.6,9.4l7.9,1.7L44,13.5c-0.9-0.5-2.1-0.4-2.8,0.4c-0.4,0.4-0.7,1-0.7,1.7c0,0.6,0.2,1.2,0.7,1.7 c0.4,0.4,1,0.7,1.7,0.7c0.6,0,1.2-0.2,1.7-0.7c0.4-0.4,0.7-1,0.7-1.7c0-0.4-0.1-0.8-0.3-1.1l2.4-2.5L48.9,19.7L48.9,19.7z M43.9,15.5c0,0.3-0.1,0.6-0.4,0.8c-0.4,0.4-1.2,0.4-1.6,0c-0.2-0.2-0.4-0.5-0.4-0.8c0-0.3,0.1-0.6,0.4-0.8c0.2-0.2,0.5-0.4,0.8-0.4 s0.6,0.1,0.8,0.4C43.8,14.9,43.9,15.2,43.9,15.5L43.9,15.5z"></path> </svg> 